#N canvas -9 -9 1920 976 12;
#X obj 51 25 inlet;
#X obj 51 50 route clear;
#X obj 174 102 tgl 15 0 empty empty empty 17 7 0 10 -262144 -1 -1 0
1;
#X obj 125 122 spigot 1;
#X obj 125 173 outlet;
#X obj 125 147 t b b;
#X obj 174 51 inlet;
#X msg 51 73 0;
#X msg 174 79 1;
#X connect 0 0 1 0;
#X connect 1 0 7 0;
#X connect 1 1 3 0;
#X connect 2 0 3 1;
#X connect 3 0 5 0;
#X connect 5 0 4 0;
#X connect 6 0 8 0;
#X connect 7 0 2 0;
#X connect 8 0 2 0;
