#N canvas -9 -9 1920 976 12;
#X obj 101 18 inlet;
#X obj 1294 121 bng 15 250 50 0 empty empty empty 17 7 0 10 -262144
-1 -1;
#X obj 1294 141 f \$1;
#X floatatom 1294 165 5 0 0 0 - - -;
#X text 1277 83 |TESTING SECTION|;
#X text 1291 98 LOG: Clone instance number;
#X obj 101 47 route note polytouch control prgm aftouch pitch-bend
;
#X obj 341 96 s \$0-aftouch;
#X obj 401 75 s \$0-pitch-bend;
#X obj 281 118 s \$0-prgm;
#X obj 221 139 s \$0-control;
#X obj 161 161 s \$0-polytouch;
#X obj 101 184 s \$0-notein;
#X obj 529 77 print route-end;
#X obj 279 256 notein;
#X connect 0 0 6 0;
#X connect 1 0 2 0;
#X connect 2 0 3 0;
#X connect 6 0 12 0;
#X connect 6 1 11 0;
#X connect 6 2 10 0;
#X connect 6 3 9 0;
#X connect 6 4 7 0;
#X connect 6 5 8 0;
#X connect 6 6 13 0;
