#N canvas -9 -9 1920 976 12;
#X obj 101 18 inlet;
#X obj 1616 304 bng 15 250 50 0 empty empty empty 17 7 0 10 -262144
-1 -1;
#X obj 1616 324 f \$1;
#X floatatom 1616 348 5 0 0 0 - - -;
#X text 1599 266 |TESTING SECTION|;
#X text 1613 281 LOG: Clone instance number;
#X obj 101 47 route note polytouch control prgm aftouch pitch-bend
;
#X obj 341 96 s \$0-aftouch;
#X obj 401 75 s \$0-pitch-bend;
#X obj 281 118 s \$0-prgm;
#X obj 221 139 s \$0-control;
#X obj 161 161 s \$0-polytouch;
#X obj 101 184 s \$0-notein;
#X obj 24 101 print note;
#X obj 96 391 outlet~;
#X obj 226 391 outlet~;
#N canvas -9 -9 1920 976 note-parser 0;
#X obj 55 103 poly 32, f 10;
#X obj 55 70 unpack f f;
#X obj 55 132 pack f f f;
#X obj 55 38 r \$0-notein;
#X obj 55 156 s \$0-note-2-voice;
#X obj 26 184 print note2voice;
#X connect 0 0 2 0;
#X connect 0 1 2 1;
#X connect 0 2 2 2;
#X connect 1 0 0 0;
#X connect 1 1 0 1;
#X connect 2 0 4 0;
#X connect 2 0 5 0;
#X connect 3 0 1 0;
#X restore 96 276 pd note-parser;
#N canvas 1911 34 1842 932 channel-subpatch 0;
#X obj 100 50 r \$0-note-2-voice;
#X obj 100 150 clone -s 1 pacman 10;
#X obj 100 200 throw~ \$0-voice-out-left;
#X obj 300 200 throw~ \$0-voice-out-right;
#X connect 0 0 1 0;
#X connect 1 0 2 0;
#X connect 1 0 3 0;
#X restore 96 311 pd channel-subpatch;
#N canvas 0 50 450 300 channel-mod 0;
#X obj 40 20 inlet~;
#X obj 122 19 inlet~;
#X obj 40 89 outlet~;
#X obj 123 88 outlet~;
#X restore 97 351 pd channel-mod;
#X f 19;
#X obj 990 67 t b b, f 19;
#X obj 1120 165 s pd-channel-subpatch;
#X obj 1686 305 bng 15 250 50 0 empty empty empty 17 7 0 10 -262144
-1 -1;
#X floatatom 1686 349 5 0 0 0 - - -;
#X obj 1686 325 f \$0;
#X obj 990 33 loadbang;
#X msg 1120 94 clear \, obj 100 50 r \\\$0-note-2-voice \, obj 100
150 clone -s 1 pacman 10 \, obj 100 200 throw~ \\\$0-voice-out-left
\, obj 300 200 throw~ \\\$0-voice-out-right \, connect 0 0 1 0 \, connect
1 0 2 0 \, connect 1 0 3 0;
#X obj 529 77 route voice-change;
#X obj 990 94 print load-sucess;
#X obj 529 177 s pd-channel-subpatch;
#X msg 529 106 clear \, obj 100 50 r \\\$0-note-2-voice \, obj 100
150 clone -s 1 \$1 10 \, obj 100 200 throw~ \\\$0-voice-out-left \,
obj 300 200 throw~ \\\$0-voice-out-right \, connect 0 0 1 0 \, connect
1 0 2 0 \, connect 1 0 3 0;
#X obj 1072 26 bng 15 250 50 0 empty empty empty 17 7 0 10 -262144
-1 -1;
#X connect 0 0 6 0;
#X connect 1 0 2 0;
#X connect 2 0 3 0;
#X connect 6 0 12 0;
#X connect 6 0 13 0;
#X connect 6 1 11 0;
#X connect 6 2 10 0;
#X connect 6 3 9 0;
#X connect 6 4 7 0;
#X connect 6 5 8 0;
#X connect 6 6 26 0;
#X connect 18 0 14 0;
#X connect 18 1 15 0;
#X connect 19 0 27 0;
#X connect 19 1 25 0;
#X connect 21 0 23 0;
#X connect 23 0 22 0;
#X connect 24 0 19 0;
#X connect 25 0 20 0;
#X connect 26 0 29 0;
#X connect 29 0 28 0;
#X connect 30 0 19 0;
