#N canvas -9 -9 1920 988 10;
#X obj 31 21 inlet;
#X obj 31 100 until;
#X obj 107 81 + 1;
#X obj 31 164 outlet;
#X obj 31 43 unpack f f;
#X obj 107 107 sel, f 6;
#X obj 31 65 t b f;
#X obj 31 136 f, f 9;
#X text 237 93 Input: List. \$1-starting index \$2-loop until size(exclusive)
;
#X text 236 107 Output: Looped numbers;
#X connect 0 0 4 0;
#X connect 1 0 7 0;
#X connect 2 0 5 0;
#X connect 2 0 7 1;
#X connect 4 0 6 0;
#X connect 4 1 5 1;
#X connect 5 0 1 1;
#X connect 6 0 1 0;
#X connect 6 1 7 1;
#X connect 7 0 2 0;
#X connect 7 0 3 0;
