#N canvas -9 -9 1920 988 10;
#X obj 31 21 inlet;
#X obj 31 245 until;
#X obj 106 222 + 1;
#X obj 31 309 outlet;
#X obj 31 178 unpack f f, f 21;
#X obj 106 248 sel;
#X obj 31 201 t b f;
#X obj 31 281 f, f 9;
#X text 234 117 Output: Looped numbers;
#X obj 31 43 t a a, f 8;
#X obj 31 150 spigot;
#X obj 76 88 sel, f 8;
#X obj 76 66 unpack f f;
#X msg 121 109 1;
#X msg 76 110 0;
#X obj 170 26 inlet;
#X text 237 93 Input: 0- List. \$1-starting index \$2-loop until size(exclusive)
1- bang: To abruptly stop loop, f 64;
#X connect 0 0 9 0;
#X connect 1 0 7 0;
#X connect 2 0 7 1;
#X connect 2 0 5 0;
#X connect 4 0 6 0;
#X connect 4 1 5 1;
#X connect 5 0 1 1;
#X connect 6 0 1 0;
#X connect 6 1 7 1;
#X connect 7 0 2 0;
#X connect 7 0 3 0;
#X connect 9 0 10 0;
#X connect 9 1 12 0;
#X connect 10 0 4 0;
#X connect 11 0 14 0;
#X connect 11 1 13 0;
#X connect 12 0 11 0;
#X connect 12 1 11 1;
#X connect 13 0 10 1;
#X connect 14 0 10 1;
#X connect 15 0 1 1;
