#N canvas -9 -9 1920 976 12;
#X obj 51 25 inlet;
#X obj 51 50 route clear;
#X obj 178 103 tgl 15 0 empty empty empty 17 7 0 10 -262144 -1 -1 0
1;
#X obj 125 122 spigot 1;
#X obj 125 173 outlet;
#X obj 178 52 inlet;
#X msg 51 73 0;
#X msg 178 80 1;
#X text 288 72 Sets a positive state if it receives bang on right inlet.
In positive state any input in left inlet outputs a bang. To reset
positive state to neutral state send 'clear' message in left inlet.
;
#X obj 125 147 t b a;
#X text 287 141 For example refer \, send-on-change.pd or help file(TBD)
;
#X connect 0 0 1 0;
#X connect 1 0 6 0;
#X connect 1 1 3 0;
#X connect 2 0 3 1;
#X connect 3 0 9 0;
#X connect 5 0 7 0;
#X connect 6 0 2 0;
#X connect 7 0 2 0;
#X connect 9 0 4 0;
