#N canvas -9 -9 1920 988 12;
#X obj 101 18 inlet;
#X obj 1364 317 bng 15 250 50 0 empty empty empty 17 7 0 10 -262144
-1 -1;
#X obj 1364 337 f \$1;
#X floatatom 1364 361 5 0 0 0 - - -;
#X text 1347 279 |TESTING SECTION|;
#X text 1361 294 LOG: Clone instance number;
#X obj 101 47 route note polytouch control prgm aftouch pitch-bend
;
#X obj 341 96 s \$0-aftouch;
#X obj 402 74 s \$0-pitch-bend;
#X obj 281 118 s \$0-prgm;
#X obj 221 139 s \$0-control;
#X obj 161 161 s \$0-polytouch;
#X obj 101 184 s \$0-notein;
#X obj 24 101 print note;
#X obj 93 542 outlet~;
#X obj 188 541 outlet~;
#N canvas 0 0 1920 988 channel-mod 0;
#X obj 20 196 outlet~;
#X obj 221 190 outlet~;
#X obj 19 18 catch~ \$0-voice-out-left;
#X obj 214 19 catch~ \$0-voice-out-right;
#X text 517 50 Catching audio from switched on voice \, control for
channel volume \, applying pan effect before sending to outlet, f
29;
#X obj 19 77 gm-channel-volume;
#X obj 209 47 r \$0-control;
#X obj 211 93 r \$0-control;
#X obj 19 127 gm-pan, f 17;
#X connect 2 0 5 0;
#X connect 3 0 5 1;
#X connect 5 0 8 0;
#X connect 5 1 8 1;
#X connect 6 0 5 2;
#X connect 7 0 8 2;
#X connect 8 0 0 0;
#X connect 8 1 1 0;
#X restore 93 502 pd channel-mod;
#X obj 1367 425 t b b, f 19;
#X obj 1434 318 bng 15 250 50 0 empty empty empty 17 7 0 10 -262144
-1 -1;
#X floatatom 1434 362 5 0 0 0 - - -;
#X obj 1434 338 f \$0;
#X obj 1367 397 bang;
#X msg 1497 452 clear \, obj 100 50 r \\\$0-note-2-voice \, obj 100
150 clone -s 1 pacman 10 \, obj 100 200 throw~ \\\$0-voice-out-left
\, obj 300 200 throw~ \\\$0-voice-out-right \, connect 0 0 1 0 \, connect
1 0 2 0 \, connect 1 0 3 0;
#X obj 1367 452 print load-sucess;
#X obj 2104 442 route voice-change;
#X obj 532 37 print in-channel;
#X obj 2276 472 print in-filter;
#X obj 2103 508 t b s b;
#X msg 2149 530 clear \, obj 100 50 r \\\$0-note-2-voice;
#X obj 2103 476 list;
#X obj 1491 526 s pd-channel-subpatch-\$0;
#X obj 2149 556 s pd-channel-subpatch-\$0;
#X obj 2126 615 s pd-channel-subpatch-\$0;
#X obj 2242 706 s pd-channel-subpatch-\$0;
#X msg 2241 670 connect 0 0 1 0;
#X obj 2103 643 t b b, f 20;
#X obj 2103 667 t b b, f 8;
#X msg 2156 690 \; pd dsp 0;
#X msg 2103 727 \; pd dsp 1;
#X text 2433 528 Clears the subpatch and create note recieve object.
;
#X text 2433 591 Creates clone object \, sends bang to voices;
#X text 2367 666 Connect and quick toggles DSP(fix to get it working)
;
#X obj 2103 691 del 1;
#X msg 2126 586 obj 100 150 clone -s 1 32 \$1 \\\$0 \, bang;
#N canvas 1 1 1900 968 voice-\$0-1 0;
#N canvas -9 -9 1920 988 voice-clone-\$0-1 0;
#X restore 124 96 pd voice-clone-\$0-1;
#X obj 124 319 throw~ \$0-voice-out-left;
#X obj 465 317 throw~ \$0-voice-out-right;
#X obj 125 149 catch~ \$0-output-left-1;
#X obj 466 147 catch~ \$0-output-right-1;
#X obj 124 295 *~ 1;
#X obj 465 293 *~ 1;
#X connect 3 0 5 0;
#X connect 4 0 6 0;
#X connect 5 0 1 0;
#X connect 6 0 2 0;
#X restore 93 365 pd voice-\$0-1;
#N canvas 0 0 1842 944 voice-\$0-3 0;
#N canvas 0 50 450 300 voice-clone-\$0-3 0;
#X restore 125 83 pd voice-clone-\$0-3;
#X obj 124 319 throw~ \$0-voice-out-left;
#X obj 462 332 throw~ \$0-voice-out-right;
#X obj 125 149 catch~ \$0-output-left-3;
#X obj 463 162 catch~ \$0-output-right-3;
#X obj 124 295 *~ 1;
#X obj 462 308 *~ 1;
#X connect 3 0 5 0;
#X connect 4 0 6 0;
#X connect 5 0 1 0;
#X connect 6 0 2 0;
#X restore 297 365 pd voice-\$0-3;
#N canvas 0 0 1920 988 voice-\$0-4 0;
#N canvas 0 50 450 300 voice-clone-\$0-4 0;
#X restore 125 83 pd voice-clone-\$0-4;
#X obj 480 336 throw~ \$0-voice-out-right;
#X obj 124 319 throw~ \$0-voice-out-left;
#X obj 125 149 catch~ \$0-output-left-4;
#X obj 481 166 catch~ \$0-output-right-4;
#X obj 124 295 *~ 1;
#X obj 480 312 *~ 1;
#X connect 3 0 5 0;
#X connect 4 0 6 0;
#X connect 5 0 2 0;
#X connect 6 0 1 0;
#X restore 399 364 pd voice-\$0-4;
#N canvas 0 0 1842 944 voice-\$0-5 0;
#X obj 247 231 line~;
#X obj 124 295 *~;
#X msg 247 207 0 200;
#X obj 362 231 line~;
#X msg 362 206 1 5;
#X obj 463 138 switch~;
#X msg 463 104 0;
#X msg 552 105 1;
#N canvas 370 140 450 300 voice-clone-\$0-5 0;
#X restore 124 96 pd voice-clone-\$0-5;
#X obj 463 69 r \$0-stop-5;
#X obj 552 71 r \$0-start-5;
#X obj 247 183 r \$0-rampdown-5;
#X obj 362 183 r \$0-rampup-5;
#X obj 585 247 line~;
#X obj 462 311 *~;
#X msg 585 223 0 200;
#X obj 700 247 line~;
#X msg 700 222 1 5;
#X obj 585 199 r \$0-rampdown-5;
#X obj 700 199 r \$0-rampup-5;
#X obj 125 149 catch~ \$0-output-left;
#X obj 124 319 throw~ \$0-voice-out-left;
#X obj 463 165 catch~ \$0-output-right;
#X obj 462 335 throw~ \$0-voice-out-right;
#X connect 0 0 1 1;
#X connect 1 0 21 0;
#X connect 2 0 0 0;
#X connect 3 0 1 1;
#X connect 4 0 3 0;
#X connect 6 0 5 0;
#X connect 7 0 5 0;
#X connect 9 0 6 0;
#X connect 10 0 7 0;
#X connect 11 0 2 0;
#X connect 12 0 4 0;
#X connect 13 0 14 1;
#X connect 14 0 23 0;
#X connect 15 0 13 0;
#X connect 16 0 14 1;
#X connect 17 0 16 0;
#X connect 18 0 15 0;
#X connect 19 0 17 0;
#X connect 20 0 1 0;
#X connect 22 0 14 0;
#X restore 93 393 pd voice-\$0-5;
#N canvas 0 0 1842 944 voice-\$0-6 0;
#X obj 247 231 line~;
#X obj 124 295 *~;
#X msg 247 207 0 200;
#X obj 362 231 line~;
#X msg 362 206 1 5;
#X obj 463 138 switch~;
#X msg 463 104 0;
#X msg 552 105 1;
#N canvas 370 140 450 300 voice-clone-\$0-6 0;
#X restore 124 96 pd voice-clone-\$0-6;
#X obj 247 182 r \$0-rampdown-6;
#X obj 362 183 r \$0-rampup-6;
#X obj 463 69 r \$0-stop-6;
#X obj 553 71 r \$0-start-6;
#X obj 596 251 line~;
#X obj 473 315 *~;
#X msg 596 227 0 200;
#X obj 711 251 line~;
#X msg 711 226 1 5;
#X obj 596 202 r \$0-rampdown-6;
#X obj 711 203 r \$0-rampup-6;
#X obj 474 169 catch~ \$0-output-right;
#X obj 473 339 throw~ \$0-voice-out-right;
#X obj 125 149 catch~ \$0-output-left;
#X obj 124 319 throw~ \$0-voice-out-left;
#X connect 0 0 1 1;
#X connect 1 0 23 0;
#X connect 2 0 0 0;
#X connect 3 0 1 1;
#X connect 4 0 3 0;
#X connect 6 0 5 0;
#X connect 7 0 5 0;
#X connect 9 0 2 0;
#X connect 10 0 4 0;
#X connect 11 0 6 0;
#X connect 12 0 7 0;
#X connect 13 0 14 1;
#X connect 14 0 21 0;
#X connect 15 0 13 0;
#X connect 16 0 14 1;
#X connect 17 0 16 0;
#X connect 18 0 15 0;
#X connect 19 0 17 0;
#X connect 20 0 14 0;
#X connect 22 0 1 0;
#X restore 195 393 pd voice-\$0-6;
#N canvas 0 0 1842 944 voice-\$0-7 0;
#X obj 247 231 line~;
#X obj 124 295 *~;
#X msg 247 207 0 200;
#X obj 362 231 line~;
#X msg 362 206 1 5;
#X obj 463 138 switch~;
#X msg 463 104 0;
#X msg 552 105 1;
#N canvas 370 140 450 300 voice-clone-\$0-7 0;
#X restore 124 96 pd voice-clone-\$0-7;
#X obj 463 69 r \$0-stop-7;
#X obj 552 71 r \$0-start-7;
#X obj 247 183 r \$0-rampdown-7;
#X obj 362 183 r \$0-rampup-7;
#X obj 585 251 line~;
#X obj 462 315 *~;
#X msg 585 227 0 200;
#X obj 700 251 line~;
#X msg 700 226 1 5;
#X obj 585 203 r \$0-rampdown-7;
#X obj 700 203 r \$0-rampup-7;
#X obj 463 169 catch~ \$0-output-right;
#X obj 462 339 throw~ \$0-voice-out-right;
#X obj 125 149 catch~ \$0-output-left;
#X obj 124 319 throw~ \$0-voice-out-left;
#X connect 0 0 1 1;
#X connect 1 0 23 0;
#X connect 2 0 0 0;
#X connect 3 0 1 1;
#X connect 4 0 3 0;
#X connect 6 0 5 0;
#X connect 7 0 5 0;
#X connect 9 0 6 0;
#X connect 10 0 7 0;
#X connect 11 0 2 0;
#X connect 12 0 4 0;
#X connect 13 0 14 1;
#X connect 14 0 21 0;
#X connect 15 0 13 0;
#X connect 16 0 14 1;
#X connect 17 0 16 0;
#X connect 18 0 15 0;
#X connect 19 0 17 0;
#X connect 20 0 14 0;
#X connect 22 0 1 0;
#X restore 297 393 pd voice-\$0-7;
#N canvas 0 0 1842 944 voice-\$0-8 0;
#X obj 247 231 line~;
#X obj 124 295 *~;
#X msg 247 207 0 200;
#X obj 362 231 line~;
#X msg 362 206 1 5;
#X obj 463 138 switch~;
#X msg 463 104 0;
#X msg 552 105 1;
#N canvas 370 140 450 300 voice-clone-\$0-8 0;
#X restore 124 96 pd voice-clone-\$0-8;
#X obj 463 69 r \$0-stop-8;
#X obj 552 71 r \$0-start-8;
#X obj 247 183 r \$0-rampdown-8;
#X obj 362 183 r \$0-rampup-8;
#X obj 590 254 line~;
#X obj 467 318 *~;
#X msg 590 230 0 200;
#X obj 705 254 line~;
#X msg 705 229 1 5;
#X obj 590 206 r \$0-rampdown-8;
#X obj 705 206 r \$0-rampup-8;
#X obj 468 172 catch~ \$0-output-right;
#X obj 467 342 throw~ \$0-voice-out-right;
#X obj 125 149 catch~ \$0-output-left;
#X obj 124 319 throw~ \$0-voice-out-left;
#X connect 0 0 1 1;
#X connect 1 0 23 0;
#X connect 2 0 0 0;
#X connect 3 0 1 1;
#X connect 4 0 3 0;
#X connect 6 0 5 0;
#X connect 7 0 5 0;
#X connect 9 0 6 0;
#X connect 10 0 7 0;
#X connect 11 0 2 0;
#X connect 12 0 4 0;
#X connect 13 0 14 1;
#X connect 14 0 21 0;
#X connect 15 0 13 0;
#X connect 16 0 14 1;
#X connect 17 0 16 0;
#X connect 18 0 15 0;
#X connect 19 0 17 0;
#X connect 20 0 14 0;
#X connect 22 0 1 0;
#X restore 401 394 pd voice-\$0-8;
#X obj 2162 487 s \$0-bank-load;
#X msg 1727 611 1 2 3 4 5 6 7 8;
#X obj 1695 569 bng 15 250 50 0 empty empty empty 17 7 0 10 -262144
-1 -1;
#X obj 1727 635 list-drip;
#X obj 1727 659 t b f, f 9;
#X obj 1727 712 s, f 9;
#X msg 1727 684 clear;
#X obj 527 280 s, f 19;
#X obj 527 72 route voice-change;
#X obj 675 156 makefilename pd-voice-clone-\$0-%d;
#X obj 608 190 makefilename \$0-to-clone-%d;
#X obj 527 100 unpack s f, f 12;
#X floatatom 721 121 5 0 0 0 - - -;
#X obj 1787 686 makefilename pd-voice-clone-\$0-%d;
#X obj 1695 589 t b b;
#X msg 1695 736 GM: No voice loaded;
#X obj 1695 760 print;
#X msg 685 61 guitarr 1;
#X text 96 210 |<------Midi-send-signals----------------------------->|
;
#N canvas 1 1 1900 968 voice-\$0-2 0;
#N canvas 309 245 450 300 voice-clone-\$0-2 0;
#X restore 126 84 pd voice-clone-\$0-2;
#X obj 124 318 throw~ \$0-voice-out-left;
#X obj 463 331 throw~ \$0-voice-out-right;
#X obj 125 149 catch~ \$0-output-left-2;
#X obj 464 161 catch~ \$0-output-right-2;
#X obj 124 295 *~ 1;
#X obj 463 307 *~ 1;
#X connect 3 0 5 0;
#X connect 4 0 6 0;
#X connect 5 0 1 0;
#X connect 6 0 2 0;
#X restore 197 366 pd voice-\$0-2;
#X obj 608 124 t f f f, f 10;
#X obj 527 216 pack s f s, f 12;
#X obj 989 413 s \$0-cur-voice;
#X obj 1695 545 bang;
#X msg 989 388 1;
#X obj 989 339 loadbang;
#X obj 989 363 t b b, f 9;
#X obj 884 442 bng 15 250 50 0 empty empty empty 17 7 0 10 -262144
-1 -1;
#X text 529 343 These subpatch contains switching and ramping stuff
in it \, and clone object is in another subpatch. Input from clone
is through inlet \, however output-audio is through throw~/catch~,
f 36;
#X text 1095 -3 NOTE: \$1 \, \$2 \, \$3 are reserved in voice. \$1
is clone voice instance number \, \$2 is assigned the value of \$0
of the channel in which voice is present \, and \$3 is the assigned
voice-slot number(as specified in the bank file).;
#X text 849 183 Dynamic patching to send message to make clone of the
voice with appropiate creation argument. TO_DO: customisable polyphony
, f 49;
#X text 518 305 |------Voice loading using dynamic patching-------|
;
#X floatatom 885 496 5 0 0 0 - - -;
#X obj 885 472 v \$0-cur-voice;
#X msg 527 241 clear \, obj 100 50 r \$3 \, obj 100 150 clone -s 1
16 \$1 \\\$0 \$2 \, connect 0 0 1 0 \, loadbang;
#N canvas 21 38 962 881 note-parser-deprecated 0;
#X obj 55 91 unpack f f;
#X obj 55 277 pack f f f, f 16;
#X obj 55 38 r \$0-notein;
#X obj 26 333 print note2voice;
#X obj 55 305 s \$0-note-2-route;
#X text 434 37 assigning voice number to note for polyphony and use
by clone.;
#X obj 122 119 t f f, f 9;
#X obj 184 252 spigot;
#X obj 260 251 spigot;
#X obj 55 201 t f f f;
#X obj 182 143 > 0;
#X obj 182 191 + 1;
#X obj 182 215 mod 2;
#X obj 182 167 t f f;
#N canvas 0 0 1522 772 switch-on-voice-signal 0;
#X obj 37 37 inlet;
#X obj 114 90 f \$0;
#X obj 153 89 v \$0-cur-voice;
#X obj 76 121 pack f f 1, f 12;
#X obj 37 61 t b f b b, f 17;
#X obj 40 210 s, f 6;
#X text 290 149 \$0-switch-on-(cur_voice_number)-(clone_instance_number)
;
#X msg 76 146 symbol \$2-switch-on-\$3-\$1;
#X connect 0 0 4 0;
#X connect 1 0 3 1;
#X connect 2 0 3 2;
#X connect 3 0 7 0;
#X connect 4 0 5 0;
#X connect 4 1 3 0;
#X connect 4 2 1 0;
#X connect 4 3 2 0;
#X connect 7 0 5 1;
#X restore 260 275 pd switch-on-voice-signal;
#N canvas 0 0 1920 988 switch-off-voice-signal 0;
#X obj 37 37 inlet;
#X obj 114 90 f \$0;
#X obj 153 89 v \$0-cur-voice;
#X obj 76 121 pack f f 1, f 12;
#X obj 37 61 t b f b b, f 17;
#X obj 37 172 s, f 6;
#X text 279 146 \$0-switch-off-(cur_voice_number)-(clone_instance_number)
;
#X msg 76 146 symbol \$2-switch-off-\$3-\$1;
#X connect 0 0 4 0;
#X connect 1 0 3 1;
#X connect 2 0 3 2;
#X connect 3 0 7 0;
#X connect 4 0 5 0;
#X connect 4 1 3 0;
#X connect 4 2 1 0;
#X connect 4 3 2 0;
#X connect 7 0 5 1;
#X restore 184 298 pd switch-off-voice-signal;
#X obj 33 371 print polyyyyyyy;
#X obj 55 177 poly 16, f 16;
#X text 422 103 Traditional note-parsing and switching \, Isssues with
with prec. instruments \, ignored;
#X text 197 14 DEPRECATED;
#X connect 0 0 17 0;
#X connect 0 1 6 0;
#X connect 1 0 3 0;
#X connect 1 0 4 0;
#X connect 6 0 17 1;
#X connect 6 1 10 0;
#X connect 7 0 15 0;
#X connect 8 0 14 0;
#X connect 9 0 1 0;
#X connect 9 0 16 0;
#X connect 9 1 7 0;
#X connect 9 2 8 0;
#X connect 10 0 13 0;
#X connect 11 0 12 0;
#X connect 12 0 7 1;
#X connect 13 0 11 0;
#X connect 13 1 8 1;
#X connect 17 0 9 0;
#X connect 17 1 1 1;
#X connect 17 2 1 2;
#X restore 9 239 pd note-parser-deprecated;
#N canvas -9 -9 1920 988 note-parser 0;
#X obj 55 38 r \$0-notein;
#X obj 55 191 s \$0-note-2-route;
#X obj 55 71 poly 16, f 16;
#X obj 55 110 pack f f f, f 16;
#X obj 66 164 gm-sostenuto;
#X obj 136 134 r \$0-control;
#X connect 0 0 2 0;
#X connect 2 0 3 0;
#X connect 2 1 3 1;
#X connect 2 2 3 2;
#X connect 3 0 4 0;
#X connect 3 0 1 0;
#X connect 5 0 4 1;
#X restore 93 275 pd note-parser;
#N canvas -9 -9 1920 988 routing 0;
#X obj 57 170 r \$0-note-2-route;
#X obj 57 335 s;
#X obj 607 321 s;
#X obj 607 180 r \$0-control-2-route;
#X obj 881 174 r \$0-bank-load;
#X obj 976 227 t b f, f 9;
#X obj 976 280 s, f 9;
#X obj 881 202 t f f, f 14;
#X obj 881 281 t b f, f 9;
#X obj 881 334 s, f 9;
#X obj 43 12 r \$0-prgm;
#X obj 116 259 r \$0-route-change;
#X obj 672 247 r \$0-route-change;
#X obj 23 372 print GM: en-route;
#X obj 96 338 print GM: note send-name;
#X obj 75 303 makefilename \$0-to-clone-%d;
#X obj 625 294 makefilename \$0-control-%d;
#X msg 73 260 1;
#X msg 625 247 1;
#X obj 103 63 v \$0-cur-voice;
#X obj 73 237 loadbang;
#X obj 625 223 loadbang;
#X obj 941 306 makefilename \$0-voice-change-%d;
#X obj 1036 252 makefilename \$0-voice-clear-%d;
#X obj 43 36 t f f, f 9;
#X obj 43 87 s \$0-route-change;
#X text 224 7 Automatic ramping now \, voice change no longer requires
manual ramping and switching.;
#X text 1073 168 TBD: voice change without bank file;
#X text 256 237 Send note message to current-voice (default 1). Current
voice is changed as soon as program change message is received., f
42;
#X connect 0 0 13 0;
#X connect 0 0 1 0;
#X connect 3 0 2 0;
#X connect 4 0 7 0;
#X connect 5 0 6 0;
#X connect 5 1 23 0;
#X connect 7 0 8 0;
#X connect 7 1 5 0;
#X connect 8 0 9 0;
#X connect 8 1 22 0;
#X connect 10 0 24 0;
#X connect 11 0 15 0;
#X connect 12 0 16 0;
#X connect 15 0 1 1;
#X connect 15 0 14 0;
#X connect 16 0 2 1;
#X connect 17 0 15 0;
#X connect 18 0 16 0;
#X connect 20 0 17 0;
#X connect 21 0 18 0;
#X connect 22 0 9 1;
#X connect 23 0 6 1;
#X connect 24 0 25 0;
#X connect 24 1 19 0;
#X restore 94 327 pd routing;
#N canvas -8 0 1920 988 routing-deprecated 0;
#X obj 79 648 r \$0-note-2-route;
#X obj 79 813 s;
#X obj 714 811 s;
#X obj 714 670 r \$0-control-2-route;
#X obj 1155 669 r \$0-bank-load;
#X obj 1250 721 t b f, f 9;
#X obj 1250 774 s, f 9;
#X obj 1155 697 t f f, f 14;
#X obj 1155 776 t b f, f 9;
#X obj 1155 829 s, f 9;
#X obj 46 233 r \$0-prgm;
#X obj 167 419 s \$0-route-change;
#X obj 138 737 r \$0-route-change;
#X obj 779 737 r \$0-route-change;
#X obj 147 446 s \$0-switch-prev-off;
#X obj 107 395 t f f b f;
#X obj 1268 318 v \$0-cur-voice;
#X obj 1287 270 r \$0-switch-prev-off;
#X obj 1287 295 bng 15 250 50 0 empty empty empty 17 7 0 10 -262144
-1 -1;
#X obj 1268 342 t b b f f, f 12;
#X obj 1268 381 s;
#X obj 1295 415 s, f 4;
#X obj 127 468 s \$0-update-cur;
#X obj 1268 244 r \$0-update-cur;
#X obj 107 493 s \$0-switch-cur-on;
#X obj 650 299 t b b f f, f 12;
#X obj 650 338 s;
#X obj 677 371 s, f 4;
#X obj 45 850 print GM: en-route;
#X obj 118 816 print GM: note send-name;
#X obj 97 781 makefilename \$0-to-clone-%d;
#X obj 732 784 makefilename \$0-control-%d;
#X msg 98 738 1;
#X msg 732 737 1;
#X obj 109 308 v \$0-cur-voice;
#X obj 47 367 sel, f 9;
#X obj 47 391 f;
#X obj 97 714 loadbang;
#X obj 732 713 loadbang;
#X obj 704 347 makefilename \$0-start-%d;
#X obj 731 321 makefilename \$0-rampup-%d;
#X obj 1348 367 makefilename \$0-stop-%d;
#X obj 1322 390 makefilename \$0-rampdown-%d;
#X obj 1215 800 makefilename \$0-voice-change-%d;
#X obj 1310 746 makefilename \$0-voice-clear-%d;
#X obj 47 519 s \$0-switch-cur-on;
#X obj 650 270 r \$0-switch-cur-on;
#X obj 79 672 t a b;
#X obj 111 693 s \$0-local-switch;
#X text 254 271 Recieves program change message as input \, ramp down
and switches of previous voice and switches on new voice and ramp ups.
also if new voice == previous voice(to handle the default voice conflct)
\, just re-switch on and ramp up., f 46;
#X text 930 259 Switches on the dsp for cur-voice number and ramp ups
to reduce clicks., f 30;
#X text 1527 260 ramp down and Switches off the dsp for previous voice
to reduce clicks. Also update the current voice to current voice variable(\$0-cur-voice)
, f 37;
#X text 286 711 Send note message to cur-voice;
#X obj 49 281 t f f, f 9;
#X obj 49 332 s \$0-route-change;
#X text 244 63 DEPRECATED;
#X connect 0 0 28 0;
#X connect 0 0 47 0;
#X connect 3 0 2 0;
#X connect 4 0 7 0;
#X connect 5 0 6 0;
#X connect 5 1 44 0;
#X connect 7 0 8 0;
#X connect 7 1 5 0;
#X connect 8 0 9 0;
#X connect 8 1 43 0;
#X connect 12 0 30 0;
#X connect 13 0 31 0;
#X connect 15 0 24 0;
#X connect 15 1 22 0;
#X connect 15 2 14 0;
#X connect 15 3 11 0;
#X connect 16 0 19 0;
#X connect 17 0 18 0;
#X connect 18 0 16 0;
#X connect 19 0 20 0;
#X connect 19 1 21 0;
#X connect 19 2 42 0;
#X connect 19 3 41 0;
#X connect 23 0 16 0;
#X connect 25 0 26 0;
#X connect 25 1 27 0;
#X connect 25 2 39 0;
#X connect 25 3 40 0;
#X connect 30 0 1 1;
#X connect 30 0 29 0;
#X connect 31 0 2 1;
#X connect 32 0 30 0;
#X connect 33 0 31 0;
#X connect 35 0 36 0;
#X connect 35 1 15 0;
#X connect 36 0 45 0;
#X connect 37 0 32 0;
#X connect 38 0 33 0;
#X connect 39 0 27 1;
#X connect 40 0 26 1;
#X connect 41 0 20 1;
#X connect 42 0 21 1;
#X connect 43 0 9 1;
#X connect 44 0 6 1;
#X connect 46 0 25 0;
#X connect 47 0 1 0;
#X connect 47 1 48 0;
#X connect 53 0 54 0;
#X connect 53 1 34 0;
#X restore 10 300 pd routing-deprecated;
#N canvas -9 -9 1920 988 clear-subpatch 0;
#X obj 39 200 gm-array-looper;
#X msg 39 174 1 9;
#X obj 98 251 makefilename pd-voice-clone-\$0-%d;
#X obj 39 224 t b f, f 9;
#X msg 39 248 clear;
#X obj 39 272 s;
#X obj 63 140 r clear-unstable;
#X obj 32 106 inlet;
#X connect 0 0 3 0;
#X connect 1 0 0 0;
#X connect 2 0 5 1;
#X connect 3 0 4 0;
#X connect 3 1 2 0;
#X connect 4 0 5 0;
#X connect 6 0 1 0;
#X connect 7 0 1 0;
#X restore 1324 159 pd clear-subpatch;
#X msg 1324 134 bang;
#X obj 1324 110 inlet;
#X obj 428 534 print pitch-bend;
#X obj 428 510 r \$0-pitch-bend;
#X connect 0 0 6 0;
#X connect 0 0 25 0;
#X connect 1 0 2 0;
#X connect 2 0 3 0;
#X connect 6 0 12 0;
#X connect 6 0 13 0;
#X connect 6 1 11 0;
#X connect 6 2 10 0;
#X connect 6 3 9 0;
#X connect 6 4 7 0;
#X connect 6 5 8 0;
#X connect 6 6 59 0;
#X connect 16 0 14 0;
#X connect 16 1 15 0;
#X connect 17 0 23 0;
#X connect 17 1 22 0;
#X connect 18 0 20 0;
#X connect 20 0 19 0;
#X connect 21 0 17 0;
#X connect 22 0 30 0;
#X connect 24 0 26 0;
#X connect 24 0 29 0;
#X connect 24 0 51 0;
#X connect 27 0 35 0;
#X connect 27 1 43 0;
#X connect 27 2 28 0;
#X connect 28 0 31 0;
#X connect 29 0 27 0;
#X connect 34 0 33 0;
#X connect 35 0 36 0;
#X connect 35 1 34 0;
#X connect 36 0 42 0;
#X connect 36 1 37 0;
#X connect 42 0 38 0;
#X connect 43 0 32 0;
#X connect 52 0 54 0;
#X connect 53 0 65 0;
#X connect 54 0 55 0;
#X connect 55 0 57 0;
#X connect 55 1 64 0;
#X connect 57 0 56 0;
#X connect 59 0 62 0;
#X connect 60 0 58 1;
#X connect 61 0 72 2;
#X connect 62 0 72 0;
#X connect 62 1 71 0;
#X connect 64 0 56 1;
#X connect 65 0 66 0;
#X connect 65 1 52 0;
#X connect 66 0 67 0;
#X connect 68 0 62 0;
#X connect 71 0 72 1;
#X connect 71 1 63 0;
#X connect 71 1 61 0;
#X connect 71 2 60 0;
#X connect 72 0 85 0;
#X connect 74 0 53 0;
#X connect 75 0 73 0;
#X connect 76 0 77 0;
#X connect 77 0 75 0;
#X connect 78 0 84 0;
#X connect 84 0 83 0;
#X connect 85 0 58 0;
#X connect 91 0 90 0;
#X connect 92 0 91 0;
#X connect 94 0 93 0;
