#N canvas -9 -9 1920 988 12;
#X obj 216 204 inlet~;
#X obj 218 373 outlet~;
#X obj 292 247 line~;
#X msg 292 203 0 \, 0.78 5;
#X obj 292 271 *~;
#X obj 217 320 *~;
#X obj 370 231 inlet~;
#X obj 370 380 outlet~;
#X obj 447 252 line~;
#X msg 445 198 0 \, 0.78 5;
#X obj 447 276 *~;
#X obj 370 332 *~;
#X obj 483 107 * 0.0078745;
#X obj 483 83 spigot;
#X obj 483 12 t f f;
#X obj 515 39 == 7;
#X msg 368 200 \$1 1000;
#X msg 521 198 \$1 1000;
#X obj 483 139 t f f, f 9;
#X obj 291 160 loadbang;
#X obj 483 -13 inlet;
#X connect 0 0 5 0;
#X connect 2 0 4 0;
#X connect 2 0 4 1;
#X connect 3 0 2 0;
#X connect 4 0 5 1;
#X connect 5 0 1 0;
#X connect 6 0 11 0;
#X connect 8 0 10 0;
#X connect 8 0 10 1;
#X connect 9 0 8 0;
#X connect 10 0 11 1;
#X connect 11 0 7 0;
#X connect 12 0 18 0;
#X connect 13 0 12 0;
#X connect 14 0 13 0;
#X connect 14 1 15 0;
#X connect 15 0 13 1;
#X connect 16 0 2 0;
#X connect 17 0 8 0;
#X connect 18 0 16 0;
#X connect 18 1 17 0;
#X connect 19 0 3 0;
#X connect 19 0 9 0;
#X connect 20 0 14 0;
