#N canvas -9 -9 1920 988 12;
#X obj 101 18 inlet;
#X obj 1364 317 bng 15 250 50 0 empty empty empty 17 7 0 10 -262144
-1 -1;
#X obj 1364 337 f \$1;
#X floatatom 1364 361 5 0 0 0 - - -;
#X text 1347 279 |TESTING SECTION|;
#X text 1361 294 LOG: Clone instance number;
#X obj 101 47 route note polytouch control prgm aftouch pitch-bend
;
#X obj 341 96 s \$0-aftouch;
#X obj 402 74 s \$0-pitch-bend;
#X obj 281 118 s \$0-prgm;
#X obj 221 139 s \$0-control;
#X obj 161 161 s \$0-polytouch;
#X obj 101 184 s \$0-notein;
#X obj 24 101 print note;
#X obj 93 542 outlet~;
#X obj 188 541 outlet~;
#N canvas -9 -9 1920 988 note-parser 0;
#X obj 55 70 unpack f f;
#X obj 55 132 pack f f f;
#X obj 55 38 r \$0-notein;
#X obj 26 188 print note2voice;
#X obj 55 103 poly 10 1, f 10;
#X obj 55 160 s \$0-note-2-route;
#X connect 0 0 4 0;
#X connect 0 1 4 1;
#X connect 1 0 3 0;
#X connect 1 0 5 0;
#X connect 2 0 0 0;
#X connect 4 0 1 0;
#X connect 4 1 1 1;
#X connect 4 2 1 2;
#X restore 93 276 pd note-parser;
#N canvas 0 0 1920 988 channel-mod 0;
#X obj 17 133 outlet~;
#X obj 218 127 outlet~;
#X obj 19 18 catch~ \$0-voice-out-left;
#X obj 214 19 catch~ \$0-voice-out-right;
#N canvas 0 0 1920 988 pan 0;
#X obj 201 123 * 0.0078745;
#X obj 201 99 spigot;
#X obj 201 145 sig~;
#X obj 201 167 lop~ 2;
#X obj 186 322 *~;
#X obj 21 318 *~;
#X obj 21 345 outlet~ left;
#X obj 186 346 outlet~ right;
#X obj 37 292 cos~;
#X obj 37 268 -~ 0.25;
#X obj 201 233 cos~;
#X obj 201 211 -~ 0.25;
#X obj 201 189 *~ 0.25;
#X obj 264 84 tgl 15 0 empty empty empty 17 7 0 10 -262144 -1 -1 0
1;
#X obj 38 14 bang;
#X obj 38 36 t b b, f 8;
#X obj 90 58 s \$0-pan-active;
#X obj 279 55 r \$0-pan-active;
#X obj 201 6 r \$0-control;
#X obj 201 28 t f f;
#X obj 21 138 inlet~;
#X obj 130 138 inlet~;
#X obj 229 53 == 41;
#X msg 38 78 64;
#X text 460 111 Left and right inlet take audio signal for left and
right channel as input and output is the panned audio signal in the
outlets.;
#X connect 0 0 2 0;
#X connect 1 0 0 0;
#X connect 2 0 3 0;
#X connect 3 0 12 0;
#X connect 4 0 7 0;
#X connect 5 0 6 0;
#X connect 8 0 5 1;
#X connect 9 0 8 0;
#X connect 10 0 4 1;
#X connect 11 0 10 0;
#X connect 11 0 9 0;
#X connect 12 0 11 0;
#X connect 13 0 1 1;
#X connect 14 0 15 0;
#X connect 15 0 23 0;
#X connect 15 1 16 0;
#X connect 17 0 13 0;
#X connect 18 0 19 0;
#X connect 19 0 1 0;
#X connect 19 1 22 0;
#X connect 20 0 5 0;
#X connect 21 0 4 0;
#X connect 22 0 13 0;
#X connect 23 0 1 0;
#X restore 18 65 pd pan;
#X connect 2 0 4 0;
#X connect 3 0 4 1;
#X connect 4 0 0 0;
#X connect 4 1 1 0;
#X restore 93 502 pd channel-mod;
#X obj 1367 425 t b b, f 19;
#X obj 1434 318 bng 15 250 50 0 empty empty empty 17 7 0 10 -262144
-1 -1;
#X floatatom 1434 362 5 0 0 0 - - -;
#X obj 1434 338 f \$0;
#X obj 1367 397 bang;
#X msg 1497 452 clear \, obj 100 50 r \\\$0-note-2-voice \, obj 100
150 clone -s 1 pacman 10 \, obj 100 200 throw~ \\\$0-voice-out-left
\, obj 300 200 throw~ \\\$0-voice-out-right \, connect 0 0 1 0 \, connect
1 0 2 0 \, connect 1 0 3 0;
#X obj 1367 452 print load-sucess;
#X obj 1581 30 route voice-change;
#X obj 532 37 print in-channel;
#X obj 1753 60 print in-filter;
#X obj 1580 96 t b s b;
#X msg 1626 118 clear \, obj 100 50 r \\\$0-note-2-voice;
#X obj 1580 64 list;
#X obj 1491 526 s pd-channel-subpatch-\$0;
#X obj 1626 144 s pd-channel-subpatch-\$0;
#X obj 1603 203 s pd-channel-subpatch-\$0;
#X obj 1719 294 s pd-channel-subpatch-\$0;
#X msg 1718 258 connect 0 0 1 0;
#X obj 1580 231 t b b, f 20;
#X obj 1580 255 t b b, f 8;
#X msg 1633 278 \; pd dsp 0;
#X msg 1580 315 \; pd dsp 1;
#X text 1576 359 |------Program change using dynamic patching-------|
;
#X text 1910 116 Clears the subpatch and create note recieve object.
;
#X text 1910 179 Creates clone object \, sends bang to voices;
#X text 1844 254 Connect and quick toggles DSP(fix to get it working)
;
#X text 954 35 NOTE: \$1 \, \$2 are reserved in voice. \$1 is clone
voice instance number \, \$2 is assigned the value of \$0 of the channel
in which voice is present (Do not modify these values);
#X obj 1580 279 del 1;
#X msg 1603 174 obj 100 150 clone -s 1 32 \$1 \\\$0 \, bang;
#N canvas -9 -9 1920 988 voice-\$0-1 0;
#N canvas 370 140 450 300 voice-clone-\$0-1 0;
#X obj 100 50 r 1152-to-clone-1;
#X obj 100 150 clone -s 1 32 guitar \$0;
#X connect 0 0 1 0;
#X restore 124 96 pd voice-clone-\$0-1;
#X obj 247 231 line~;
#X obj 124 295 *~;
#X msg 247 207 0 200;
#X obj 362 231 line~;
#X msg 362 206 1 5;
#X obj 550 117 switch~;
#X obj 550 48 r \$0-stop-1;
#X obj 247 183 r \$0-rampdown-1;
#X obj 362 183 r \$0-rampup-1;
#X msg 550 83 0;
#X msg 639 84 1;
#X obj 639 50 r \$0-start-1;
#X obj 124 319 throw~ \$0-voice-out-left;
#X obj 125 149 catch~ \$0-output-left;
#X obj 588 229 line~;
#X obj 465 293 *~;
#X msg 588 205 0 200;
#X obj 703 229 line~;
#X msg 703 204 1 5;
#X obj 588 181 r \$0-rampdown-1;
#X obj 703 181 r \$0-rampup-1;
#X obj 466 147 catch~ \$0-output-right;
#X obj 465 317 throw~ \$0-voice-out-right;
#X connect 1 0 2 1;
#X connect 2 0 13 0;
#X connect 3 0 1 0;
#X connect 4 0 2 1;
#X connect 5 0 4 0;
#X connect 7 0 10 0;
#X connect 8 0 3 0;
#X connect 9 0 5 0;
#X connect 10 0 6 0;
#X connect 11 0 6 0;
#X connect 12 0 11 0;
#X connect 14 0 2 0;
#X connect 15 0 16 1;
#X connect 16 0 23 0;
#X connect 17 0 15 0;
#X connect 18 0 16 1;
#X connect 19 0 18 0;
#X connect 20 0 17 0;
#X connect 21 0 19 0;
#X connect 22 0 16 0;
#X restore 93 365 pd voice-\$0-1;
#N canvas -9 -9 1920 988 voice-\$0-2 1;
#X obj 247 231 line~;
#X obj 124 295 *~;
#X msg 247 207 0 200;
#X obj 363 230 line~;
#X msg 363 206 1 5;
#N canvas 1 682 450 300 voice-clone-\$0-2 1;
#X obj 100 50 r 1152-to-clone-2;
#X obj 100 150 clone -s 1 32 bell \$0;
#X connect 0 0 1 0;
#X restore 125 83 pd voice-clone-\$0-2;
#X obj 463 138 switch~;
#X msg 463 104 0;
#X msg 552 105 1;
#X obj 463 69 r \$0-stop-2;
#X obj 552 69 r \$0-start-2;
#X obj 247 183 r \$0-rampdown-2;
#X obj 363 182 r \$0-rampup-2;
#X obj 586 243 line~;
#X obj 463 307 *~;
#X msg 586 219 0 200;
#X obj 702 242 line~;
#X msg 702 218 1 5;
#X obj 586 195 r \$0-rampdown-2;
#X obj 702 194 r \$0-rampup-2;
#X obj 124 318 throw~ \$0-voice-out-left;
#X obj 463 331 throw~ \$0-voice-out-right;
#X obj 125 149 catch~ \$0-output-left;
#X obj 464 161 catch~ \$0-output-right;
#X obj 407 342 dac~;
#X connect 0 0 1 1;
#X connect 1 0 20 0;
#X connect 2 0 0 0;
#X connect 3 0 1 1;
#X connect 4 0 3 0;
#X connect 7 0 6 0;
#X connect 8 0 6 0;
#X connect 9 0 7 0;
#X connect 10 0 8 0;
#X connect 11 0 2 0;
#X connect 12 0 4 0;
#X connect 13 0 14 1;
#X connect 14 0 21 0;
#X connect 15 0 13 0;
#X connect 16 0 14 1;
#X connect 17 0 16 0;
#X connect 18 0 15 0;
#X connect 19 0 17 0;
#X connect 22 0 1 0;
#X connect 23 0 14 0;
#X connect 23 0 24 1;
#X restore 195 365 pd voice-\$0-2;
#N canvas 0 0 1842 944 voice-\$0-3 0;
#X obj 247 231 line~;
#X obj 124 295 *~;
#X msg 247 207 0 200;
#X obj 364 230 line~;
#X msg 364 206 1 5;
#N canvas 0 50 450 300 voice-clone-\$0-3 0;
#X restore 125 83 pd voice-clone-\$0-3;
#X obj 463 138 switch~;
#X msg 463 104 0;
#X msg 552 105 1;
#X obj 463 69 r \$0-stop-3;
#X obj 552 71 r \$0-start-3;
#X obj 247 183 r \$0-rampdown-3;
#X obj 364 182 r \$0-rampup-3;
#X obj 585 244 line~;
#X obj 462 308 *~;
#X msg 585 220 0 200;
#X obj 702 243 line~;
#X msg 702 219 1 5;
#X obj 585 196 r \$0-rampdown-3;
#X obj 702 195 r \$0-rampup-3;
#X obj 125 149 catch~ \$0-output-left;
#X obj 124 319 throw~ \$0-voice-out-left;
#X obj 463 162 catch~ \$0-output-right;
#X obj 462 332 throw~ \$0-voice-out-right;
#X connect 0 0 1 1;
#X connect 1 0 21 0;
#X connect 2 0 0 0;
#X connect 3 0 1 1;
#X connect 4 0 3 0;
#X connect 7 0 6 0;
#X connect 8 0 6 0;
#X connect 9 0 7 0;
#X connect 10 0 8 0;
#X connect 11 0 2 0;
#X connect 12 0 4 0;
#X connect 13 0 14 1;
#X connect 14 0 23 0;
#X connect 15 0 13 0;
#X connect 16 0 14 1;
#X connect 17 0 16 0;
#X connect 18 0 15 0;
#X connect 19 0 17 0;
#X connect 20 0 1 0;
#X connect 22 0 14 0;
#X restore 297 365 pd voice-\$0-3;
#N canvas -9 -9 1920 988 voice-\$0-4 0;
#X obj 247 231 line~;
#X obj 124 295 *~;
#X msg 247 207 0 200;
#X obj 379 229 line~;
#X msg 379 205 1 5;
#N canvas 0 50 450 300 voice-clone-\$0-4 0;
#X restore 125 83 pd voice-clone-\$0-4;
#X obj 463 138 switch~;
#X msg 463 104 0;
#X msg 552 105 1;
#X obj 247 183 r \$0-rampdown-4;
#X obj 379 181 r \$0-rampup-4;
#X obj 463 69 r \$0-stop-4;
#X obj 552 71 r \$0-start-4;
#X obj 603 248 line~;
#X obj 480 312 *~;
#X msg 603 224 0 200;
#X obj 735 246 line~;
#X msg 735 222 1 5;
#X obj 603 200 r \$0-rampdown-4;
#X obj 735 198 r \$0-rampup-4;
#X obj 481 166 catch~ \$0-output-right;
#X obj 480 336 throw~ \$0-voice-out-right;
#X obj 125 149 catch~ \$0-output-left;
#X obj 124 319 throw~ \$0-voice-out-left;
#X connect 0 0 1 1;
#X connect 1 0 23 0;
#X connect 2 0 0 0;
#X connect 3 0 1 1;
#X connect 4 0 3 0;
#X connect 7 0 6 0;
#X connect 8 0 6 0;
#X connect 9 0 2 0;
#X connect 10 0 4 0;
#X connect 11 0 7 0;
#X connect 12 0 8 0;
#X connect 13 0 14 1;
#X connect 14 0 21 0;
#X connect 15 0 13 0;
#X connect 16 0 14 1;
#X connect 17 0 16 0;
#X connect 18 0 15 0;
#X connect 19 0 17 0;
#X connect 20 0 14 0;
#X connect 22 0 1 0;
#X restore 399 364 pd voice-\$0-4;
#N canvas 0 0 1842 944 voice-\$0-5 0;
#X obj 247 231 line~;
#X obj 124 295 *~;
#X msg 247 207 0 200;
#X obj 362 231 line~;
#X msg 362 206 1 5;
#X obj 463 138 switch~;
#X msg 463 104 0;
#X msg 552 105 1;
#N canvas 370 140 450 300 voice-clone-\$0-5 0;
#X restore 124 96 pd voice-clone-\$0-5;
#X obj 463 69 r \$0-stop-5;
#X obj 552 71 r \$0-start-5;
#X obj 247 183 r \$0-rampdown-5;
#X obj 362 183 r \$0-rampup-5;
#X obj 585 247 line~;
#X obj 462 311 *~;
#X msg 585 223 0 200;
#X obj 700 247 line~;
#X msg 700 222 1 5;
#X obj 585 199 r \$0-rampdown-5;
#X obj 700 199 r \$0-rampup-5;
#X obj 125 149 catch~ \$0-output-left;
#X obj 124 319 throw~ \$0-voice-out-left;
#X obj 463 165 catch~ \$0-output-right;
#X obj 462 335 throw~ \$0-voice-out-right;
#X connect 0 0 1 1;
#X connect 1 0 21 0;
#X connect 2 0 0 0;
#X connect 3 0 1 1;
#X connect 4 0 3 0;
#X connect 6 0 5 0;
#X connect 7 0 5 0;
#X connect 9 0 6 0;
#X connect 10 0 7 0;
#X connect 11 0 2 0;
#X connect 12 0 4 0;
#X connect 13 0 14 1;
#X connect 14 0 23 0;
#X connect 15 0 13 0;
#X connect 16 0 14 1;
#X connect 17 0 16 0;
#X connect 18 0 15 0;
#X connect 19 0 17 0;
#X connect 20 0 1 0;
#X connect 22 0 14 0;
#X restore 93 393 pd voice-\$0-5;
#N canvas 0 0 1842 944 voice-\$0-6 0;
#X obj 247 231 line~;
#X obj 124 295 *~;
#X msg 247 207 0 200;
#X obj 362 231 line~;
#X msg 362 206 1 5;
#X obj 463 138 switch~;
#X msg 463 104 0;
#X msg 552 105 1;
#N canvas 370 140 450 300 voice-clone-\$0-6 0;
#X restore 124 96 pd voice-clone-\$0-6;
#X obj 247 182 r \$0-rampdown-6;
#X obj 362 183 r \$0-rampup-6;
#X obj 463 69 r \$0-stop-6;
#X obj 553 71 r \$0-start-6;
#X obj 596 251 line~;
#X obj 473 315 *~;
#X msg 596 227 0 200;
#X obj 711 251 line~;
#X msg 711 226 1 5;
#X obj 596 202 r \$0-rampdown-6;
#X obj 711 203 r \$0-rampup-6;
#X obj 474 169 catch~ \$0-output-right;
#X obj 473 339 throw~ \$0-voice-out-right;
#X obj 125 149 catch~ \$0-output-left;
#X obj 124 319 throw~ \$0-voice-out-left;
#X connect 0 0 1 1;
#X connect 1 0 23 0;
#X connect 2 0 0 0;
#X connect 3 0 1 1;
#X connect 4 0 3 0;
#X connect 6 0 5 0;
#X connect 7 0 5 0;
#X connect 9 0 2 0;
#X connect 10 0 4 0;
#X connect 11 0 6 0;
#X connect 12 0 7 0;
#X connect 13 0 14 1;
#X connect 14 0 21 0;
#X connect 15 0 13 0;
#X connect 16 0 14 1;
#X connect 17 0 16 0;
#X connect 18 0 15 0;
#X connect 19 0 17 0;
#X connect 20 0 14 0;
#X connect 22 0 1 0;
#X restore 195 393 pd voice-\$0-6;
#N canvas 0 0 1842 944 voice-\$0-7 0;
#X obj 247 231 line~;
#X obj 124 295 *~;
#X msg 247 207 0 200;
#X obj 362 231 line~;
#X msg 362 206 1 5;
#X obj 463 138 switch~;
#X msg 463 104 0;
#X msg 552 105 1;
#N canvas 370 140 450 300 voice-clone-\$0-7 0;
#X restore 124 96 pd voice-clone-\$0-7;
#X obj 463 69 r \$0-stop-7;
#X obj 552 71 r \$0-start-7;
#X obj 247 183 r \$0-rampdown-7;
#X obj 362 183 r \$0-rampup-7;
#X obj 585 251 line~;
#X obj 462 315 *~;
#X msg 585 227 0 200;
#X obj 700 251 line~;
#X msg 700 226 1 5;
#X obj 585 203 r \$0-rampdown-7;
#X obj 700 203 r \$0-rampup-7;
#X obj 463 169 catch~ \$0-output-right;
#X obj 462 339 throw~ \$0-voice-out-right;
#X obj 125 149 catch~ \$0-output-left;
#X obj 124 319 throw~ \$0-voice-out-left;
#X connect 0 0 1 1;
#X connect 1 0 23 0;
#X connect 2 0 0 0;
#X connect 3 0 1 1;
#X connect 4 0 3 0;
#X connect 6 0 5 0;
#X connect 7 0 5 0;
#X connect 9 0 6 0;
#X connect 10 0 7 0;
#X connect 11 0 2 0;
#X connect 12 0 4 0;
#X connect 13 0 14 1;
#X connect 14 0 21 0;
#X connect 15 0 13 0;
#X connect 16 0 14 1;
#X connect 17 0 16 0;
#X connect 18 0 15 0;
#X connect 19 0 17 0;
#X connect 20 0 14 0;
#X connect 22 0 1 0;
#X restore 297 393 pd voice-\$0-7;
#N canvas 0 0 1842 944 voice-\$0-8 0;
#X obj 247 231 line~;
#X obj 124 295 *~;
#X msg 247 207 0 200;
#X obj 362 231 line~;
#X msg 362 206 1 5;
#X obj 463 138 switch~;
#X msg 463 104 0;
#X msg 552 105 1;
#N canvas 370 140 450 300 voice-clone-\$0-8 0;
#X restore 124 96 pd voice-clone-\$0-8;
#X obj 463 69 r \$0-stop-8;
#X obj 552 71 r \$0-start-8;
#X obj 247 183 r \$0-rampdown-8;
#X obj 362 183 r \$0-rampup-8;
#X obj 590 254 line~;
#X obj 467 318 *~;
#X msg 590 230 0 200;
#X obj 705 254 line~;
#X msg 705 229 1 5;
#X obj 590 206 r \$0-rampdown-8;
#X obj 705 206 r \$0-rampup-8;
#X obj 468 172 catch~ \$0-output-right;
#X obj 467 342 throw~ \$0-voice-out-right;
#X obj 125 149 catch~ \$0-output-left;
#X obj 124 319 throw~ \$0-voice-out-left;
#X connect 0 0 1 1;
#X connect 1 0 23 0;
#X connect 2 0 0 0;
#X connect 3 0 1 1;
#X connect 4 0 3 0;
#X connect 6 0 5 0;
#X connect 7 0 5 0;
#X connect 9 0 6 0;
#X connect 10 0 7 0;
#X connect 11 0 2 0;
#X connect 12 0 4 0;
#X connect 13 0 14 1;
#X connect 14 0 21 0;
#X connect 15 0 13 0;
#X connect 16 0 14 1;
#X connect 17 0 16 0;
#X connect 18 0 15 0;
#X connect 19 0 17 0;
#X connect 20 0 14 0;
#X connect 22 0 1 0;
#X restore 401 394 pd voice-\$0-8;
#N canvas -9 -9 1920 988 routing 0;
#X obj 50 265 r \$0-note-2-route;
#X obj 50 430 s;
#X obj 266 431 s;
#X obj 266 290 r \$0-control-2-route;
#X obj 527 283 r \$0-bank-load;
#X obj 622 335 t b f, f 9;
#X obj 682 360 makefilename \$0-voice-clear-\$1;
#X obj 622 388 s, f 9;
#X obj 527 311 t f f, f 14;
#X obj 527 390 t b f, f 9;
#X obj 527 443 s, f 9;
#X obj 587 413 makefilename \$0-voice-change-\$1;
#X obj 43 12 r \$0-prgm;
#X obj 103 60 s \$0-route-change;
#X obj 109 354 r \$0-route-change;
#X obj 331 357 r \$0-route-change;
#X obj 83 87 s \$0-switch-prev-off;
#X obj 43 36 t f f b f;
#X obj 550 89 v \$0-cur-voice;
#X obj 569 41 r \$0-switch-prev-off;
#X obj 569 66 bng 15 250 50 0 empty empty empty 17 7 0 10 -262144 -1
-1;
#X obj 550 113 t b b f f, f 12;
#X obj 630 138 makefilename \$0-stop-\$1;
#X obj 550 152 s;
#X obj 577 186 s, f 4;
#X obj 604 161 makefilename \$0-rampdown-\$1;
#X obj 63 109 s \$0-update-cur;
#X obj 550 15 r \$0-update-cur;
#X obj 270 26 r \$0-switch-on;
#X obj 43 134 s \$0-switch-cur-on;
#X obj 270 55 t b b f f, f 12;
#X obj 270 94 s;
#X obj 297 127 s, f 4;
#X obj 351 77 makefilename \$0-rampup-\$1;
#X obj 324 103 makefilename \$0-start-\$1;
#X obj 71 302 list prepend note;
#X obj 68 331 loadbang;
#X obj 284 333 loadbang;
#X msg 284 357 2;
#X msg 68 355 2;
#X obj 16 467 print GM: en-route;
#X obj 94 547 print GM: note send-name;
#X obj 68 398 makefilename \$0-to-clone-%d;
#X obj 284 404 makefilename \$0-control-%d;
#X connect 0 0 1 0;
#X connect 0 0 40 0;
#X connect 3 0 2 0;
#X connect 4 0 8 0;
#X connect 5 0 7 0;
#X connect 5 1 6 0;
#X connect 6 0 7 1;
#X connect 8 0 9 0;
#X connect 8 1 5 0;
#X connect 9 0 10 0;
#X connect 9 1 11 0;
#X connect 11 0 10 1;
#X connect 12 0 17 0;
#X connect 14 0 42 0;
#X connect 15 0 43 0;
#X connect 17 0 29 0;
#X connect 17 1 26 0;
#X connect 17 2 16 0;
#X connect 17 3 13 0;
#X connect 18 0 21 0;
#X connect 19 0 20 0;
#X connect 20 0 18 0;
#X connect 21 0 23 0;
#X connect 21 1 24 0;
#X connect 21 2 25 0;
#X connect 21 3 22 0;
#X connect 22 0 23 1;
#X connect 25 0 24 1;
#X connect 27 0 18 0;
#X connect 28 0 30 0;
#X connect 30 0 31 0;
#X connect 30 1 32 0;
#X connect 30 2 34 0;
#X connect 30 3 33 0;
#X connect 33 0 31 1;
#X connect 34 0 32 1;
#X connect 36 0 39 0;
#X connect 37 0 38 0;
#X connect 38 0 43 0;
#X connect 39 0 42 0;
#X connect 42 0 1 1;
#X connect 42 0 41 0;
#X connect 43 0 2 1;
#X restore 93 319 pd routing;
#X obj 1639 75 s \$0-bank-load;
#X msg 951 385 1 2 3 4 5 6 7 8;
#X obj 919 343 bng 15 250 50 0 empty empty empty 17 7 0 10 -262144
-1 -1;
#X obj 951 409 list-drip;
#X obj 951 433 t b f, f 9;
#X obj 951 486 s, f 9;
#X msg 951 458 clear;
#X obj 527 280 s, f 19;
#X obj 919 319 bang;
#X obj 527 72 route voice-change;
#X obj 675 156 makefilename pd-voice-clone-\$0-%d;
#X obj 608 190 makefilename \$0-to-clone-%d;
#X obj 527 100 unpack s f, f 12;
#X obj 527 216 pack s s, f 12;
#X floatatom 721 121 5 0 0 0 - - -;
#X obj 608 124 t f f, f 10;
#X msg 527 241 clear \, obj 100 50 r \$2 \, obj 100 150 clone -s 1
32 \$1 \\\$0 \, connect 0 0 1 0 \, loadbang;
#X obj 1011 460 makefilename pd-voice-clone-\$0-%d;
#X obj 919 363 t b b;
#X msg 919 510 GM: No voice loaded;
#X obj 919 534 print;
#X msg 685 61 guitarr 1;
#X text 96 210 |<------Midi-send-signals----------------------------->|
;
#X obj 549 355 loadbang;
#X msg 549 379 2;
#X obj 549 403 s \$0-prgm;
#X connect 0 0 6 0;
#X connect 0 0 26 0;
#X connect 1 0 2 0;
#X connect 2 0 3 0;
#X connect 6 0 12 0;
#X connect 6 0 13 0;
#X connect 6 1 11 0;
#X connect 6 2 10 0;
#X connect 6 3 9 0;
#X connect 6 4 7 0;
#X connect 6 5 8 0;
#X connect 6 6 65 0;
#X connect 17 0 14 0;
#X connect 17 1 15 0;
#X connect 18 0 24 0;
#X connect 18 1 23 0;
#X connect 19 0 21 0;
#X connect 21 0 20 0;
#X connect 22 0 18 0;
#X connect 23 0 31 0;
#X connect 25 0 27 0;
#X connect 25 0 30 0;
#X connect 25 0 56 0;
#X connect 28 0 36 0;
#X connect 28 1 46 0;
#X connect 28 2 29 0;
#X connect 29 0 32 0;
#X connect 30 0 28 0;
#X connect 35 0 34 0;
#X connect 36 0 37 0;
#X connect 36 1 35 0;
#X connect 37 0 45 0;
#X connect 37 1 38 0;
#X connect 45 0 39 0;
#X connect 46 0 33 0;
#X connect 57 0 59 0;
#X connect 58 0 74 0;
#X connect 59 0 60 0;
#X connect 60 0 62 0;
#X connect 60 1 73 0;
#X connect 62 0 61 0;
#X connect 64 0 58 0;
#X connect 65 0 68 0;
#X connect 66 0 63 1;
#X connect 67 0 69 1;
#X connect 68 0 69 0;
#X connect 68 1 71 0;
#X connect 69 0 72 0;
#X connect 71 0 67 0;
#X connect 71 1 66 0;
#X connect 71 1 70 0;
#X connect 72 0 63 0;
#X connect 73 0 61 1;
#X connect 74 0 75 0;
#X connect 74 1 57 0;
#X connect 75 0 76 0;
#X connect 77 0 68 0;
#X connect 79 0 80 0;
#X connect 80 0 81 0;
