#N canvas -9 -9 1920 988 12;
#X obj 2079 286 unpack f s;
#X floatatom 1885 358 5 0 0 0 - - -;
#X obj 1885 337 f \$0;
#X obj 1885 304 bng 15 250 50 0 empty empty empty 17 7 0 10 -262144
-1 -1;
#X obj 1769 237 notein;
#X obj 1769 308 unpack f f;
#X floatatom 1769 332 5 0 0 0 - - -;
#X floatatom 1769 332 5 0 0 0 - - -;
#X floatatom 1836 333 5 0 0 0 - - -;
#X floatatom 1836 333 5 0 0 0 - - -;
#X obj 1769 260 pack f f;
#X obj 1681 289 print note;
#X obj 1728 354 print note-after;
#X obj 1769 284 send-on-change;
#X obj 18 444 send-on-change;
#X obj 19 470 list prepend note;
#X obj 19 513 list prepend;
#X obj 191 451 send-on-change;
#X obj 191 516 list prepend;
#X obj 191 426 r \$0-polytouch;
#X obj 191 473 list prepend polytouch;
#X obj 364 448 send-on-change;
#X obj 364 516 list prepend;
#X obj 364 474 list prepend control;
#X obj 364 423 r \$0-control;
#X obj 537 515 list prepend;
#X obj 537 447 change 0;
#X obj 712 513 list prepend;
#X obj 712 445 change 0;
#X obj 885 513 list prepend;
#X obj 885 445 change 0;
#X obj 537 422 r \$0-prgm;
#X obj 712 420 r \$0-aftouch;
#X obj 885 420 r \$0-pitch-bend;
#X text 1713 195 |TESTING SECTION|;
#X obj 537 473 list prepend prgm;
#X obj 712 470 list prepend aftouch;
#X obj 885 471 list prepend pitch-bend;
#X obj 1324 50 loadbang;
#X obj 1324 77 f 1;
#X obj 1324 101 s \$0-channel;
#X obj 19 594 route 1 2 3 4 5 6 7 8 9 10 11 12 13 14 15 16, f 196
;
#X obj 2079 417 s \$0-voice-change;
#X obj 1064 510 r \$0-voice-change;
#X obj 2079 310 t f b;
#X obj 1923 418 print voice-change-1;
#X obj 2079 385 pack f s s;
#X msg 2111 341 symbol voice-change;
#X obj 24 841 catch~ \$0-left;
#X obj 142 841 catch~ \$0-right;
#X msg 2013 242 1 guitar;
#X msg 1954 245 1 bell;
#X obj 19 685 gm-channel \$2;
#X obj 19 770 throw~ \$0-left;
#X obj 158 772 throw~ \$0-right;
#X obj 129 685 gm-channel \$2;
#X obj 247 685 gm-channel \$2;
#X obj 361 687 gm-channel \$2;
#X obj 469 688 gm-channel \$2;
#X obj 576 688 gm-channel \$2;
#X obj 685 690 gm-channel \$2;
#X obj 791 689 gm-channel \$2;
#X obj 897 690 gm-channel \$2;
#X obj 1000 691 gm-channel \$2;
#X obj 1104 688 gm-channel \$2;
#X obj 1207 689 gm-channel \$2;
#X obj 1316 687 gm-channel \$2;
#X obj 1419 688 gm-channel \$2;
#X obj 1529 687 gm-channel \$2;
#X obj 1632 686 gm-channel \$2;
#X obj 113 39 inlet;
#X obj 113 68 route note polytouch control prgm aftouch pitch-bend
;
#X obj 353 134 s \$0-aftouch;
#X obj 414 112 s \$0-pitch-bend;
#X obj 293 156 s \$0-prgm;
#X obj 233 177 s \$0-control;
#X obj 173 199 s \$0-polytouch;
#X obj 113 222 s \$0-notein;
#X text 107 251 |------Midi-send-signals----------------------------|
;
#X obj 100 491 r \$1-channel;
#X obj 273 495 r \$1-channel;
#X obj 445 495 r \$1-channel;
#X obj 618 494 r \$1-channel;
#X obj 793 494 r \$1-channel;
#X obj 966 492 r \$1-channel;
#X obj 24 865 outlet~ left;
#X obj 142 865 outlet~ right;
#X obj 532 94 route voice-change;
#X obj 530 140 unpack s f, f 18;
#N canvas 0 0 1920 988 loop-16 0;
#X obj 22 72 until;
#X obj 75 85 + 1;
#X obj 22 99 f 1;
#X obj 22 -3 inlet;
#X obj 22 138 outlet;
#X obj 22 21 t b b;
#X msg 54 46 1;
#X obj 75 111 sel 17;
#X text 173 61 Loops 16 times \, starting from 1 till 16;
#X connect 0 0 2 0;
#X connect 1 0 7 0;
#X connect 1 0 2 1;
#X connect 2 0 1 0;
#X connect 2 0 4 0;
#X connect 3 0 5 0;
#X connect 5 0 0 0;
#X connect 5 1 6 0;
#X connect 6 0 2 1;
#X connect 7 0 0 1;
#X restore 530 247 pd loop-16;
#X obj 530 165 t b s, f 11;
#X obj 604 210 list prepend voice-change;
#X obj 530 274 list append, f 12;
#X obj 530 298 s \$0-voice-change;
#X obj 604 187 pack s f;
#X obj 690 130 print GM: port-in-voice-change;
#X obj 18 419 r \$0-notein;
#X obj 390 819 print GM: To-ch-2;
#X msg 691 92 bell 3;
#X text 675 251 Machinery to send voice change signal to all 16 channels
of this port., f 38;
#X connect 0 0 44 0;
#X connect 0 1 46 2;
#X connect 2 0 1 0;
#X connect 3 0 2 0;
#X connect 4 1 10 1;
#X connect 5 0 6 0;
#X connect 5 0 7 0;
#X connect 5 1 8 0;
#X connect 10 0 11 0;
#X connect 10 0 13 0;
#X connect 13 0 5 0;
#X connect 13 0 12 0;
#X connect 14 0 15 0;
#X connect 15 0 16 0;
#X connect 16 0 41 0;
#X connect 17 0 20 0;
#X connect 18 0 41 0;
#X connect 19 0 17 0;
#X connect 20 0 18 0;
#X connect 21 0 23 0;
#X connect 22 0 41 0;
#X connect 23 0 22 0;
#X connect 24 0 21 0;
#X connect 25 0 41 0;
#X connect 26 0 35 0;
#X connect 27 0 41 0;
#X connect 28 0 36 0;
#X connect 29 0 41 0;
#X connect 30 0 37 0;
#X connect 31 0 26 0;
#X connect 32 0 28 0;
#X connect 33 0 30 0;
#X connect 35 0 25 0;
#X connect 36 0 27 0;
#X connect 37 0 29 0;
#X connect 38 0 39 0;
#X connect 39 0 40 0;
#X connect 41 0 52 0;
#X connect 41 1 97 0;
#X connect 41 1 55 0;
#X connect 41 2 56 0;
#X connect 41 3 57 0;
#X connect 41 4 58 0;
#X connect 41 5 59 0;
#X connect 41 6 60 0;
#X connect 41 7 61 0;
#X connect 41 8 62 0;
#X connect 41 9 63 0;
#X connect 41 10 64 0;
#X connect 41 11 65 0;
#X connect 41 12 66 0;
#X connect 41 13 67 0;
#X connect 41 14 68 0;
#X connect 41 15 69 0;
#X connect 43 0 41 0;
#X connect 44 0 46 0;
#X connect 44 1 47 0;
#X connect 46 0 42 0;
#X connect 46 0 45 0;
#X connect 47 0 46 1;
#X connect 48 0 85 0;
#X connect 49 0 86 0;
#X connect 50 0 0 0;
#X connect 51 0 0 0;
#X connect 52 0 53 0;
#X connect 52 1 54 0;
#X connect 55 0 53 0;
#X connect 55 1 54 0;
#X connect 56 0 53 0;
#X connect 56 1 54 0;
#X connect 70 0 71 0;
#X connect 71 0 77 0;
#X connect 71 1 76 0;
#X connect 71 2 75 0;
#X connect 71 3 74 0;
#X connect 71 4 72 0;
#X connect 71 5 73 0;
#X connect 71 6 87 0;
#X connect 79 0 16 1;
#X connect 80 0 18 1;
#X connect 81 0 22 1;
#X connect 82 0 25 1;
#X connect 83 0 27 1;
#X connect 84 0 29 1;
#X connect 87 0 88 0;
#X connect 87 0 95 0;
#X connect 88 0 90 0;
#X connect 88 1 94 1;
#X connect 89 0 92 0;
#X connect 90 0 89 0;
#X connect 90 1 94 0;
#X connect 91 0 92 1;
#X connect 92 0 93 0;
#X connect 94 0 91 0;
#X connect 96 0 14 0;
#X connect 98 0 88 0;
