#N canvas -9 -9 1920 988 12;
#X declare -path C:/Users/kumar/OneDrive/Documents/purrdata/general-midi-abs/instruments/
;
#X declare -path ./instruments;
#X obj 1696 648 unpack f s;
#X floatatom 1685 563 5 0 0 0 - - -;
#X obj 1685 542 f \$0;
#X obj 1685 509 bng 15 250 50 0 empty empty empty 17 7 0 10 -262144
-1 -1;
#X obj 192 86 s \$0-polytouch;
#X obj 1569 442 notein;
#X obj 1569 513 unpack f f;
#X floatatom 1569 537 5 0 0 0 - - -;
#X floatatom 1569 537 5 0 0 0 - - -;
#X floatatom 1636 538 5 0 0 0 - - -;
#X floatatom 1636 538 5 0 0 0 - - -;
#X obj 1569 465 pack f f;
#X obj 1481 494 print note;
#X obj 1528 559 print note-after;
#X obj 21 481 r \$0-note;
#X obj 28 91 s \$0-note;
#X obj 22 532 list prepend note;
#X obj 22 575 list prepend;
#X obj 194 578 list prepend;
#X obj 194 488 r \$0-polytouch;
#X obj 194 535 list prepend polytouch;
#X obj 367 578 list prepend;
#X obj 367 536 list prepend control;
#X obj 367 485 r \$0-control;
#X obj 540 577 list prepend;
#X obj 540 509 change 0;
#X obj 715 575 list prepend;
#X obj 715 507 change 0;
#X obj 888 575 list prepend;
#X obj 888 501 change 0;
#X obj 540 484 r \$0-prgm;
#X obj 715 482 r \$0-aftouch;
#X obj 888 476 r \$0-pitch-bend;
#X text 1513 400 |TESTING SECTION|;
#X obj 540 535 list prepend prgm;
#X obj 715 532 list prepend aftouch;
#X obj 888 527 list prepend pitch-bend;
#X obj 1379 213 loadbang;
#X obj 1379 240 f 1;
#X obj 1379 264 s \$0-channel;
#X obj 1696 779 s \$0-voice-change;
#X obj 1067 572 r \$0-voice-change;
#X obj 1696 672 t f b;
#X obj 1540 780 print voice-change-1;
#X obj 1696 747 pack f s s;
#X msg 1728 703 symbol voice-change;
#X obj 26 902 catch~ \$0-left;
#X obj 77 925 catch~ \$0-right;
#X obj 27 35 notein, f 10;
#X obj 27 64 pack f f;
#X obj 192 34 polytouchin;
#X text 194 -16 polyphonic aftertouch, f 10;
#X obj 192 58 pack f f;
#X obj 370 29 ctlin, f 11;
#X text 357 9 (all controllers \, omni);
#X text 411 -15 channel/port;
#X obj 370 54 pack f f;
#X obj 370 78 s \$0-control;
#X obj 29 128 pgmin, f 12;
#X obj 29 152 s \$0-prgm;
#X obj 207 126 touchin, f 14;
#X obj 207 153 s \$0-aftouch;
#X obj 374 121 bendin, f 18;
#X obj 374 145 s \$0-pitch-bend;
#X text 567 -18 TO_DO:;
#X msg 1630 604 1 guitar;
#X msg 1571 607 1 bell;
#X text 579 3 -- Program specification through text file;
#X obj 24 830 throw~ \$0-left;
#X obj 146 831 throw~ \$0-right;
#X obj 45 253 t f f, f 12;
#X obj 126 281 - 1;
#X obj 126 306 mod 16;
#X obj 45 280 - 1;
#X obj 45 305 div 16;
#X obj 126 354 s \$0-channel;
#X obj 45 352 s \$0-port;
#X obj 444 54 s \$0-ch;
#X obj 266 61 s \$0-ch;
#X obj 94 61 s \$0-ch;
#X obj 109 152 s \$0-ch;
#X obj 302 152 s \$0-ch;
#X obj 497 146 s \$0-ch;
#X obj 45 227 r \$0-ch;
#X obj 545 39 inlet;
#X obj 895 11 inlet;
#X msg 941 182 read \$1;
#X obj 941 206 text define -k \$0-bank-file;
#A set 1 bell~ \; 2 bell~ \;;
#N canvas 0 0 1920 988 \$0-load-from-file 0;
#N canvas 0 0 1920 988 \$0-read-file 0;
#X obj 28 180 text get \$0-bank-file;
#X obj 25 5 inlet;
#X obj 25 29 t f b b, f 19;
#X obj 25 56 until;
#X msg 89 61 0;
#X msg 155 57 -1;
#X obj 156 139 + 1;
#X obj 26 85 f;
#X obj 26 109 t f f;
#X obj 155 87 f;
#X obj 28 359 outlet;
#X obj 28 326 list prepend voice-change;
#X obj 28 209 unpack f s;
#X obj 28 295 pack s f;
#X obj 223 305 print GM: Read-file;
#X obj 28 262 symbol;
#X obj 28 233 t b f;
#X text 358 98 Read the contents of file and output line by line \,
first one being voice-number and second one being name of the instrument.
;
#X connect 0 0 12 0;
#X connect 1 0 2 0;
#X connect 2 0 3 0;
#X connect 2 1 4 0;
#X connect 2 2 5 0;
#X connect 3 0 7 0;
#X connect 4 0 7 1;
#X connect 5 0 9 0;
#X connect 6 0 7 1;
#X connect 7 0 8 0;
#X connect 8 0 0 0;
#X connect 8 1 6 0;
#X connect 9 0 0 1;
#X connect 11 0 10 0;
#X connect 12 0 16 0;
#X connect 12 1 15 1;
#X connect 13 0 11 0;
#X connect 13 0 14 0;
#X connect 15 0 13 0;
#X connect 16 0 15 0;
#X connect 16 1 13 1;
#X restore 130 118 pd \$0-read-file;
#X obj 130 92 text size \$0-bank-file;
#N canvas 0 50 450 300 loop-8 0;
#X obj 22 72 until;
#X obj 75 85 + 1;
#X obj 22 99 f 1;
#X obj 22 -3 inlet;
#X obj 22 138 outlet;
#X obj 22 21 t b b;
#X msg 54 46 1;
#X obj 75 111 sel 9;
#X text 155 65 loop 8 times;
#X connect 0 0 2 0;
#X connect 1 0 2 1;
#X connect 1 0 7 0;
#X connect 2 0 1 0;
#X connect 2 0 4 0;
#X connect 3 0 5 0;
#X connect 5 0 0 0;
#X connect 5 1 6 0;
#X connect 6 0 2 1;
#X connect 7 0 0 1;
#X restore 130 170 pd loop-8;
#X obj 130 142 t b l, f 13;
#X obj 130 194 list append;
#X obj 130 221 s \$0-voice-change;
#X obj 33 13 inlet;
#X obj 33 37 t b b b, f 28;
#X msg 33 85 \; pd dsp 1;
#X msg 224 61 \; pd dsp 0;
#X obj 33 61 del 500;
#X text 371 70 Turn off dsp \, read content of file line by line \,
loop each voice-change message 8 times(actually done for 4 time now
due to performance concerns) \, and then turn on audio.;
#X connect 0 0 3 0;
#X connect 1 0 0 0;
#X connect 2 0 4 0;
#X connect 3 0 2 0;
#X connect 3 1 4 1;
#X connect 4 0 5 0;
#X connect 6 0 7 0;
#X connect 7 0 10 0;
#X connect 7 1 1 0;
#X connect 7 2 9 0;
#X connect 10 0 8 0;
#X restore 918 256 pd \$0-load-from-file;
#X obj 994 160 s \$0-re-bang;
#X obj 930 232 r \$0-re-bang;
#X obj 870 113 print GM: file-name;
#X obj 1067 601 print GM: rack-voice-change;
#X obj 102 554 r \$0-port;
#X obj 276 557 r \$0-port;
#X obj 448 557 r \$0-port;
#X obj 621 556 r \$0-port;
#X obj 796 554 r \$0-port;
#X obj 969 554 r \$0-port;
#X obj 45 329 + 1;
#X obj 126 330 + 1;
#X obj 230 353 print GM: channel;
#X obj 24 376 print GM: port;
#X obj 895 59 list;
#X obj 895 159 t b b s;
#X obj 872 250 bng 15 250 50 0 empty empty empty 17 7 0 10 -262144
-1 -1;
#X text 214 274 Simple maths to calculate and send port and channel
number.;
#X text 30 206 |<--------------midi-input/routing from external input
above...............>|, f 77;
#X text 18 435 |<--------------routing midi-stream and voice change
message \, prepennding stuff to discriminate from each other...............>|
, f 153;
#X text 592 747 Each GM-midi-port contain 16-gm-channel each.;
#X text 1613 253 To_do: global debug level;
#X obj 21 506 gm-send-on-change;
#X obj 194 513 gm-send-on-change;
#X obj 367 510 gm-send-on-change;
#X obj 24 745 gm-midi-ports \$0 1;
#X obj 158 745 gm-midi-ports \$0 2;
#X obj 299 745 gm-midi-ports \$0 3;
#X obj 438 747 gm-midi-ports \$0 4;
#X obj 1476 263 v global-debug-lvl;
#X obj 1476 214 loadbang;
#X obj 1476 238 f 0;
#X obj 895 35 route file reload open, f 43;
#X obj 1094 84 openpanel;
#X msg 1094 59 bang;
#X obj 895 282 del 1000;
#X obj 895 306 print **LOADED SUCCESSFULLY**;
#X text 25 -13 Midi note input;
#N canvas 0 50 450 300 \$0-dynamic-path-subpatch 0;
#X obj 100 50 declare -path C:/Users/kumar/OneDrive/Documents/purrdata/general-midi-abs/instruments/
;
#X restore 1282 49 pd \$0-dynamic-path-subpatch;
#X obj 1094 108 t s s, f 9;
#N canvas -9 -9 1920 988 declare-path 0;
#X obj 31 12 inlet;
#X obj 31 41 gm-path-extract;
#X obj 31 65 route symbol;
#X msg 91 117 clear;
#X msg 31 139 obj 100 50 declare -path \$1;
#X obj 31 93 t a b, f 9;
#X obj 156 63 print extracted-path;
#X obj 31 178 s pd-\$0-dynamic-path-subpatch;
#X connect 0 0 1 0;
#X connect 1 0 2 0;
#X connect 1 0 6 0;
#X connect 2 0 5 0;
#X connect 3 0 7 0;
#X connect 4 0 7 0;
#X connect 5 0 4 0;
#X connect 5 1 3 0;
#X restore 1154 131 pd declare-path;
#X msg 1180 261 clear;
#X obj 1281 20 declare -path ./instruments;
#X text 1481 47 Subpatch to declare path dynamically for the chosen
bank file form the file browser. Only one path/file can be loaded at
a time.;
#X obj 26 994 outlet~;
#X obj 128 991 outlet~;
#X obj 26 961 gm-soft-clipper;
#X text 232 952 Final output \, sent to two channel audio outlets;
#X obj 1276 217 loadbang;
#X obj 1276 241 print WELCOME;
#N canvas -9 -9 1920 988 extern-midi 0;
#X obj 37 37 inlet;
#N canvas 0 50 450 300 parse-midi 0;
#X obj 40 56 cyclone/midiparse @hires 2, f 57;
#X obj 436 81 s \$0-ch;
#X obj 40 224 s \$0-note;
#X obj 106 202 s \$0-polytouch;
#X obj 172 180 s \$0-control;
#X obj 238 155 s \$0-prgm;
#X obj 304 128 s \$0-aftouch;
#X obj 370 105 s \$0-pitch-bend;
#X obj 40 29 inlet;
#X connect 0 0 2 0;
#X connect 0 1 3 0;
#X connect 0 2 4 0;
#X connect 0 3 5 0;
#X connect 0 4 6 0;
#X connect 0 5 7 0;
#X connect 0 6 1 0;
#X connect 8 0 0 0;
#X restore 36 326 pd parse-midi;
#X obj 37 176 cyclone/seq;
#X msg 37 89 read \$1;
#X msg 105 88 read;
#X obj 36 262 cyclone/midiflush;
#X msg 309 134 continue;
#X obj 37 61 route file open play pause continue, f 49;
#X obj 241 93 t b b, f 9;
#X msg 216 122 pause;
#X obj 147 90 t b b, f 9;
#X obj 378 83 s \$0-raw-midi-;
#X obj 48 291 r \$0-raw-midi-;
#X connect 0 0 7 0;
#X connect 2 0 5 0;
#X connect 3 0 2 0;
#X connect 4 0 2 0;
#X connect 5 0 1 0;
#X connect 6 0 2 0;
#X connect 7 0 3 0;
#X connect 7 1 4 0;
#X connect 7 2 10 0;
#X connect 7 3 8 0;
#X connect 7 4 6 0;
#X connect 7 5 11 0;
#X connect 8 0 9 0;
#X connect 8 1 5 0;
#X connect 9 0 2 0;
#X connect 10 0 2 0;
#X connect 10 1 5 0;
#X connect 12 0 1 0;
#X restore 545 63 pd extern-midi;
#N canvas -9 -9 1920 988 sequencing-and-recording 0;
#X obj 100 148 gm-sequencer;
#X obj 67 10 inlet;
#X obj 642 7 loadbang;
#X msg 642 31 0;
#X obj 642 56 t a a, f 8;
#X obj 695 80 v \$0-seq-on;
#X obj 642 104 v \$0-rec-on;
#X obj 134 62 v \$0-rec-on;
#X obj 67 34 t a a b, f 10;
#X obj 100 97 spigot;
#X obj 67 295 outlet;
#X obj 267 7 r \$0-rec-message;
#X obj 267 31 route record;
#X msg 267 55 1;
#X obj 267 81 v \$0-rec-on;
#X obj 100 121 list prepend;
#X obj 181 93 r \$0-ch;
#X connect 1 0 8 0;
#X connect 2 0 3 0;
#X connect 3 0 4 0;
#X connect 4 0 6 0;
#X connect 4 1 5 0;
#X connect 7 0 9 1;
#X connect 8 0 10 0;
#X connect 8 1 9 0;
#X connect 8 2 7 0;
#X connect 9 0 15 0;
#X connect 11 0 12 0;
#X connect 12 0 13 0;
#X connect 13 0 14 0;
#X connect 15 0 0 0;
#X connect 16 0 15 1;
#X restore 22 656 pd sequencing-and-recording;
#X obj 669 34 inlet;
#X obj 23 685 route 1 2 3 4 5 6 7 8, f 130;
#X connect 0 0 42 0;
#X connect 0 1 44 2;
#X connect 2 0 1 0;
#X connect 3 0 2 0;
#X connect 5 1 11 1;
#X connect 6 0 7 0;
#X connect 6 0 8 0;
#X connect 6 1 9 0;
#X connect 11 0 12 0;
#X connect 11 0 6 0;
#X connect 14 0 111 0;
#X connect 16 0 17 0;
#X connect 17 0 140 0;
#X connect 18 0 140 0;
#X connect 19 0 112 0;
#X connect 20 0 18 0;
#X connect 21 0 140 0;
#X connect 22 0 21 0;
#X connect 23 0 113 0;
#X connect 24 0 140 0;
#X connect 25 0 34 0;
#X connect 26 0 140 0;
#X connect 27 0 35 0;
#X connect 28 0 140 0;
#X connect 29 0 36 0;
#X connect 30 0 25 0;
#X connect 31 0 27 0;
#X connect 32 0 29 0;
#X connect 34 0 24 0;
#X connect 35 0 26 0;
#X connect 36 0 28 0;
#X connect 37 0 38 0;
#X connect 38 0 39 0;
#X connect 41 0 92 0;
#X connect 41 0 140 0;
#X connect 42 0 44 0;
#X connect 42 1 45 0;
#X connect 44 0 40 0;
#X connect 44 0 43 0;
#X connect 45 0 44 1;
#X connect 46 0 135 0;
#X connect 47 0 135 1;
#X connect 48 0 49 0;
#X connect 48 1 49 1;
#X connect 48 2 79 0;
#X connect 49 0 15 0;
#X connect 50 0 52 0;
#X connect 50 1 52 1;
#X connect 50 2 78 0;
#X connect 52 0 4 0;
#X connect 53 0 56 0;
#X connect 53 1 56 1;
#X connect 53 2 77 0;
#X connect 56 0 57 0;
#X connect 58 0 59 0;
#X connect 58 1 80 0;
#X connect 60 0 61 0;
#X connect 60 1 81 0;
#X connect 62 0 63 0;
#X connect 62 1 82 0;
#X connect 65 0 0 0;
#X connect 66 0 0 0;
#X connect 70 0 73 0;
#X connect 70 1 71 0;
#X connect 71 0 72 0;
#X connect 72 0 100 0;
#X connect 73 0 74 0;
#X connect 74 0 99 0;
#X connect 83 0 70 0;
#X connect 84 0 139 0;
#X connect 85 0 121 0;
#X connect 86 0 87 0;
#X connect 90 0 88 0;
#X connect 93 0 17 1;
#X connect 94 0 18 1;
#X connect 95 0 21 1;
#X connect 96 0 24 1;
#X connect 97 0 26 1;
#X connect 98 0 28 1;
#X connect 99 0 76 0;
#X connect 99 0 102 0;
#X connect 100 0 75 0;
#X connect 100 0 101 0;
#X connect 103 0 104 0;
#X connect 104 0 124 0;
#X connect 104 1 88 0;
#X connect 104 2 86 0;
#X connect 105 0 124 0;
#X connect 111 0 16 0;
#X connect 112 0 20 0;
#X connect 113 0 22 0;
#X connect 114 0 68 0;
#X connect 114 1 69 0;
#X connect 115 0 68 0;
#X connect 115 1 69 0;
#X connect 116 0 68 0;
#X connect 116 1 69 0;
#X connect 117 0 68 0;
#X connect 117 1 69 0;
#X connect 119 0 120 0;
#X connect 120 0 118 0;
#X connect 121 0 91 0;
#X connect 121 0 103 0;
#X connect 121 1 89 0;
#X connect 121 2 123 0;
#X connect 122 0 128 0;
#X connect 123 0 122 0;
#X connect 124 0 125 0;
#X connect 128 0 104 0;
#X connect 128 1 129 0;
#X connect 130 0 87 0;
#X connect 135 0 133 0;
#X connect 135 1 134 0;
#X connect 137 0 138 0;
#X connect 140 0 142 0;
#X connect 142 0 114 0;
#X connect 142 1 115 0;
#X connect 142 2 116 0;
#X connect 142 3 117 0;
