#N canvas -9 -9 1920 988 12;
#X declare -path \$1;
#X obj 1076 60 inlet;
#X obj 1076 83 unpack f s;
#X floatatom 1566 564 5 0 0 0 - - -;
#X obj 1566 543 f \$0;
#X obj 1566 510 bng 15 250 50 0 empty empty empty 17 7 0 10 -262144
-1 -1;
#X obj 192 86 s \$0-polytouch;
#X obj 1450 443 notein;
#X obj 1450 514 unpack f f;
#X floatatom 1450 538 5 0 0 0 - - -;
#X floatatom 1450 538 5 0 0 0 - - -;
#X floatatom 1517 539 5 0 0 0 - - -;
#X floatatom 1517 539 5 0 0 0 - - -;
#X obj 1450 466 pack f f;
#X obj 1362 495 print note;
#X obj 1409 560 print note-after;
#X obj 1450 490 send-on-change;
#X obj 18 444 send-on-change;
#X obj 18 419 r \$0-note;
#X obj 28 91 s \$0-note;
#X obj 19 470 list prepend note;
#X obj 19 513 list prepend;
#X obj 99 492 r \$0-channel;
#X obj 191 451 send-on-change;
#X obj 191 516 list prepend;
#X obj 273 495 r \$0-channel;
#X obj 191 426 r \$0-polytouch;
#X obj 191 473 list prepend polytouch;
#X obj 364 448 send-on-change;
#X obj 364 516 list prepend;
#X obj 445 495 r \$0-channel;
#X obj 364 474 list prepend control;
#X obj 364 423 r \$0-control;
#X obj 537 515 list prepend;
#X obj 618 494 r \$0-channel;
#X obj 537 447 change 0;
#X obj 712 513 list prepend;
#X obj 793 492 r \$0-channel;
#X obj 712 445 change 0;
#X obj 885 513 list prepend;
#X obj 966 492 r \$0-channel;
#X obj 885 439 change 0;
#X obj 537 422 r \$0-prgm;
#X obj 712 420 r \$0-aftouch;
#X obj 885 414 r \$0-pitch-bend;
#X text 1394 401 |TESTING SECTION|;
#X obj 537 473 list prepend prgm;
#X obj 712 470 list prepend aftouch;
#X obj 885 465 list prepend pitch-bend;
#X obj 1324 50 loadbang;
#X obj 1324 77 f 1;
#X obj 1324 101 s \$0-channel;
#X obj 1076 214 s \$0-voice-change;
#X obj 1064 510 r \$0-voice-change;
#X obj 1076 107 t f b;
#X obj 920 215 print voice-change-1;
#X obj 1076 182 pack f s s;
#X msg 1108 138 symbol voice-change;
#X obj 24 841 catch~ \$0-left;
#X obj 49 866 catch~ \$0-right;
#X obj 24 895 dac~;
#X obj 27 35 notein, f 10;
#X obj 27 64 pack f f;
#X obj 192 34 polytouchin;
#X text 194 -16 polyphonic aftertouch, f 10;
#X obj 192 58 pack f f;
#X obj 370 29 ctlin, f 11;
#X text 357 9 (all controllers \, omni);
#X text 411 -15 channel/port;
#X obj 370 54 pack f f;
#X obj 370 78 s \$0-control;
#X obj 29 128 pgmin, f 12;
#X obj 29 152 s \$0-prgm;
#X obj 207 126 touchin, f 14;
#X obj 207 153 s \$0-aftouch;
#X obj 374 121 bendin, f 18;
#X obj 374 145 s \$0-pitch-bend;
#X text 565 -18 TO_DO:;
#X msg 1010 39 1 guitar;
#X msg 951 42 1 bell;
#X text 611 -18 -- Program specification through text file;
#X obj 1324 19 declare -path \$1;
#X obj 21 768 throw~ \$0-left;
#X obj 143 769 throw~ \$0-right;
#X obj 19 602 route 1 2 3 4 5 6 7 8, f 130;
#X obj 45 253 t f f, f 12;
#X obj 126 281 - 1;
#X obj 126 306 mod 16;
#X obj 45 280 - 1;
#X obj 45 305 div 16;
#X obj 126 330 s \$0-channel;
#X obj 45 329 s \$0-port;
#X obj 21 683 gm-midi-ports \$0;
#X obj 144 685 gm-midi-ports \$0;
#X obj 266 685 gm-midi-ports \$0;
#X obj 389 685 gm-midi-ports \$0;
#X obj 514 685 gm-midi-ports \$0;
#X obj 644 682 gm-midi-ports \$0;
#X obj 766 683 gm-midi-ports \$0;
#X obj 895 681 gm-midi-ports \$0;
#X obj 444 54 s \$0-ch;
#X obj 266 61 s \$0-ch;
#X obj 94 61 s \$0-ch;
#X obj 109 152 s \$0-ch;
#X obj 302 152 s \$0-ch;
#X obj 497 146 s \$0-ch;
#X obj 45 227 r \$0-ch;
#X obj 622 29 inlet;
#X msg 622 53 raw-midi input through midi-file;
#X obj 1211 705 s2l;
#X connect 0 0 1 0;
#X connect 1 0 53 0;
#X connect 1 1 55 2;
#X connect 3 0 2 0;
#X connect 4 0 3 0;
#X connect 6 1 12 1;
#X connect 7 0 8 0;
#X connect 7 0 9 0;
#X connect 7 1 10 0;
#X connect 12 0 13 0;
#X connect 12 0 15 0;
#X connect 15 0 7 0;
#X connect 15 0 14 0;
#X connect 16 0 19 0;
#X connect 17 0 16 0;
#X connect 19 0 20 0;
#X connect 20 0 83 0;
#X connect 21 0 20 1;
#X connect 22 0 26 0;
#X connect 23 0 83 0;
#X connect 24 0 23 1;
#X connect 25 0 22 0;
#X connect 26 0 23 0;
#X connect 27 0 30 0;
#X connect 28 0 83 0;
#X connect 29 0 28 1;
#X connect 30 0 28 0;
#X connect 31 0 27 0;
#X connect 32 0 83 0;
#X connect 33 0 32 1;
#X connect 34 0 45 0;
#X connect 35 0 83 0;
#X connect 36 0 35 1;
#X connect 37 0 46 0;
#X connect 38 0 83 0;
#X connect 39 0 38 1;
#X connect 40 0 47 0;
#X connect 41 0 34 0;
#X connect 42 0 37 0;
#X connect 43 0 40 0;
#X connect 45 0 32 0;
#X connect 46 0 35 0;
#X connect 47 0 38 0;
#X connect 48 0 49 0;
#X connect 49 0 50 0;
#X connect 52 0 83 0;
#X connect 53 0 55 0;
#X connect 53 1 56 0;
#X connect 55 0 51 0;
#X connect 55 0 54 0;
#X connect 56 0 55 1;
#X connect 57 0 59 0;
#X connect 58 0 59 1;
#X connect 60 0 61 0;
#X connect 60 1 61 1;
#X connect 60 2 101 0;
#X connect 61 0 18 0;
#X connect 62 0 64 0;
#X connect 62 1 64 1;
#X connect 62 2 100 0;
#X connect 64 0 5 0;
#X connect 65 0 68 0;
#X connect 65 1 68 1;
#X connect 65 2 99 0;
#X connect 68 0 69 0;
#X connect 70 0 71 0;
#X connect 70 1 102 0;
#X connect 72 0 73 0;
#X connect 72 1 103 0;
#X connect 74 0 75 0;
#X connect 74 1 104 0;
#X connect 77 0 1 0;
#X connect 78 0 1 0;
#X connect 83 0 91 0;
#X connect 83 1 92 0;
#X connect 83 2 93 0;
#X connect 83 3 94 0;
#X connect 83 4 95 0;
#X connect 83 5 96 0;
#X connect 83 6 97 0;
#X connect 83 7 98 0;
#X connect 84 0 87 0;
#X connect 84 1 85 0;
#X connect 85 0 86 0;
#X connect 86 0 89 0;
#X connect 87 0 88 0;
#X connect 88 0 90 0;
#X connect 91 0 81 0;
#X connect 91 1 82 0;
#X connect 92 0 81 0;
#X connect 92 1 82 0;
#X connect 105 0 84 0;
#X connect 106 0 107 0;
