#N canvas 0 0 1522 772 12;
#X obj 2079 286 unpack f s;
#X floatatom 1885 358 5 0 0 0 - - -, f 5;
#X obj 1885 337 f \$0;
#X obj 1885 304 bng 15 250 50 0 empty empty empty 17 7 0 10 #fcfcfc
#000000 #000000;
#X obj 1769 237 notein;
#X obj 1769 308 unpack f f;
#X floatatom 1769 332 5 0 0 0 - - -, f 5;
#X floatatom 1769 332 5 0 0 0 - - -, f 5;
#X floatatom 1836 333 5 0 0 0 - - -, f 5;
#X floatatom 1836 333 5 0 0 0 - - -, f 5;
#X obj 1769 260 pack f f;
#X obj 1681 289 print note;
#X obj 1728 354 print note-after;
#X obj 192 97 list prepend;
#X text 1713 195 |TESTING SECTION|;
#X obj 1324 50 loadbang;
#X obj 1324 77 f 1;
#X obj 1324 101 s \$0-channel;
#X obj 19 594 route 1 2 3 4 5 6 7 8 9 10 11 12 13 14 15 16, f 196
;
#X obj 2079 417 s \$0-voice-change;
#X obj 2079 310 t f b;
#X obj 1923 418 print voice-change-1;
#X obj 2079 385 pack f s s;
#X msg 2111 341 symbol voice-change;
#X obj 24 841 catch~ \$0-left;
#X obj 142 841 catch~ \$0-right;
#X msg 2013 242 1 guitar;
#X msg 1954 245 1 bell;
#X obj 19 685 gm-channel \$2;
#X obj 19 770 throw~ \$0-left;
#X obj 158 772 throw~ \$0-right;
#X obj 129 685 gm-channel \$2;
#X obj 247 685 gm-channel \$2;
#X obj 361 687 gm-channel \$2;
#X obj 469 688 gm-channel \$2;
#X obj 576 688 gm-channel \$2;
#X obj 685 690 gm-channel \$2;
#X obj 791 689 gm-channel \$2;
#X obj 897 690 gm-channel \$2;
#X obj 1000 691 gm-channel \$2;
#X obj 1104 688 gm-channel \$2;
#X obj 1207 689 gm-channel \$2;
#X obj 1316 687 gm-channel \$2;
#X obj 1419 688 gm-channel \$2;
#X obj 1529 687 gm-channel \$2;
#X obj 1665 688 gm-channel \$2;
#X obj 27 37 inlet;
#X obj 273 75 r \$1-channel;
#X obj 24 865 outlet~ left;
#X obj 142 865 outlet~ right;
#X obj 390 819 print GM: To-ch-2;
#X obj 320 850 print GM: To-ch-1;
#X obj 469 751 throw~ \$0-left;
#X obj 608 753 throw~ \$0-right;
#X obj 898 744 throw~ \$0-left;
#X obj 1037 746 throw~ \$0-right;
#X obj 1319 755 throw~ \$0-left;
#X obj 1458 757 throw~ \$0-right;
#X obj 27 70 route voice-change, f 24;
#N canvas 0 50 450 300 routing-mech 0;
#X obj 41 51 route voice-change;
#X obj 39 97 unpack s f, f 18;
#N canvas 0 0 1920 988 loop-16 0;
#X obj 22 72 until;
#X obj 75 85 + 1;
#X obj 22 99 f 1;
#X obj 22 -3 inlet;
#X obj 22 138 outlet;
#X obj 22 21 t b b;
#X msg 54 46 1;
#X obj 75 111 sel 17;
#X text 173 61 Loops 16 times \, starting from 1 till 16;
#X connect 0 0 2 0;
#X connect 1 0 7 0;
#X connect 1 0 2 1;
#X connect 2 0 1 0;
#X connect 2 0 4 0;
#X connect 3 0 5 0;
#X connect 5 0 0 0;
#X connect 5 1 6 0;
#X connect 6 0 2 1;
#X connect 7 0 0 1;
#X restore 39 204 pd loop-16;
#X obj 39 122 t b s, f 11;
#X obj 113 167 list prepend voice-change;
#X obj 39 231 list append, f 12;
#X obj 113 144 pack s f;
#X obj 199 87 print GM: port-in-voice-change;
#X msg 200 49 bell 3;
#X text 184 208 Machinery to send voice change signal to all 16 channels
of this port., f 38;
#X obj 41 15 inlet;
#X obj 39 255 outlet;
#X connect 0 0 1 0;
#X connect 0 0 7 0;
#X connect 1 0 3 0;
#X connect 1 1 6 1;
#X connect 2 0 5 0;
#X connect 3 0 2 0;
#X connect 3 1 6 0;
#X connect 4 0 5 1;
#X connect 5 0 11 0;
#X connect 6 0 4 0;
#X connect 8 0 1 0;
#X connect 10 0 0 0;
#X restore 27 101 pd routing-mech;
#X text 190 137 |------Midi-send-signals--|;
#X connect 0 0 20 0;
#X connect 0 1 22 2;
#X connect 2 0 1 0;
#X connect 3 0 2 0;
#X connect 4 1 10 1;
#X connect 5 0 6 0;
#X connect 5 0 7 0;
#X connect 5 1 8 0;
#X connect 10 0 11 0;
#X connect 10 0 5 0;
#X connect 13 0 18 0;
#X connect 15 0 16 0;
#X connect 16 0 17 0;
#X connect 18 0 28 0;
#X connect 18 0 51 0;
#X connect 18 1 50 0;
#X connect 18 1 31 0;
#X connect 18 2 32 0;
#X connect 18 3 33 0;
#X connect 18 4 34 0;
#X connect 18 5 35 0;
#X connect 18 6 36 0;
#X connect 18 7 37 0;
#X connect 18 8 38 0;
#X connect 18 9 39 0;
#X connect 18 10 40 0;
#X connect 18 11 41 0;
#X connect 18 12 42 0;
#X connect 18 13 43 0;
#X connect 18 14 44 0;
#X connect 18 15 45 0;
#X connect 20 0 22 0;
#X connect 20 1 23 0;
#X connect 22 0 19 0;
#X connect 22 0 21 0;
#X connect 23 0 22 1;
#X connect 24 0 48 0;
#X connect 25 0 49 0;
#X connect 26 0 0 0;
#X connect 27 0 0 0;
#X connect 28 0 29 0;
#X connect 28 1 30 0;
#X connect 31 0 29 0;
#X connect 31 1 30 0;
#X connect 32 0 29 0;
#X connect 32 1 30 0;
#X connect 33 0 29 0;
#X connect 33 1 30 0;
#X connect 34 0 52 0;
#X connect 34 1 53 0;
#X connect 35 0 52 0;
#X connect 35 1 53 0;
#X connect 36 0 52 0;
#X connect 36 1 53 0;
#X connect 37 0 52 0;
#X connect 37 1 53 0;
#X connect 38 0 54 0;
#X connect 38 1 55 0;
#X connect 39 0 54 0;
#X connect 39 1 55 0;
#X connect 40 0 54 0;
#X connect 40 1 55 0;
#X connect 41 0 54 0;
#X connect 41 1 55 0;
#X connect 42 0 56 0;
#X connect 42 1 57 0;
#X connect 43 0 56 0;
#X connect 43 1 57 0;
#X connect 44 0 56 0;
#X connect 44 1 57 0;
#X connect 45 0 56 0;
#X connect 45 1 57 0;
#X connect 46 0 58 0;
#X connect 47 0 13 1;
#X connect 58 0 59 0;
#X connect 58 1 13 0;
#X connect 59 0 18 0;
