#N canvas -9 -9 1920 988 10;
#X obj 201 123 * 0.0078745;
#X obj 201 99 spigot;
#X obj 201 145 sig~;
#X obj 201 167 lop~ 2;
#X obj 186 322 *~;
#X obj 21 318 *~;
#X obj 21 341 outlet~ left;
#X obj 186 343 outlet~ right;
#X obj 37 292 cos~;
#X obj 37 268 -~ 0.25;
#X obj 201 233 cos~;
#X obj 201 211 -~ 0.25;
#X obj 201 189 *~ 0.25;
#X obj 264 84 tgl 15 0 empty empty empty 17 7 0 10 -262144 -1 -1 0
1;
#X obj 60 13 loadbang;
#X obj 60 35 t b b, f 8;
#X msg 60 77 64;
#X obj 105 57 s \$0-pan-active;
#X obj 264 62 r \$0-pan-active;
#X obj 21 138 inlet~;
#X obj 122 136 inlet~;
#X obj 201 6 inlet;
#X obj 201 28 unpack f f;
#X obj 228 48 == 42;
#X connect 0 0 2 0;
#X connect 1 0 0 0;
#X connect 2 0 3 0;
#X connect 3 0 12 0;
#X connect 4 0 7 0;
#X connect 5 0 6 0;
#X connect 8 0 5 1;
#X connect 9 0 8 0;
#X connect 10 0 4 1;
#X connect 11 0 10 0;
#X connect 11 0 9 0;
#X connect 12 0 11 0;
#X connect 13 0 1 1;
#X connect 14 0 15 0;
#X connect 15 0 16 0;
#X connect 15 1 17 0;
#X connect 16 0 1 0;
#X connect 18 0 13 0;
#X connect 19 0 5 0;
#X connect 20 0 4 0;
#X connect 21 0 22 0;
#X connect 22 0 1 0;
#X connect 22 1 23 0;
#X connect 23 0 13 0;
