#N canvas -9 -9 1920 988 12;
#N canvas 0 50 450 300 rack-subpatch 0;
#X obj 100 200 gm-midiin-rack \$0;
#X obj 100 100 r \$0-inlet;
#X obj 100 150 route 1 2 3;
#X connect 1 0 2 0;
#X connect 2 0 0 0;
#X connect 2 1 0 1;
#X connect 2 2 0 2;
#X restore 364 347 pd rack-subpatch;
#X obj 270 219 s \$0-clr-voices;
#X obj 171 431 r \$0-clr-voices;
#X obj 103 458 gm-channel;
#X obj 202 327 s pd-rack-subpatch;
#X msg 108 347 WELCOME;
#X obj 108 371 print;
#X obj 202 220 del 1000;
#X obj 108 134 bang;
#X obj 22 23 inlet;
#X obj 111 103 s \$0-inlet;
#X obj 22 47 list prepend 1;
#X obj 133 22 inlet;
#X obj 303 23 inlet;
#X obj 444 33 inlet;
#X obj 101 589 outlet~;
#X obj 231 590 outlet~;
#X obj 133 46 list prepend 2;
#X obj 444 57 list prepend 4;
#X obj 303 51 list prepend 3;
#X msg 202 245 clear \, obj 100 200 gm-midiin-rack \\\$0 \, obj 100
100 r \\\$0-inlet \, obj 100 150 route 1 2 3 \, connect 1 0 2 0 \,
connect 2 0 0 0 \, connect 2 1 0 1 \, connect 2 2 0 2;
#X obj 108 324 del 1000;
#X msg 135 289 loadbang;
#X obj 134 253 del 1000;
#X obj 108 158 t b b b b, f 27;
#X obj 101 557 catch~ \$0-left;
#X obj 230 558 catch~ \$0-right;
#X connect 2 0 3 1;
#X connect 5 0 6 0;
#X connect 7 0 20 0;
#X connect 8 0 24 0;
#X connect 9 0 11 0;
#X connect 11 0 10 0;
#X connect 12 0 17 0;
#X connect 13 0 19 0;
#X connect 14 0 18 0;
#X connect 17 0 10 0;
#X connect 18 0 10 0;
#X connect 19 0 10 0;
#X connect 20 0 4 0;
#X connect 21 0 5 0;
#X connect 22 0 4 0;
#X connect 23 0 22 0;
#X connect 24 0 21 0;
#X connect 24 1 23 0;
#X connect 24 2 7 0;
#X connect 24 3 1 0;
#X connect 25 0 15 0;
#X connect 26 0 16 0;
