#N canvas 0 0 1522 754 12;
#X text 347 248 Click this message box to run. We have to do that every
time we close and run pd because \$0 value of patches change with time
after reload.;
#X msg 140 271 file ./instruments/bank.txt;
#X msg 156 296 open;
#X text 208 289 Opens file browser. Select bank file in any directory.
the instruments should be in same directory as bank file.;
#X text 285 348 NOTE: Please wait for LOADED SUCCESSFULLY message in
console before playing. Loading time varies with no. of instruments
loaded \, polyphony and processing speed of your system. Typically
it should take few seconds.;
#X obj 68 390 dac~;
#X obj 68 349 gm-rack, f 16;
#X msg 103 149 record;
#X msg 111 173 stop;
#X msg 119 201 read midseq.txt;
#X msg 126 227 play;
#X msg 177 326 close;
#X msg 80 54 play;
#X msg 72 30 open;
#X msg 88 78 pause;
#X msg 94 102 continue;
#X msg 64 8 file ./midi-files/python.mid;
#X connect 1 0 6 2;
#X connect 2 0 6 2;
#X connect 6 0 5 0;
#X connect 6 1 5 1;
#X connect 7 0 6 1;
#X connect 8 0 6 1;
#X connect 9 0 6 1;
#X connect 10 0 6 1;
#X connect 11 0 6 3;
#X connect 12 0 6 0;
#X connect 13 0 6 0;
#X connect 14 0 6 0;
#X connect 15 0 6 0;
#X connect 16 0 6 0;
