#N canvas 1912 43 1840 934 10;
#X obj 305 9 inlet;
#X obj 37 18 inlet;
#X obj 489 299 unpack f f f;
#X msg 462 29 const 0;
#X obj 462 7 loadbang;
#X obj 463 124 loadbang;
#X obj 462 54 t a a;
#X obj 305 102 spigot;
#X obj 332 78 tgl 15 0 empty empty empty 17 7 0 10 -262144 -1 -1 0
1;
#X obj 305 33 t f f;
#X msg 463 146 0;
#X obj 305 171 moses 1;
#X obj 305 239 s \$0-fflush;
#X obj 37 166 s \$0-fflush;
#X obj 559 321 > 0;
#X obj 559 343 t f f;
#X obj 490 407 spigot;
#X obj 553 408 spigot;
#X obj 490 335 pack f f;
#X obj 490 357 t a a;
#X obj 586 363 + 1;
#X obj 586 385 mod 2;
#X obj 464 194 loadbang;
#X obj 305 124 >= 66;
#X obj 489 76 array define -k \$0-suste-notes 100;
#A 0 44 45 44 49 45 55 55 51 45 39 22 60 54 58 83 70 62 17 37 46 33
59 55 42 52 55 49 50 47 45 50 58 45 54 52 61 0 0 0 0 0 0 0 0 0 0 0
0 0 0 0 0 0 0 0 0 0 0 0 0 0 0 0 0 0 0 0 0 0 0 0 0 0 0 0 0 0 0 0 0 0
0 0 0 0 0 0 0 0 0 0 0 0 0 0 0 0 0 0 0;
#X obj 344 191 s \$0-suste-state;
#X obj 37 41 route flush;
#X obj 181 41 r \$0-suste-state;
#X obj 100 64 list prepend 0;
#X obj 100 86 route 0 1;
#X obj 37 282 outlet;
#X obj 37 253 r \$0-to-outlet;
#X obj 126 113 s \$0-to-outlet;
#X msg 464 216 100;
#N canvas -9 -9 1920 988 set-at-cur-index 0;
#X obj 35 3 inlet;
#X msg 35 72 \$3 \$1 \$2;
#X obj 35 94 route 0, f 9;
#X obj 119 162 >=, f 18;
#X obj 224 116 loadbang;
#X obj 86 117 t l b, f 6;
#X obj 86 184 spigot;
#X obj 136 226 t f f, f 6;
#X floatatom 185 329 5 0 0 0 - - -;
#X obj 136 390 array set \$0-suste-notes;
#X floatatom 212 309 5 0 0 0 - - -;
#X obj 86 205 t b l b, f 17;
#X obj 224 139 v \$0-suste-size;
#X obj 119 141 v \$0-suste-index;
#X obj 86 414 v \$0-suste-index;
#X obj 86 433 + 1;
#X obj 86 454 v \$0-suste-index;
#X obj 169 369 array set \$0-suste-voices;
#X obj 185 249 t f f;
#X obj 185 226 v \$0-suste-index;
#X obj 35 25 t a a, f 15;
#X obj 122 47 s \$0-to-outlet;
#X connect 0 0 20 0;
#X connect 1 0 2 0;
#X connect 2 1 5 0;
#X connect 3 0 6 1;
#X connect 4 0 12 0;
#X connect 5 0 6 0;
#X connect 5 1 13 0;
#X connect 6 0 11 0;
#X connect 7 0 9 0;
#X connect 7 1 17 0;
#X connect 8 0 9 1;
#X connect 10 0 17 1;
#X connect 11 0 14 0;
#X connect 11 1 7 0;
#X connect 11 2 19 0;
#X connect 12 0 3 1;
#X connect 13 0 3 0;
#X connect 14 0 15 0;
#X connect 15 0 16 0;
#X connect 18 0 8 0;
#X connect 18 1 10 0;
#X connect 19 0 18 0;
#X connect 20 0 1 0;
#X connect 20 1 21 0;
#X restore 100 133 pd set-at-cur-index;
#X obj 38 201 r \$0-fflush;
#N canvas -9 -9 1920 988 flush-notes-offs 0;
#X obj 37 37 inlet;
#X obj 37 59 t b b, f 10;
#X obj 94 156 gm-array-looper;
#X obj 94 128 pack 0 f;
#X obj 94 81 t b b;
#X obj 121 102 v \$0-suste-index;
#X obj 94 178 t f f, f 15;
#N canvas -9 -9 1920 988 make-notes 0;
#X obj 21 13 inlet;
#X obj 21 35 t f f, f 11;
#X obj 84 56 t f b;
#X msg 111 76 1;
#X obj 21 59 t f b;
#X msg 48 79 1;
#X obj 21 163 pack f f 0;
#X obj 21 185 outlet;
#X obj 84 104 array get \$0-suste-notes;
#X obj 21 132 array get \$0-suste-voices;
#X connect 0 0 1 0;
#X connect 1 0 4 0;
#X connect 1 1 2 0;
#X connect 2 0 8 0;
#X connect 2 1 3 0;
#X connect 3 0 8 1;
#X connect 4 0 9 0;
#X connect 4 1 5 0;
#X connect 5 0 9 1;
#X connect 6 0 7 0;
#X connect 8 0 6 1;
#X connect 9 0 6 0;
#X restore 181 201 pd make-notes;
#N canvas -9 -9 1920 988 zeroed 0;
#X obj 21 13 inlet;
#X obj 21 35 t f f, f 11;
#X obj 21 59 t f b;
#X obj 84 56 t b f;
#X msg 84 78 0;
#X msg 21 81 0;
#X obj 84 104 array set \$0-suste-notes;
#X obj 21 132 array set \$0-suste-voices;
#X connect 0 0 1 0;
#X connect 1 0 2 0;
#X connect 1 1 3 0;
#X connect 2 0 5 0;
#X connect 2 1 7 1;
#X connect 3 0 4 0;
#X connect 3 1 6 1;
#X connect 4 0 6 0;
#X connect 5 0 7 0;
#X restore 94 200 pd zeroed;
#X obj 181 223 s \$0-to-outlet;
#N canvas 0 50 450 300 update-array-variables 0;
#X obj 28 12 inlet;
#X msg 28 34 0;
#X obj 28 56 v \$0-suste-index;
#X connect 0 0 1 0;
#X connect 1 0 2 0;
#X restore 38 254 pd update-array-variables;
#X obj 332 28 inlet;
#X obj 407 149 gm-array-looper;
#X obj 407 121 pack 0 f;
#X obj 407 74 t b b;
#X obj 434 95 v \$0-suste-index;
#X obj 332 50 t b f, f 13;
#X connect 0 0 1 0;
#X connect 1 0 10 0;
#X connect 1 1 4 0;
#X connect 2 0 6 0;
#X connect 3 0 2 0;
#X connect 4 0 3 0;
#X connect 4 1 5 0;
#X connect 5 0 3 1;
#X connect 6 0 8 0;
#X connect 6 1 7 0;
#X connect 7 0 9 0;
#X connect 11 0 16 0;
#X connect 13 0 12 0;
#X connect 14 0 13 0;
#X connect 14 1 15 0;
#X connect 15 0 13 1;
#X connect 16 1 14 0;
#X restore 38 223 pd flush-notes-offs;
#X obj 462 98 array define -k \$0-suste-voices 100;
#A 0 44 45 44 49 45 55 55 51 45 39 22 60 54 58 83 70 62 17 37 46 33
59 55 42 52 55 49 50 47 45 50 58 45 54 52 61 51 44 43 47 49 52 47 52
36 50 60 45 16 1 42 31 31 0 0 0 0 0 0 0 0 0 0 0 0 0 0 0 0 0 0 0 0 0
0 0 0 0 0 0 0 0 0 0 0 0 0 0 0 0 0 0 0 0 0 0 0 0 0 0;
#X obj 463 169 v \$0-suste-index;
#X obj 464 240 v \$0-suste-size;
#X obj 305 199 t b f;
#X obj 332 219 s \$0-suste-state;
#X text 378 56 66;
#X obj 332 55 == 41;
#X obj 305 146 change 0;
#X connect 0 0 9 0;
#X connect 1 0 26 0;
#X connect 2 0 18 0;
#X connect 2 1 18 1;
#X connect 2 2 14 0;
#X connect 3 0 6 0;
#X connect 4 0 3 0;
#X connect 5 0 10 0;
#X connect 6 0 37 0;
#X connect 6 1 24 0;
#X connect 7 0 23 0;
#X connect 8 0 7 1;
#X connect 9 0 7 0;
#X connect 9 1 43 0;
#X connect 10 0 38 0;
#X connect 11 0 40 0;
#X connect 11 1 25 0;
#X connect 14 0 15 0;
#X connect 15 0 16 1;
#X connect 15 1 20 0;
#X connect 18 0 19 0;
#X connect 19 0 16 0;
#X connect 19 1 17 0;
#X connect 20 0 21 0;
#X connect 21 0 17 1;
#X connect 22 0 33 0;
#X connect 23 0 44 0;
#X connect 26 0 13 0;
#X connect 26 1 28 0;
#X connect 27 0 28 1;
#X connect 28 0 29 0;
#X connect 29 0 34 0;
#X connect 29 1 32 0;
#X connect 31 0 30 0;
#X connect 33 0 39 0;
#X connect 35 0 36 0;
#X connect 40 0 12 0;
#X connect 40 1 41 0;
#X connect 43 0 8 0;
#X connect 44 0 11 0;
