#N canvas -9 -9 1920 976 12;
#X obj 81 364 qlist;
#X obj 139 150 realtime, f 13;
#X obj 79 47 route record stop, f 22;
#X msg 230 121 bang;
#X msg 139 209 add \$1 seq-out;
#X msg 79 71 bang;
#X obj 79 95 t b b, f 9;
#X msg 79 200 clear;
#X obj 79 21 inlet;
#X obj 154 71 s \$0-stop;
#X obj 141 309 r \$0-stop;
#X obj 230 75 t b a, f 8;
#X obj 139 235 list append, f 21;
#X obj 499 14 inlet;
#X obj 499 198 qlist;
#X msg 499 86 read \$1;
#X msg 566 61 bang;
#X msg 632 61 rewind;
#X msg 699 61 tempo \$1;
#X obj 765 83 t b b, f 7;
#X msg 811 105 tempo 1;
#X msg 765 130 rewind;
#X obj 178 288 print in-qlist;
#X msg 141 336 write midseq.txt;
#X obj 139 259 route list;
#X obj 502 270 t a a;
#X msg 534 292 \$1;
#X obj 534 316 s \$1-ch;
#X obj 503 376 outlet;
#X obj 499 62 list;
#X obj 502 246 r seq-out;
#X obj 499 38 route read play rewind tempo default, f 48;
#X obj 502 341 list split 1;
#X obj 942 204 loadbang;
#X obj 942 253 v \$0-prev;
#X msg 942 228 0;
#N canvas 0 50 450 300 calc-time 0;
#X obj 37 37 inlet;
#X obj 37 119 -;
#X obj 37 61 t f f b;
#X obj 83 103 v \$0-prev;
#X obj 37 143 outlet;
#X connect 0 0 2 0;
#X connect 1 0 4 0;
#X connect 2 0 1 0;
#X connect 2 1 3 0;
#X connect 2 2 3 0;
#X connect 3 0 1 1;
#X restore 139 174 pd calc-time;
#X connect 1 0 36 0;
#X connect 2 0 5 0;
#X connect 2 1 9 0;
#X connect 2 2 11 0;
#X connect 3 0 1 1;
#X connect 4 0 12 0;
#X connect 5 0 6 0;
#X connect 6 0 7 0;
#X connect 6 1 1 0;
#X connect 7 0 0 0;
#X connect 8 0 2 0;
#X connect 10 0 23 0;
#X connect 11 0 3 0;
#X connect 11 1 12 1;
#X connect 12 0 24 0;
#X connect 13 0 31 0;
#X connect 15 0 14 0;
#X connect 16 0 14 0;
#X connect 17 0 14 0;
#X connect 18 0 14 0;
#X connect 19 0 21 0;
#X connect 19 1 20 0;
#X connect 20 0 14 0;
#X connect 21 0 14 0;
#X connect 23 0 0 0;
#X connect 24 0 0 0;
#X connect 24 0 22 0;
#X connect 25 0 32 0;
#X connect 25 1 26 0;
#X connect 26 0 27 0;
#X connect 29 0 15 0;
#X connect 30 0 25 0;
#X connect 31 0 29 0;
#X connect 31 1 16 0;
#X connect 31 2 17 0;
#X connect 31 3 18 0;
#X connect 31 4 19 0;
#X connect 32 1 28 0;
#X connect 33 0 35 0;
#X connect 35 0 34 0;
#X connect 36 0 4 0;
