#N canvas -9 -9 1920 988 10;
#X obj 666 37 inlet;
#X obj 70 39 inlet;
#X obj 414 344 unpack f f f;
#X msg 407 31 const 0;
#X obj 407 9 loadbang;
#X obj 408 138 loadbang;
#N canvas -9 -9 1920 988 check-if-sustained 1;
#X obj 35 25 inlet;
#X msg 35 47 \$3 \$1 \$2;
#X obj 35 69 route 0, f 9;
#X obj 119 137 >=, f 18;
#X obj 224 91 loadbang;
#X obj 86 92 t l b, f 6;
#X obj 86 159 spigot;
#X obj 136 201 t f f, f 6;
#X floatatom 185 244 5 0 0 0 - - -;
#X obj 135 292 array set \$0-suste-notes;
#X floatatom 212 224 5 0 0 0 - - -;
#X obj 169 270 array set \$0-suste-voice;
#X obj 86 180 t b l b, f 17;
#X obj 185 202 t b b;
#X obj 224 114 v \$0-suste-size;
#X obj 119 116 v \$0-suste-index;
#X obj 85 313 v \$0-suste-index;
#X obj 85 335 + 1;
#X obj 85 357 v \$0-suste-index;
#N canvas -9 -9 1920 988 remove-note 1;
#X obj 22 -2 inlet;
#X obj 22 77 until;
#X obj 98 58 + 1;
#X obj 22 141 outlet;
#X text 155 65 loop 8 times;
#X obj 22 20 unpack f f;
#X obj 98 84 sel, f 6;
#X obj 22 42 t b f;
#X obj 22 113 f, f 9;
#X connect 0 0 5 0;
#X connect 1 0 8 0;
#X connect 2 0 6 0;
#X connect 2 0 8 1;
#X connect 5 0 7 0;
#X connect 5 1 6 1;
#X connect 6 0 1 1;
#X connect 7 0 1 0;
#X connect 7 1 8 1;
#X connect 8 0 2 0;
#X connect 8 0 3 0;
#X restore 37 378 pd remove-note;
#X connect 0 0 1 0;
#X connect 1 0 2 0;
#X connect 2 0 19 0;
#X connect 2 1 5 0;
#X connect 3 0 6 1;
#X connect 4 0 14 0;
#X connect 5 0 6 0;
#X connect 5 1 15 0;
#X connect 6 0 12 0;
#X connect 7 0 9 0;
#X connect 7 1 11 0;
#X connect 8 0 9 1;
#X connect 10 0 11 1;
#X connect 12 0 16 0;
#X connect 12 1 7 0;
#X connect 12 2 13 0;
#X connect 13 0 8 0;
#X connect 13 1 10 0;
#X connect 14 0 3 1;
#X connect 15 0 3 0;
#X connect 16 0 17 0;
#X connect 17 0 18 0;
#X restore 132 196 pd check-if-sustained;
#X obj 407 56 t a a;
#X obj 666 130 spigot;
#X obj 693 106 tgl 15 0 empty empty empty 17 7 0 10 -262144 -1 -1 0
1;
#X obj 666 61 t f f;
#X msg 408 160 0;
#X obj 666 175 moses 1;
#X obj 666 219 s \$0-fflush;
#X obj 70 225 s \$0-fflush;
#X obj 526 194 r \$0-fflush;
#X obj 484 366 > 0;
#X obj 484 388 t f f;
#X obj 415 452 spigot;
#X obj 478 453 spigot;
#X obj 415 380 pack f f;
#X obj 415 402 t a a;
#X obj 511 408 + 1;
#X obj 511 430 mod 2;
#X obj 409 208 loadbang;
#X obj 693 83 == 66;
#X obj 666 152 >= 66;
#X obj 407 100 array define -k \$0-suste-voice 100;
#A 0 0 0 0 0 0 0 0 0 0 0 0 0 0 0 0 0 0 0 0 0 0 0 0 0 0 0 0 0 0 0 0
0 0 0 0 0 0 0 0 0 0 0 0 0 0 0 0 0 0 0 0 0 0 0 0 0 0 0 0 0 0 0 0 0 0
0 0 0 0 0 0 0 0 0 0 0 0 0 0 0 0 0 0 0 0 0 0 0 0 0 0 0 0 0 0 0 0 0 0
0;
#X obj 434 78 array define -k \$0-suste-notes 100;
#A 0 0 0 0 0 0 0 0 0 0 0 0 0 0 0 0 0 0 0 0 0 0 0 0 0 0 0 0 0 0 0 0
0 0 0 0 0 0 0 0 0 0 0 0 0 0 0 0 0 0 0 0 0 0 0 0 0 0 0 0 0 0 0 0 0 0
0 0 0 0 0 0 0 0 0 0 0 0 0 0 0 0 0 0 0 0 0 0 0 0 0 0 0 0 0 0 0 0 0 0
0;
#X obj 705 199 s \$0-suste-state;
#X obj 70 62 route flush;
#X obj 214 71 r \$0-suste-state;
#X obj 133 94 list prepend 0;
#X obj 133 116 route 0 1;
#X obj 408 183 v \$0-suse-index;
#N canvas -9 -9 1920 988 set-at-cur-index 1;
#X obj 23 11 inlet;
#X obj 26 165 outlet;
#X obj 23 33 unpack f f f;
#X obj 92 55 sel 0;
#X connect 0 0 2 0;
#X connect 2 2 3 0;
#X restore 133 170 pd set-at-cur-index;
#X obj 76 438 outlet;
#X obj 76 409 r \$0-to-outlet;
#X obj 159 143 s \$0-to-outlet;
#X msg 409 230 100;
#X obj 409 254 v \$0-suse-ar-size;
#X connect 0 0 10 0;
#X connect 1 0 30 0;
#X connect 2 0 20 0;
#X connect 2 1 20 1;
#X connect 2 2 16 0;
#X connect 3 0 7 0;
#X connect 4 0 3 0;
#X connect 5 0 11 0;
#X connect 7 0 27 0;
#X connect 7 1 28 0;
#X connect 8 0 26 0;
#X connect 9 0 8 1;
#X connect 10 0 8 0;
#X connect 10 1 25 0;
#X connect 11 0 34 0;
#X connect 12 0 13 0;
#X connect 12 1 29 0;
#X connect 16 0 17 0;
#X connect 17 0 18 1;
#X connect 17 1 22 0;
#X connect 20 0 21 0;
#X connect 21 0 18 0;
#X connect 21 1 19 0;
#X connect 22 0 23 0;
#X connect 23 0 19 1;
#X connect 24 0 39 0;
#X connect 25 0 9 0;
#X connect 26 0 12 0;
#X connect 30 0 14 0;
#X connect 30 1 32 0;
#X connect 31 0 32 1;
#X connect 32 0 33 0;
#X connect 33 0 35 0;
#X connect 33 1 38 0;
#X connect 37 0 36 0;
#X connect 39 0 40 0;
