#N canvas -9 -9 1920 988 10;
#X obj 666 37 inlet;
#X obj 70 39 inlet;
#X obj 597 340 unpack f f f;
#X msg 407 31 const 0;
#X obj 407 9 loadbang;
#X obj 408 138 loadbang;
#N canvas -9 -9 1920 988 check-if-sustained 0;
#X obj 35 25 inlet;
#X obj 35 47;
#X connect 0 0 1 0;
#X restore 133 330 pd check-if-sustained;
#X obj 407 56 t a a;
#X obj 666 130 spigot;
#X obj 693 106 tgl 15 0 empty empty empty 17 7 0 10 -262144 -1 -1 0
1;
#X obj 666 61 t f f;
#X msg 408 160 0;
#X obj 666 175 moses 1;
#X obj 666 219 s \$0-fflush;
#X obj 14 110 s \$0-fflush;
#X obj 538 244 r \$0-fflush;
#X obj 667 362 > 0;
#X obj 667 384 t f f;
#X obj 598 448 spigot;
#X obj 661 449 spigot;
#X obj 598 376 pack f f;
#X obj 598 398 t a a;
#X obj 694 404 + 1;
#X obj 694 426 mod 2;
#X obj 407 263 v \$0-sus-ar-size;
#X obj 407 217 loadbang;
#X msg 407 239 0;
#X obj 408 308 array set \$0-sus-notes 100;
#X obj 578 303 array set \$0-sus-voice;
#N canvas 683 396 450 300 note-off-update 0;
#X obj 37 37 inlet;
#X restore 661 471 pd note-off-update;
#X obj 693 83 == 66;
#X obj 666 152 >= 66;
#X obj 407 100 array define -k \$0-suste-voice 100;
#A 0 0 0 0 0 0 0 0 0 0 0 0 0 0 0 0 0 0 0 0 0 0 0 0 0 0 0 0 0 0 0 0
0 0 0 0 0 0 0 0 0 0 0 0 0 0 0 0 0 0 0 0 0 0 0 0 0 0 0 0 0 0 0 0 0 0
0 0 0 0 0 0 0 0 0 0 0 0 0 0 0 0 0 0 0 0 0 0 0 0 0 0 0 0 0 0 0 0 0 0
0;
#X obj 434 78 array define -k \$0-suste-notes 100;
#A 0 0 0 0 0 0 0 0 0 0 0 0 0 0 0 0 0 0 0 0 0 0 0 0 0 0 0 0 0 0 0 0
0 0 0 0 0 0 0 0 0 0 0 0 0 0 0 0 0 0 0 0 0 0 0 0 0 0 0 0 0 0 0 0 0 0
0 0 0 0 0 0 0 0 0 0 0 0 0 0 0 0 0 0 0 0 0 0 0 0 0 0 0 0 0 0 0 0 0 0
0;
#X obj 705 199 s \$0-suste-state;
#X obj 70 62 route flush;
#X obj 402 400 sustain;
#X obj 214 71 r \$0-suste-state;
#X obj 133 94 list prepend 0;
#X obj 133 116 route 0 1;
#X obj 408 183 v \$0-suse-index;
#N canvas -9 -9 1920 988 set-at-cur-index 1;
#X obj 23 11 inlet;
#X obj 25 132 outlet;
#X obj 23 33 unpack f f f;
#X obj 92 55 sel 0;
#X connect 0 0 2 0;
#X connect 2 2 3 0;
#X restore 133 300 pd set-at-cur-index;
#X obj 135 426 outlet;
#X obj 135 397 r \$0-to-outlet;
#X obj 159 143 s \$0-to-outlet;
#X connect 0 0 10 0;
#X connect 1 0 35 0;
#X connect 2 0 20 0;
#X connect 2 1 20 1;
#X connect 2 2 16 0;
#X connect 3 0 7 0;
#X connect 4 0 3 0;
#X connect 5 0 11 0;
#X connect 7 0 32 0;
#X connect 7 1 33 0;
#X connect 8 0 31 0;
#X connect 9 0 8 1;
#X connect 10 0 8 0;
#X connect 10 1 30 0;
#X connect 11 0 40 0;
#X connect 12 0 13 0;
#X connect 12 1 34 0;
#X connect 16 0 17 0;
#X connect 17 0 18 1;
#X connect 17 1 22 0;
#X connect 19 0 29 0;
#X connect 20 0 21 0;
#X connect 21 0 18 0;
#X connect 21 1 19 0;
#X connect 22 0 23 0;
#X connect 23 0 19 1;
#X connect 25 0 26 0;
#X connect 26 0 24 0;
#X connect 30 0 9 0;
#X connect 31 0 12 0;
#X connect 35 0 14 0;
#X connect 35 1 38 0;
#X connect 37 0 38 1;
#X connect 38 0 39 0;
#X connect 39 0 41 0;
#X connect 39 1 44 0;
#X connect 43 0 42 0;
