#N canvas -9 -9 1920 976 12;
#X obj 81 364 qlist;
#X obj 139 150 realtime, f 13;
#X obj 79 47 route record stop, f 22;
#X msg 230 121 bang;
#X msg 139 178 add \$1 seq-out;
#X msg 79 71 bang;
#X obj 79 95 t b b, f 9;
#X msg 79 200 clear;
#X obj 79 21 inlet;
#X obj 154 71 s \$0-stop;
#X obj 141 309 r \$0-stop;
#X obj 230 75 t b a, f 8;
#X obj 139 215 list append, f 21;
#X obj 499 14 inlet;
#X obj 499 198 qlist;
#X msg 499 62 read \$1;
#X msg 566 61 bang;
#X msg 632 61 rewind;
#X obj 502 246 r seq-out;
#X obj 502 270 outlet;
#X msg 699 61 tempo \$1;
#X obj 765 83 t b b, f 7;
#X msg 811 105 tempo 1;
#X msg 765 130 rewind;
#X obj 499 38 route file play rewind tempo default, f 48;
#X obj 217 250 print in-qlist;
#X obj 139 239 route 1;
#X msg 141 336 write midseq.txt;
#X connect 1 0 4 0;
#X connect 2 0 5 0;
#X connect 2 1 9 0;
#X connect 2 2 11 0;
#X connect 3 0 1 1;
#X connect 4 0 12 0;
#X connect 5 0 6 0;
#X connect 6 0 7 0;
#X connect 6 1 1 0;
#X connect 7 0 0 0;
#X connect 8 0 2 0;
#X connect 10 0 27 0;
#X connect 11 0 3 0;
#X connect 11 1 12 1;
#X connect 12 0 26 0;
#X connect 13 0 24 0;
#X connect 15 0 14 0;
#X connect 16 0 14 0;
#X connect 17 0 14 0;
#X connect 18 0 19 0;
#X connect 20 0 14 0;
#X connect 21 0 23 0;
#X connect 21 1 22 0;
#X connect 22 0 14 0;
#X connect 23 0 14 0;
#X connect 24 0 15 0;
#X connect 24 1 16 0;
#X connect 24 2 17 0;
#X connect 24 3 20 0;
#X connect 24 4 21 0;
#X connect 26 1 25 0;
#X connect 26 1 0 0;
#X connect 27 0 0 0;
