#N canvas 0 0 1522 754 10;
#X obj 305 9 inlet;
#X obj 37 18 inlet;
#X obj 305 102 spigot;
#X obj 332 78 tgl 15 0 empty empty empty 17 7 0 10 #fcfcfc #000000
#000000 1 1;
#X obj 325 284 s \$0-fflush;
#X obj 305 124 >= 66;
#X obj 344 191 s \$0-suste-state;
#X obj 37 41 route flush;
#X obj 169 41 r \$0-suste-state;
#X obj 100 86 route 0 1;
#X obj 38 207 outlet;
#X obj 38 178 r \$0-to-outlet;
#X obj 344 238 s \$0-suste-state;
#X text 378 56 66;
#X obj 332 55 == 41;
#X obj 305 146 change 0;
#N canvas 0 0 1920 988 sus-subpatch 1;
#X obj 37 8 inlet;
#X obj 81 58 inlet;
#X obj 37 192 bag;
#X msg 37 59 flush;
#X obj 40 240 s \$0-to-outlet;
#X obj 78 9 r \$0-fflush;
#X obj 241 -1 inlet;
#X obj 81 80 t a a a;
#X obj 101 124 s \$0-to-outlet;
#X obj 310 199 bag;
#X msg 241 21 \$2 \$1;
#X obj 241 43 route 0, f 31;
#X msg 424 63 \$2 \$1;
#X obj 424 87 s \$0-to-outlet;
#X msg 310 90 flush;
#X obj 337 242 ==, f 11;
#X obj 454 184 list store;
#X obj 454 207 list split 1, f 16;
#X obj 480 236 list;
#X obj 455 287 del 0;
#X msg 473 155 append \$1;
#X obj 120 102 s \$0-second-bag;
#X obj 473 133 r \$0-store-;
#X obj 310 221 t f f;
#X obj 310 309 s \$0-store-;
#X obj 337 264 route 1;
#X msg 337 286 0;
#X obj 241 66 t b f b b f b, f 26;
#X obj 270 280 spigot;
#X obj 272 327 list append 0;
#X obj 272 349 s \$0-to-outlet;
#X obj 241 373 s \$0-restore-bang;
#X obj 454 110 r \$0-restore-bang;
#X obj 455 263 t b a, f 12;
#X obj 524 305 s \$0-re-add;
#X obj 524 284 list append 1;
#X obj 325 111 r \$0-re-add;
#X obj 330 131 r \$0-second-bag;
#X obj 61 158 r \$0-clear;
#X obj 337 151 r \$0-clear;
#X obj 37 217 list append 0;
#X obj 154 325 print out-here;
#X msg 280 200 1;
#X connect 0 0 3 0;
#X connect 1 0 7 0;
#X connect 2 0 40 0;
#X connect 3 0 2 0;
#X connect 5 0 3 0;
#X connect 6 0 10 0;
#X connect 7 0 2 0;
#X connect 7 1 8 0;
#X connect 7 2 21 0;
#X connect 9 0 23 0;
#X connect 10 0 11 0;
#X connect 11 0 27 0;
#X connect 11 1 12 0;
#X connect 12 0 13 0;
#X connect 14 0 9 0;
#X connect 15 0 25 0;
#X connect 16 0 17 0;
#X connect 17 0 33 0;
#X connect 17 1 18 1;
#X connect 18 0 17 0;
#X connect 19 0 18 0;
#X connect 20 0 16 0;
#X connect 22 0 20 0;
#X connect 23 0 24 0;
#X connect 23 1 15 0;
#X connect 25 0 26 0;
#X connect 26 0 28 1;
#X connect 27 0 31 0;
#X connect 27 1 28 0;
#X connect 27 2 14 0;
#X connect 27 3 42 0;
#X connect 27 4 15 1;
#X connect 27 5 16 1;
#X connect 28 0 29 0;
#X connect 28 0 41 0;
#X connect 29 0 30 0;
#X connect 32 0 16 0;
#X connect 33 0 19 0;
#X connect 33 1 35 0;
#X connect 35 0 34 0;
#X connect 36 0 9 0;
#X connect 37 0 9 0;
#X connect 38 0 2 0;
#X connect 39 0 9 0;
#X connect 40 0 4 0;
#X connect 42 0 28 1;
#X restore 37 140 pd sus-subpatch;
#X obj 305 33 unpack f f;
#X obj 305 171 route 0;
#X obj 100 64 list prepend;
#X obj 510 11 loadbang;
#X msg 510 33 0;
#X obj 510 55 s \$0-suste-state;
#X obj 305 216 t b b f;
#X obj 305 330 s \$0-clear;
#X obj 515 132 loadbang;
#X msg 515 154 clear;
#X obj 515 176 s \$0-clear;
#X msg 325 260 flush;
#X msg 305 308 clear;
#X obj 550 260 r \$0-suste-state;
#X obj 550 285 print state;
#X connect 0 0 17 0;
#X connect 1 0 7 0;
#X connect 2 0 5 0;
#X connect 3 0 2 1;
#X connect 5 0 15 0;
#X connect 7 0 16 0;
#X connect 7 1 19 0;
#X connect 8 0 19 1;
#X connect 9 0 16 1;
#X connect 9 1 16 2;
#X connect 11 0 10 0;
#X connect 14 0 3 0;
#X connect 15 0 18 0;
#X connect 17 0 2 0;
#X connect 17 1 14 0;
#X connect 18 0 23 0;
#X connect 18 1 6 0;
#X connect 19 0 9 0;
#X connect 20 0 21 0;
#X connect 21 0 22 0;
#X connect 23 0 29 0;
#X connect 23 1 28 0;
#X connect 23 2 12 0;
#X connect 25 0 26 0;
#X connect 26 0 27 0;
#X connect 28 0 4 0;
#X connect 29 0 24 0;
#X connect 30 0 31 0;
