#N canvas -9 -9 1920 988 12;
#X obj 67 115 inlet~;
#X obj 186 115 inlet~;
#X obj 66 314 outlet~;
#X obj 230 312 outlet~;
#X obj 66 270 catch~ \$0-output-left;
#X obj 230 271 catch~ \$0-output-right;
#X obj 310 108 loadbang;
#X msg 310 132 0;
#X obj 294 37 inlet;
#X obj 495 22 loadbang;
#X msg 495 46 0.89;
#X obj 495 70 s \$0-linear-thresh;
#N canvas -9 -9 1920 988 clipper-left 0;
#X obj 81 20 inlet~;
#X obj 176 176 expr~ tanh($v1);
#X obj 176 143 *~;
#X obj 194 122 tgl 15 0 empty empty empty 17 7 0 10 -262144 -1 -1 0
1;
#X obj 336 140 *~;
#X obj 354 122 tgl 15 0 empty empty empty 17 7 0 10 -262144 -1 -1 0
1;
#X obj 336 163 expr~ if($v1 > 0.727 \, 0.2 * tanh((3.6 * $v1) - 3)
+ 0.8 \, if($v1 < -0.727 \, 0.2 * tanh((3.6 * $v1) + 3) - 0.8 \, $v1))
, f 30;
#X floatatom 863 116 5 0 0 0 - - -;
#X obj 863 141 sig~;
#X obj 558 168 expr~ if($v1 > $v2 || $v1 < (-1 * $v2) \, copysign(1
\, $v1) * (1 - (pow(1-$v2 \, 2)/(copysign(1 \, $v1) * $v1 - 2 * $v2
+ 1))) \, $v1), f 44;
#X obj 558 143 *~;
#X obj 576 124 tgl 15 0 empty empty empty 17 7 0 10 -262144 -1 -1 0
1;
#X obj 210 9 inlet;
#X obj 210 33 route 0 1 2 3;
#X obj 176 203 throw~ \$0-output-left;
#X obj 336 246 throw~ \$0-output-left;
#X obj 558 234 throw~ \$0-output-left;
#X obj 863 91 r \$0-linear-thresh;
#X obj 81 175 clip~ -1 1;
#X obj 81 143 *~;
#X obj 99 122 tgl 15 0 empty empty empty 17 7 0 10 -262144 -1 -1 1
1;
#X obj 81 242 throw~ \$0-output-left;
#X connect 0 0 2 0;
#X connect 0 0 4 0;
#X connect 0 0 10 0;
#X connect 0 0 19 0;
#X connect 1 0 14 0;
#X connect 2 0 1 0;
#X connect 3 0 2 1;
#X connect 4 0 6 0;
#X connect 5 0 4 1;
#X connect 6 0 15 0;
#X connect 7 0 8 0;
#X connect 8 0 9 1;
#X connect 9 0 16 0;
#X connect 10 0 9 0;
#X connect 11 0 10 1;
#X connect 12 0 13 0;
#X connect 13 0 20 0;
#X connect 13 1 3 0;
#X connect 13 2 5 0;
#X connect 13 3 11 0;
#X connect 17 0 7 0;
#X connect 18 0 21 0;
#X connect 19 0 18 0;
#X connect 20 0 19 1;
#X restore 67 193 pd clipper-left;
#N canvas -9 -9 1920 988 clipper-right 0;
#X obj 81 20 inlet~;
#X obj 176 176 expr~ tanh($v1);
#X obj 176 143 *~;
#X obj 194 122 tgl 15 0 empty empty empty 17 7 0 10 -262144 -1 -1 0
1;
#X obj 336 140 *~;
#X obj 354 122 tgl 15 0 empty empty empty 17 7 0 10 -262144 -1 -1 0
1;
#X obj 336 163 expr~ if($v1 > 0.727 \, 0.2 * tanh((3.6 * $v1) - 3)
+ 0.8 \, if($v1 < -0.727 \, 0.2 * tanh((3.6 * $v1) + 3) - 0.8 \, $v1))
, f 30;
#X floatatom 863 116 5 0 0 0 - - -;
#X obj 863 141 sig~;
#X obj 558 168 expr~ if($v1 > $v2 || $v1 < (-1 * $v2) \, copysign(1
\, $v1) * (1 - (pow(1-$v2 \, 2)/(copysign(1 \, $v1) * $v1 - 2 * $v2
+ 1))) \, $v1), f 44;
#X obj 558 143 *~;
#X obj 576 124 tgl 15 0 empty empty empty 17 7 0 10 -262144 -1 -1 0
1;
#X obj 210 9 inlet;
#X obj 210 33 route 0 1 2 3;
#X obj 176 203 throw~ \$0-output-left;
#X obj 863 91 r \$0-linear-thresh;
#X obj 81 175 clip~ -1 1;
#X obj 81 143 *~;
#X obj 99 122 tgl 15 0 empty empty empty 17 7 0 10 -262144 -1 -1 1
1;
#X obj 81 242 throw~ \$0-output-right;
#X obj 336 246 throw~ \$0-output-right;
#X obj 558 234 throw~ \$0-output-right;
#X connect 0 0 2 0;
#X connect 0 0 4 0;
#X connect 0 0 10 0;
#X connect 0 0 17 0;
#X connect 1 0 14 0;
#X connect 2 0 1 0;
#X connect 3 0 2 1;
#X connect 4 0 6 0;
#X connect 5 0 4 1;
#X connect 6 0 20 0;
#X connect 7 0 8 0;
#X connect 8 0 9 1;
#X connect 9 0 21 0;
#X connect 10 0 9 0;
#X connect 11 0 10 1;
#X connect 12 0 13 0;
#X connect 13 0 18 0;
#X connect 13 1 3 0;
#X connect 13 2 5 0;
#X connect 13 3 11 0;
#X connect 15 0 7 0;
#X connect 16 0 19 0;
#X connect 17 0 16 0;
#X connect 18 0 17 1;
#X restore 186 193 pd clipper-right;
#X obj 294 61 t f f;
#X connect 0 0 12 0;
#X connect 1 0 13 0;
#X connect 4 0 2 0;
#X connect 5 0 3 0;
#X connect 6 0 7 0;
#X connect 7 0 12 1;
#X connect 7 0 13 1;
#X connect 8 0 14 0;
#X connect 9 0 10 0;
#X connect 10 0 11 0;
#X connect 14 0 13 1;
