#N canvas -9 -9 1920 988 12;
#X obj 85 152 gm-path-extract;
#X msg 84 33 bang;
#X obj 84 59 openpanel;
#X obj 147 93 list fromsymbol;
#X obj 147 117 print org;
#X obj 85 176 route symbol;
#X obj 85 200 t a b;
#X msg 117 227 clear;
#N canvas 0 50 450 300 \$0-dynamic-path-patch 0;
#X obj 52 40 dfsdf;
#X restore 465 134 pd \$0-dynamic-path-patch;
#X obj 84 270 s pd-\$0-dynamic-path-patch;
#X connect 0 0 5 0;
#X connect 1 0 2 0;
#X connect 2 0 3 0;
#X connect 2 0 0 0;
#X connect 3 0 4 0;
#X connect 5 0 6 0;
#X connect 6 1 7 0;
#X connect 7 0 9 0;
