#N canvas -9 -9 1920 988 12;
#X declare -path C:/Users/kumar/OneDrive/Documents/purrdata/drum-seq-rack/
;
#X obj 85 152 gm-path-extract;
#X msg 84 33 bang;
#X obj 84 59 openpanel;
#X obj 147 93 list fromsymbol;
#X obj 147 117 print org;
#X obj 85 176 route symbol;
#X msg 321 242 clear;
#N canvas 0 50 450 300 \$0-dynamic-path-patch 0;
#X obj 100 50 declare -path C:/Users/kumar/OneDrive/Documents/purrdata/drum-seq-rack/
;
#X obj 120 120 pd-uzi;
#X restore 465 134 pd \$0-dynamic-path-patch;
#X obj 85 305 s pd-\$0-dynamic-path-patch;
#X msg 108 242 obj 100 50 declare -path \$1;
#X obj 85 204 t b a b;
#X obj 224 183 print out;
#X msg 85 268 obj 120 120 pd-uzi;
#X connect 0 0 5 0;
#X connect 0 0 11 0;
#X connect 1 0 2 0;
#X connect 2 0 3 0;
#X connect 2 0 0 0;
#X connect 3 0 4 0;
#X connect 5 0 10 0;
#X connect 6 0 8 0;
#X connect 9 0 8 0;
#X connect 10 0 12 0;
#X connect 10 1 9 0;
#X connect 10 2 6 0;
#X connect 12 0 8 0;
