#N canvas -9 -9 1920 976 10;
#X obj 383 228 print mid;
#X obj 354 54 bng 15 250 50 0 empty empty empty 17 7 0 10 -262144 -1
-1;
#X msg 390 109 stop;
#X obj 460 227 midiout;
#X msg 388 82 pause;
#X msg 391 133 continue;
#X obj 519 227 print end_midi;
#X obj 355 262 midiparse;
#X obj 355 292 poly;
#X obj 356 330 pack 0 0 0;
#X obj 356 356 print;
#X obj 354 189 seq;
#X msg 384 54 read lead.mid;
#X text 461 132 <-load midi file testing;
#X connect 1 0 11 0;
#X connect 2 0 11 0;
#X connect 4 0 11 0;
#X connect 5 0 11 0;
#X connect 7 0 8 0;
#X connect 8 0 9 0;
#X connect 8 1 9 1;
#X connect 8 2 9 2;
#X connect 9 0 10 0;
#X connect 11 0 0 0;
#X connect 11 0 3 0;
#X connect 11 0 7 0;
#X connect 11 1 6 0;
#X connect 12 0 11 0;
