#N canvas -9 -9 1920 988 12;
#X declare -path ./instruments;
#X obj 1183 52 inlet;
#X obj 1076 83 unpack f s;
#X floatatom 1566 564 5 0 0 0 - - -;
#X obj 1566 543 f \$0;
#X obj 1566 510 bng 15 250 50 0 empty empty empty 17 7 0 10 -262144
-1 -1;
#X obj 192 86 s \$0-polytouch;
#X obj 1450 443 notein;
#X obj 1450 514 unpack f f;
#X floatatom 1450 538 5 0 0 0 - - -;
#X floatatom 1450 538 5 0 0 0 - - -;
#X floatatom 1517 539 5 0 0 0 - - -;
#X floatatom 1517 539 5 0 0 0 - - -;
#X obj 1450 466 pack f f;
#X obj 1362 495 print note;
#X obj 1409 560 print note-after;
#X obj 1450 490 send-on-change;
#X obj 18 444 send-on-change;
#X obj 18 419 r \$0-note;
#X obj 28 91 s \$0-note;
#X obj 19 470 list prepend note;
#X obj 19 513 list prepend;
#X obj 100 491 r \$0-channel;
#X obj 191 451 send-on-change;
#X obj 191 516 list prepend;
#X obj 273 495 r \$0-channel;
#X obj 191 426 r \$0-polytouch;
#X obj 191 473 list prepend polytouch;
#X obj 364 448 send-on-change;
#X obj 364 516 list prepend;
#X obj 445 495 r \$0-channel;
#X obj 364 474 list prepend control;
#X obj 364 423 r \$0-control;
#X obj 537 515 list prepend;
#X obj 618 494 r \$0-channel;
#X obj 537 447 change 0;
#X obj 712 513 list prepend;
#X obj 793 492 r \$0-channel;
#X obj 712 445 change 0;
#X obj 885 513 list prepend;
#X obj 966 492 r \$0-channel;
#X obj 885 445 change 0;
#X obj 537 422 r \$0-prgm;
#X obj 712 420 r \$0-aftouch;
#X obj 885 420 r \$0-pitch-bend;
#X text 1394 401 |TESTING SECTION|;
#X text 680 18 -- Program specification and change;
#X obj 537 473 list prepend prgm;
#X obj 712 470 list prepend aftouch;
#X obj 885 471 list prepend pitch-bend;
#X obj 1266 27 loadbang;
#X obj 1266 77 f 1;
#X obj 1266 101 s \$0-channel;
#X obj 1266 51 t b b, f 16;
#X obj 19 602 route 1 2 3 4 5 6 7 8 9 10 11 12 13 14 15 16, f 141
;
#X obj 142 640 channel;
#X obj 203 641 channel;
#X obj 265 640 channel;
#X obj 326 639 channel;
#X obj 388 638 channel;
#X obj 449 637 channel;
#X obj 511 638 channel;
#X obj 570 637 channel;
#X obj 634 638 channel;
#X obj 695 639 channel;
#X obj 757 639 channel;
#X obj 818 638 channel;
#X obj 880 638 channel;
#X obj 941 639 channel;
#X obj 987 115 print f;
#X obj 1172 114 print s;
#X obj 1076 214 s \$0-voice-change;
#X obj 1064 510 r \$0-voice-change;
#X obj 1076 107 t f b;
#X obj 890 234 print voice-change-1;
#X obj 1076 184 pack f s s;
#X msg 1108 138 symbol voice-change;
#X obj 19 640 channel;
#X obj 80 641 channel;
#X obj 20 680 throw~ \$0-left;
#X obj 129 681 throw~ \$0-right;
#X obj 266 682 throw~ \$0-left;
#X obj 375 683 throw~ \$0-right;
#X obj 513 680 throw~ \$0-left;
#X obj 622 681 throw~ \$0-right;
#X obj 759 680 throw~ \$0-left;
#X obj 868 681 throw~ \$0-right;
#X obj 20 748 catch~ \$0-left;
#X obj 45 773 catch~ \$0-right;
#X obj 20 802 dac~;
#X obj 27 35 notein, f 10;
#X obj 27 64 pack f f;
#X obj 94 61 s \$0-channel;
#X obj 192 34 polytouchin;
#X text 194 -16 polyphonic aftertouch, f 10;
#X obj 266 61 s \$0-channel;
#X obj 192 58 pack f f;
#X obj 370 29 ctlin, f 11;
#X text 357 9 (all controllers \, omni);
#X text 411 -15 channel/port;
#X obj 446 54 s \$0-channel;
#X obj 370 54 pack f f;
#X obj 370 78 s \$0-control;
#X obj 29 128 pgmin, f 12;
#X obj 109 152 s \$0-channel;
#X obj 29 152 s \$0-prgm;
#X obj 207 126 touchin, f 14;
#X obj 302 152 s \$0-channel;
#X obj 207 153 s \$0-aftouch;
#X obj 407 122 bendin, f 18;
#X obj 407 146 s \$0-pitch-bend;
#X obj 530 147 s \$0-channel;
#X text 634 20 TO_DO:;
#X obj 1281 171 declare -path ./instruments;
#X msg 1076 50 1 guitar;
#X connect 0 0 1 0;
#X connect 1 0 68 0;
#X connect 1 0 72 0;
#X connect 1 1 69 0;
#X connect 1 1 74 2;
#X connect 3 0 2 0;
#X connect 4 0 3 0;
#X connect 6 1 12 1;
#X connect 7 0 8 0;
#X connect 7 0 9 0;
#X connect 7 1 10 0;
#X connect 12 0 13 0;
#X connect 12 0 15 0;
#X connect 15 0 7 0;
#X connect 15 0 14 0;
#X connect 16 0 19 0;
#X connect 17 0 16 0;
#X connect 19 0 20 0;
#X connect 20 0 53 0;
#X connect 21 0 20 1;
#X connect 22 0 26 0;
#X connect 23 0 53 0;
#X connect 24 0 23 1;
#X connect 25 0 22 0;
#X connect 26 0 23 0;
#X connect 27 0 30 0;
#X connect 28 0 53 0;
#X connect 29 0 28 1;
#X connect 30 0 28 0;
#X connect 31 0 27 0;
#X connect 32 0 53 0;
#X connect 33 0 32 1;
#X connect 34 0 46 0;
#X connect 35 0 53 0;
#X connect 36 0 35 1;
#X connect 37 0 47 0;
#X connect 38 0 53 0;
#X connect 39 0 38 1;
#X connect 40 0 48 0;
#X connect 41 0 34 0;
#X connect 42 0 37 0;
#X connect 43 0 40 0;
#X connect 46 0 32 0;
#X connect 47 0 35 0;
#X connect 48 0 38 0;
#X connect 49 0 52 0;
#X connect 50 0 51 0;
#X connect 52 0 50 0;
#X connect 53 0 76 0;
#X connect 53 1 77 0;
#X connect 53 2 54 0;
#X connect 53 3 55 0;
#X connect 53 4 56 0;
#X connect 53 5 57 0;
#X connect 53 6 58 0;
#X connect 53 7 59 0;
#X connect 53 8 60 0;
#X connect 53 9 61 0;
#X connect 53 10 62 0;
#X connect 53 11 63 0;
#X connect 53 12 64 0;
#X connect 53 13 65 0;
#X connect 53 14 66 0;
#X connect 53 15 67 0;
#X connect 54 0 78 0;
#X connect 54 1 79 0;
#X connect 55 0 78 0;
#X connect 55 1 79 0;
#X connect 56 0 80 0;
#X connect 56 1 81 0;
#X connect 57 0 80 0;
#X connect 57 1 81 0;
#X connect 58 0 80 0;
#X connect 58 1 81 0;
#X connect 59 0 80 0;
#X connect 59 1 81 0;
#X connect 60 0 82 0;
#X connect 60 1 83 0;
#X connect 61 0 82 0;
#X connect 61 1 83 0;
#X connect 62 0 82 0;
#X connect 62 1 83 0;
#X connect 63 0 82 0;
#X connect 63 1 83 0;
#X connect 64 0 84 0;
#X connect 64 1 85 0;
#X connect 65 0 84 0;
#X connect 65 1 85 0;
#X connect 66 0 84 0;
#X connect 66 1 85 0;
#X connect 67 0 84 0;
#X connect 67 1 85 0;
#X connect 71 0 53 0;
#X connect 72 0 74 0;
#X connect 72 1 75 0;
#X connect 74 0 70 0;
#X connect 74 0 73 0;
#X connect 75 0 74 1;
#X connect 76 0 78 0;
#X connect 76 1 79 0;
#X connect 77 0 78 0;
#X connect 77 1 79 0;
#X connect 86 0 88 0;
#X connect 87 0 88 1;
#X connect 89 0 90 0;
#X connect 89 1 90 1;
#X connect 89 2 91 0;
#X connect 90 0 18 0;
#X connect 92 0 95 0;
#X connect 92 1 95 1;
#X connect 92 2 94 0;
#X connect 95 0 5 0;
#X connect 96 0 100 0;
#X connect 96 1 100 1;
#X connect 96 2 99 0;
#X connect 100 0 101 0;
#X connect 102 0 104 0;
#X connect 102 1 103 0;
#X connect 105 0 107 0;
#X connect 105 1 106 0;
#X connect 108 0 109 0;
#X connect 108 1 110 0;
#X connect 113 0 1 0;
