#N canvas -9 -9 1920 976 10;
#X obj 167 332 print mid;
#X msg 216 219 stop;
#X obj 231 332 midiout;
#X msg 214 196 pause;
#X msg 217 243 continue;
#X obj 285 332 print end_midi;
#X obj 156 387 midiparse;
#X obj 156 417 poly;
#X obj 154 440 pack 0 0 0;
#X obj 154 466 print;
#X obj 156 296 seq;
#X text 283 239 <-load midi file testing;
#X obj 72 27 inlet;
#X obj 72 51 symbol;
#X msg 218 265 start 1024;
#X obj 304 30 inlet;
#X obj 304 58 s \$0-loop-midi;
#X obj 286 311 s \$0-midi-end;
#X obj 62 178 r \$0-midi-end;
#X obj 62 220 spigot;
#X obj 95 199 r \$0-loop-midi;
#X msg 210 146 read \$1;
#X obj 184 28 inlet;
#X obj 184 59 s \$0-play-midi;
#X obj 72 78 s \$0-file-name;
#X obj 210 118 r \$0-file-name;
#X obj 212 173 r \$0-play-midi;
#X obj 156 362 outlet;
#X connect 1 0 10 0;
#X connect 3 0 10 0;
#X connect 4 0 10 0;
#X connect 6 0 7 0;
#X connect 7 0 8 0;
#X connect 7 1 8 1;
#X connect 7 2 8 2;
#X connect 8 0 9 0;
#X connect 10 0 0 0;
#X connect 10 0 2 0;
#X connect 10 0 27 0;
#X connect 10 1 5 0;
#X connect 10 1 17 0;
#X connect 12 0 13 0;
#X connect 13 0 24 0;
#X connect 14 0 10 0;
#X connect 15 0 16 0;
#X connect 18 0 19 0;
#X connect 19 0 10 0;
#X connect 20 0 19 1;
#X connect 21 0 10 0;
#X connect 22 0 23 0;
#X connect 25 0 21 0;
#X connect 26 0 10 0;
