#N canvas 1912 43 1840 922 12;
#X msg 258 147 lead.mid;
#X obj 514 156 tgl 15 0 empty empty empty 17 7 0 10 -262144 -1 -1 0
1;
#X obj 322 107 bng 15 250 50 0 empty empty empty 17 7 0 10 -262144
-1 -1;
#X floatatom 258 219 5 0 0 0 - - -;
#X text 533 157 <-loop toggle;
#X text 270 91 play button;
#X obj 258 181 midi-load, f 37;
#X obj 386 126 vradio 15 1 0 3 empty empty empty 0 -8 0 10 -262144
-1 -1 0;
#X obj 450 37 vsl 15 128 256 4096 0 0 empty empty empty 0 -9 0 10 -262144
-1 -1 12100 0;
#X connect 0 0 6 0;
#X connect 1 0 6 4;
#X connect 2 0 6 1;
#X connect 6 0 3 0;
#X connect 7 0 6 2;
#X connect 8 0 6 3;
