#N canvas -9 -9 1920 976 12;
#X obj 258 181 load, f 22;
#X msg 258 147 lead.mid;
#X obj 409 150 tgl 15 0 empty empty empty 17 7 0 10 -262144 -1 -1 0
1;
#X obj 334 148 bng 15 250 50 0 empty empty empty 17 7 0 10 -262144
-1 -1;
#X floatatom 258 219 5 0 0 0 - - -;
#X text 429 147 <-loop toggle;
#X text 335 130 play button;
#X connect 0 0 4 0;
#X connect 1 0 0 0;
#X connect 2 0 0 2;
#X connect 3 0 0 1;
