#N canvas -9 -9 1920 976 10;
#X msg 476 203 stop;
#X msg 425 203 pause;
#X msg 520 202 continue;
#X obj 174 309 seq;
#X text 211 305 <-load midi file testing;
#X obj 41 25 inlet;
#X obj 41 64 symbol;
#X msg 80 284 start 1024;
#X obj 699 20 inlet;
#X obj 699 48 s \$0-loop-midi;
#X obj 217 350 s \$0-midi-end;
#X obj 173 156 r \$0-midi-end;
#X obj 173 201 spigot;
#X obj 206 180 r \$0-loop-midi;
#X msg 305 175 read \$1;
#X obj 212 24 inlet;
#X obj 41 85 s \$0-file-name;
#X obj 305 152 r \$0-file-name;
#X obj 174 351 outlet;
#X text 739 29 <-Toggle based midi-looping;
#X text 218 45 <-bang inlet to start midi-stream;
#X text 48 43 <-Input file name message;
#X obj 304 349 print midi-iteration-complete;
#X obj 423 24 inlet;
#X obj 423 69 sel 0 1 2;
#X obj 212 68 s \$0-stream-bang;
#X obj 307 202 r \$0-stream-bang;
#X text 429 45 <-midi-play-controls;
#X obj 563 20 inlet;
#X obj 563 68 s \$0-playback-speed;
#X text 6 262 playback-speed stuff here;
#X connect 0 0 3 0;
#X connect 1 0 3 0;
#X connect 2 0 3 0;
#X connect 3 0 18 0;
#X connect 3 1 10 0;
#X connect 3 1 22 0;
#X connect 5 0 6 0;
#X connect 6 0 16 0;
#X connect 7 0 3 0;
#X connect 8 0 9 0;
#X connect 11 0 12 0;
#X connect 12 0 3 0;
#X connect 13 0 12 1;
#X connect 14 0 3 0;
#X connect 15 0 25 0;
#X connect 17 0 14 0;
#X connect 23 0 24 0;
#X connect 24 0 1 0;
#X connect 24 1 0 0;
#X connect 24 2 2 0;
#X connect 26 0 3 0;
#X connect 28 0 29 0;
