#N canvas 1912 43 1840 922 12;
#X obj 37 31 inlet;
#X obj 37 54 cyclone/midiparse @hires 2, f 31;
#X obj 760 27 inlet;
#X obj 760 68 unpack f s;
#X msg 18 426 vis 4 1;
#X floatatom 1323 583 5 0 0 0 - - -;
#X obj 1323 562 f \$0;
#X obj 1323 529 bng 15 250 50 0 empty empty empty 17 7 0 10 -262144
-1 -1;
#X obj 73 186 s \$0-polytouch;
#X obj 109 164 s \$0-control;
#X obj 144 142 s \$0-prgm;
#X obj 180 120 s \$0-aftouch;
#X obj 215 99 s \$0-pitch-bend;
#X obj 130 467 clone -s 1 channel 16;
#X obj 1207 462 notein;
#X obj 1207 533 unpack f f;
#X floatatom 1207 557 5 0 0 0 - - -;
#X floatatom 1207 557 5 0 0 0 - - -;
#X floatatom 1274 558 5 0 0 0 - - -;
#X floatatom 1274 558 5 0 0 0 - - -;
#X obj 1207 485 pack f f;
#X obj 1119 514 print note;
#X obj 1166 579 print note-after;
#X obj 1207 509 send-on-change;
#X obj 1 277 send-on-change;
#X obj 251 77 s \$0-channel;
#X obj 1 252 r \$0-note;
#X obj 37 207 s \$0-note;
#X obj 2 303 list prepend note;
#X obj 2 346 list prepend;
#X obj 83 324 r \$0-channel;
#X obj 172 284 send-on-change;
#X obj 174 353 list prepend;
#X obj 254 331 r \$0-channel;
#X obj 172 259 r \$0-polytouch;
#X obj 174 310 list prepend polytouch;
#X obj 345 281 send-on-change;
#X obj 345 349 list prepend;
#X obj 426 328 r \$0-channel;
#X obj 345 307 list prepend control;
#X obj 345 256 r \$0-control;
#X obj 518 348 list prepend;
#X obj 599 327 r \$0-channel;
#X obj 518 280 change 0;
#X obj 693 346 list prepend;
#X obj 774 325 r \$0-channel;
#X obj 693 278 change 0;
#X obj 866 346 list prepend;
#X obj 947 325 r \$0-channel;
#X obj 866 278 change 0;
#X obj 518 255 r \$0-prgm;
#X obj 693 253 r \$0-aftouch;
#X obj 866 253 r \$0-pitch-bend;
#X text 1151 420 |TESTING SECTION|;
#X text 426 44 -- Program specification and change;
#X text 379 29 TO_DO: -- Make midi-parser for vanilla;
#X obj 518 306 list prepend prgm;
#X obj 693 304 list prepend aftouch;
#X obj 866 304 list prepend pitch-bend;
#X connect 0 0 1 0;
#X connect 1 0 27 0;
#X connect 1 1 8 0;
#X connect 1 2 9 0;
#X connect 1 3 10 0;
#X connect 1 4 11 0;
#X connect 1 5 12 0;
#X connect 1 6 25 0;
#X connect 2 0 3 0;
#X connect 6 0 5 0;
#X connect 7 0 6 0;
#X connect 14 0 20 0;
#X connect 14 1 20 1;
#X connect 15 0 16 0;
#X connect 15 0 17 0;
#X connect 15 1 18 0;
#X connect 20 0 21 0;
#X connect 20 0 23 0;
#X connect 23 0 15 0;
#X connect 23 0 22 0;
#X connect 24 0 28 0;
#X connect 26 0 24 0;
#X connect 28 0 29 0;
#X connect 29 0 13 0;
#X connect 30 0 29 1;
#X connect 31 0 35 0;
#X connect 32 0 13 0;
#X connect 33 0 32 1;
#X connect 34 0 31 0;
#X connect 35 0 32 0;
#X connect 36 0 39 0;
#X connect 37 0 13 0;
#X connect 38 0 37 1;
#X connect 39 0 37 0;
#X connect 40 0 36 0;
#X connect 41 0 13 0;
#X connect 42 0 41 1;
#X connect 43 0 56 0;
#X connect 44 0 13 0;
#X connect 45 0 44 1;
#X connect 46 0 57 0;
#X connect 47 0 13 0;
#X connect 48 0 47 1;
#X connect 49 0 58 0;
#X connect 50 0 43 0;
#X connect 51 0 46 0;
#X connect 52 0 49 0;
#X connect 56 0 41 0;
#X connect 57 0 44 0;
#X connect 58 0 47 0;
