#N canvas -9 -9 1920 976 12;
#X obj 217 140 inlet;
#X obj 214 178 cyclone/midiparse @hires 2, f 57;
#X obj 922 175 inlet;
#X obj 922 216 unpack f s;
#X msg 99 432 vis 4 1;
#X floatatom 545 490 5 0 0 0 - - -;
#X obj 545 469 f \$0;
#X obj 545 436 bng 15 250 50 0 empty empty empty 17 7 0 10 -262144
-1 -1;
#X text 578 144 TO_DO: make midi-parser for vanilla;
#X obj 229 494 clone -s 1 channel 4 \$0;
#X obj 214 342 s \$0-notein;
#X obj 280 321 s \$0-polytouch;
#X obj 346 298 s \$0-control;
#X obj 412 275 s \$0-prgm;
#X obj 478 256 s \$0-aftouch;
#X obj 544 237 s \$0-pitch-bend;
#X obj 610 214 s \$0-channel;
#X obj 229 416 r \$0-channel;
#X obj 229 451 pack f f;
#X obj 328 417 f \$0;
#X obj 54 247 notein;
#X text 737 366 TO-FIX: Send midi data per clone;
#X connect 0 0 1 0;
#X connect 1 0 10 0;
#X connect 1 1 11 0;
#X connect 1 2 12 0;
#X connect 1 3 13 0;
#X connect 1 4 14 0;
#X connect 1 5 15 0;
#X connect 1 6 16 0;
#X connect 2 0 3 0;
#X connect 4 0 9 0;
#X connect 6 0 5 0;
#X connect 7 0 6 0;
#X connect 17 0 18 0;
#X connect 18 0 9 0;
#X connect 19 0 18 1;
#X connect 20 0 10 0;
