#N canvas -9 -9 1920 976 12;
#X obj 122 17 inlet;
#X obj 123 67 unpack f f, f 16;
#X obj 233 175 change 0;
#X obj 146 141 change 0;
#X obj 122 295 pack f f, f 29;
#X obj 122 319 outlet;
#X obj 122 272 f 0;
#X obj 146 165 t b f;
#X obj 233 197 t b f;
#X msg 241 126 clear;
#X obj 233 91 t f b f, f 13;
#X obj 123 222 bangonbang;
#X obj 123 94 t b f f;
#X obj 241 150 s \$0-clear;
#X obj 47 180 r \$0-clear;
#X obj 158 118 s \$0-float;
#X obj 140 249 r \$0-float;
#X text 445 119 Inlet: List of 2 floats Outlet: List of 2 floats Functionality:
Output the list only if atleast one or more value is different than
the previous transmitted value. The default initialised value being
[0 0];
#X connect 0 0 1 0;
#X connect 1 0 12 0;
#X connect 1 1 10 0;
#X connect 2 0 8 0;
#X connect 3 0 7 0;
#X connect 4 0 5 0;
#X connect 6 0 4 0;
#X connect 7 0 11 1;
#X connect 8 0 11 1;
#X connect 9 0 13 0;
#X connect 10 0 2 0;
#X connect 10 1 9 0;
#X connect 10 2 4 1;
#X connect 11 0 6 0;
#X connect 12 0 11 0;
#X connect 12 1 3 0;
#X connect 12 2 15 0;
#X connect 14 0 11 0;
#X connect 16 0 6 1;
