#N canvas -9 -9 1920 976 12;
#X obj 68 31 inlet;
#X obj 68 64 unpack f f;
#X obj 134 135 change 0;
#X obj 68 134 change 0;
#X obj 68 255 pack f f;
#X obj 68 279 outlet;
#X obj 68 224 f 0;
#X obj 68 159 t b f;
#X obj 134 156 t b f;
#X obj 104 225 spigot;
#X msg 141 112 clear;
#X obj 134 86 t f b f;
#X obj 68 88 t b f;
#X obj 68 196 bangonbang;
#X connect 0 0 1 0;
#X connect 1 0 6 1;
#X connect 1 0 12 0;
#X connect 1 1 11 0;
#X connect 2 0 8 0;
#X connect 3 0 7 0;
#X connect 4 0 5 0;
#X connect 6 0 4 0;
#X connect 7 0 13 1;
#X connect 8 0 13 1;
#X connect 10 0 13 0;
#X connect 11 0 2 0;
#X connect 11 1 10 0;
#X connect 11 2 4 1;
#X connect 12 0 13 0;
#X connect 12 1 3 0;
#X connect 13 0 6 0;
