#N canvas -9 -9 1920 988 12;
#X obj 665 39 inlet;
#N canvas 0 0 1920 976 midi-parsing 0;
#X obj 37 37 inlet;
#X obj 37 105 s \$0-note;
#X obj 196 105 unpack f f;
#X obj 196 158 pack f f, f 10;
#N canvas 420 126 450 300 vel-norm 0;
#X obj 11 8 inlet;
#X obj 11 56 outlet;
#X obj 11 32 * 0.007874;
#X connect 0 0 2 0;
#X connect 2 0 1 0;
#X restore 263 130 pd vel-norm;
#X obj 196 182 s \$0-note-vel-norm;
#X obj 37 78 t l l l, f 46;
#X obj 356 102 unpack f f;
#X obj 356 127 t b;
#X obj 423 125 > 0;
#X obj 356 153 spigot;
#X obj 356 177 s \$2-switch-on-\$3-\$1;
#X connect 0 0 6 0;
#X connect 2 0 3 0;
#X connect 2 1 4 0;
#X connect 3 0 5 0;
#X connect 4 0 3 1;
#X connect 6 0 1 0;
#X connect 6 1 2 0;
#X connect 6 2 7 0;
#X connect 7 0 8 0;
#X connect 7 1 9 0;
#X connect 8 0 10 0;
#X connect 9 0 10 1;
#X connect 10 0 11 0;
#X restore 665 88 pd midi-parsing;
#X obj 104 14 r \$0-note-vel-norm;
#X obj 31 62 print vel;
#X obj 753 134 loadbang;
#X obj 532 55 print in-bell;
#X obj 104 260 throw~ \$2-output-left-\$3;
#X obj 192 238 throw~ \$2-output-right-\$3;
#N canvas -9 -9 1920 988 bell-voice 0;
#X obj 198 219 line~;
#X obj 198 155 del 50;
#X obj 23 58 unpack f f, f 18;
#X obj 23 82 mtof;
#N canvas 1 1 1900 968 bell~ 0;
#X obj 96 130 osc~;
#X obj 221 145 osc~;
#X floatatom 1076 41 5 0 0 0 - - -;
#X obj 96 98 * 0.5;
#X obj 369 153 osc~;
#X obj 369 125 * 1.2;
#X obj 496 129 * 1.5;
#X obj 645 151 osc~;
#X obj 784 134 osc~;
#X obj 645 123 * 2;
#X obj 784 106 * 2.5;
#X obj 929 147 osc~;
#X obj 929 119 * 3;
#X obj 135 175 vsl 15 128 0 1 0 0 empty empty empty 0 -9 0 10 -262144
-1 -1 8890 1;
#X obj 92 302 *~;
#X obj 282 168 vsl 15 128 0 1 0 0 empty empty empty 0 -9 0 10 -262144
-1 -1 7620 1;
#X obj 222 296 *~;
#X obj 415 162 vsl 15 128 0 1 0 0 empty empty empty 0 -9 0 10 -262144
-1 -1 3810 1;
#X obj 368 280 *~;
#X obj 558 160 vsl 15 128 0 1 0 0 empty empty empty 0 -9 0 10 -262144
-1 -1 3810 1;
#X obj 498 287 *~;
#X obj 699 150 vsl 15 128 0 1 0 0 empty empty empty 0 -9 0 10 -262144
-1 -1 3810 1;
#X obj 644 277 *~;
#X obj 840 144 vsl 15 128 0 1 0 0 empty empty empty 0 -9 0 10 -262144
-1 -1 3810 1;
#X obj 786 270 *~;
#X obj 971 163 vsl 15 128 0 1 0 0 empty empty empty 0 -9 0 10 -262144
-1 -1 3810 1;
#X obj 929 283 *~;
#X obj 496 157 osc~;
#X obj 1077 13 inlet;
#X obj 91 492 outlet~;
#X obj 96 71 r \$0-freq;
#X obj 369 96 r \$0-freq;
#X obj 221 116 r \$0-freq;
#X obj 496 100 r \$0-freq;
#X obj 645 96 r \$0-freq;
#X obj 783 71 r \$0-freq;
#X obj 929 86 r \$0-freq;
#X obj 135 144 r \$0-gain1;
#X obj 282 140 r \$0-gain2;
#X obj 414 135 r \$0-gain3;
#X obj 558 124 r \$0-gain4;
#X obj 699 120 r \$0-gain5;
#X obj 840 112 r \$0-gain6;
#X obj 968 117 r \$0-gain7;
#X obj 1203 59 loadbang;
#X obj 1203 83 f \$0;
#X msg 1203 107 \; \$1-gain1 0.7 \; \$1-gain2 0.6 \; \$1-gain3 0.3
\; \$1-gain4 0.3 \; \$1-gain5 0.3 \; \$1-gain6 0.3 \; \$1-gain7 0.3
;
#X obj 1297 39 bng 15 250 50 0 empty empty empty 17 7 0 10 -262144
-1 -1;
#X obj 1076 64 s \$0-freq;
#X obj 1290 377 block~ 1;
#X connect 0 0 14 0;
#X connect 1 0 16 0;
#X connect 2 0 48 0;
#X connect 3 0 0 0;
#X connect 4 0 18 0;
#X connect 5 0 4 0;
#X connect 6 0 27 0;
#X connect 7 0 22 0;
#X connect 8 0 24 0;
#X connect 9 0 7 0;
#X connect 10 0 8 0;
#X connect 11 0 26 0;
#X connect 12 0 11 0;
#X connect 13 0 14 1;
#X connect 14 0 29 0;
#X connect 15 0 16 1;
#X connect 16 0 29 0;
#X connect 17 0 18 1;
#X connect 18 0 29 0;
#X connect 19 0 20 1;
#X connect 20 0 29 0;
#X connect 21 0 22 1;
#X connect 22 0 29 0;
#X connect 23 0 24 1;
#X connect 24 0 29 0;
#X connect 25 0 26 1;
#X connect 26 0 29 0;
#X connect 27 0 20 0;
#X connect 28 0 2 0;
#X connect 30 0 3 0;
#X connect 31 0 5 0;
#X connect 32 0 1 0;
#X connect 33 0 6 0;
#X connect 34 0 9 0;
#X connect 35 0 10 0;
#X connect 36 0 12 0;
#X connect 37 0 13 0;
#X connect 38 0 15 0;
#X connect 39 0 17 0;
#X connect 40 0 19 0;
#X connect 41 0 21 0;
#X connect 42 0 23 0;
#X connect 43 0 25 0;
#X connect 44 0 45 0;
#X connect 45 0 46 0;
#X connect 47 0 45 0;
#X restore 22 158 pd bell~;
#X obj 22 182 /~ 7;
#X obj 198 131 t b f, f 11;
#X obj 145 83 sel 0, f 8;
#X obj 22 241 *~;
#X msg 272 172 \$1 1;
#X msg 198 179 0 1000;
#X obj 323 143 print sel-out;
#X msg 145 107 0 500;
#X obj 23 23 inlet;
#X obj 22 279 outlet~;
#X obj 110 279 outlet~;
#X connect 0 0 8 1;
#X connect 1 0 10 0;
#X connect 2 0 3 0;
#X connect 2 1 7 0;
#X connect 3 0 4 0;
#X connect 4 0 5 0;
#X connect 5 0 8 0;
#X connect 6 0 1 0;
#X connect 6 1 9 0;
#X connect 6 1 11 0;
#X connect 7 0 12 0;
#X connect 7 1 6 0;
#X connect 8 0 14 0;
#X connect 8 0 15 0;
#X connect 9 0 0 0;
#X connect 10 0 0 0;
#X connect 12 0 0 0;
#X connect 13 0 2 0;
#X restore 104 40 pd bell-voice;
#N canvas -9 -9 1920 988 ramps 0;
#X obj 62 278 *~;
#X obj 129 247 line~;
#X msg 129 202 1 5;
#X msg 168 207 0 5;
#X obj 168 179 loadbang;
#X obj 129 156 r \$0-ramp-up;
#X obj 232 180 r \$0-ramp-down;
#X obj 376 269 *~;
#X obj 443 238 line~;
#X msg 443 193 1 5;
#X msg 482 198 0 5;
#X obj 482 170 loadbang;
#X obj 443 147 r \$0-ramp-up;
#X obj 546 171 r \$0-ramp-down;
#X obj 377 202 inlet~;
#X obj 375 311 outlet~;
#X obj 63 215 inlet~;
#X obj 62 317 outlet~;
#X connect 0 0 17 0;
#X connect 1 0 0 1;
#X connect 2 0 1 0;
#X connect 3 0 1 0;
#X connect 4 0 3 0;
#X connect 5 0 2 0;
#X connect 6 0 3 0;
#X connect 7 0 15 0;
#X connect 8 0 7 1;
#X connect 9 0 8 0;
#X connect 10 0 8 0;
#X connect 11 0 10 0;
#X connect 12 0 9 0;
#X connect 13 0 10 0;
#X connect 14 0 7 0;
#X connect 16 0 0 0;
#X restore 104 209 pd ramps;
#X f 13;
#X obj 409 210 t b b, f 16;
#X msg 518 234 1;
#X obj 518 262 switch~;
#X obj 557 209 t b b, f 11;
#X msg 557 233 0;
#X obj 631 232 s \$0-ramp-down;
#X obj 409 235 s \$0-ramp-up;
#X obj 409 186 r \$2-switch-on-\$3-\$1;
#X obj 557 185 r \$2-switch-off-\$3-\$1;
#X obj 805 204 v \$0-env-state;
#X msg 805 180 0;
#N canvas 0 50 450 459 check-voice-availability 0;
#X obj 37 37 inlet;
#X obj 37 208 outlet;
#X obj 37 61 t a b, f 8;
#X obj 90 85 v \$0-env-state;
#X obj 37 115 list prepend;
#X obj 37 139 route 0 1, f 12;
#N canvas -9 -9 1920 988 backtrack-note 0;
#X obj 19 10 inlet;
#X obj 19 34 unpack f f;
#X obj 19 229 outlet;
#X obj 118 83 > 0;
#X obj 86 58 t f f;
#X obj 19 98 pack f f;
#X obj 19 132 list prepend;
#X obj 49 181 list prepend \$3;
#X obj 49 206 s \$2-note-back;
#X obj 19 156 route 0 1;
#X connect 0 0 1 0;
#X connect 1 0 5 0;
#X connect 1 1 4 0;
#X connect 3 0 6 1;
#X connect 4 0 5 1;
#X connect 4 1 3 0;
#X connect 5 0 6 0;
#X connect 6 0 9 0;
#X connect 7 0 8 0;
#X connect 9 0 2 0;
#X connect 9 1 7 0;
#X restore 77 164 pd backtrack-note;
#X connect 0 0 2 0;
#X connect 2 0 4 0;
#X connect 2 1 3 0;
#X connect 3 0 4 1;
#X connect 4 0 5 0;
#X connect 5 0 1 0;
#X connect 5 1 6 0;
#X connect 6 0 1 0;
#X restore 665 63 pd check-voice-availability;
#X obj 753 158 t b b, f 8;
#X obj 753 227 s \$2-switch-off-\$3-\$1;
#N canvas -9 -9 1920 988 envelope-switch 0;
#X obj 26 34 /~ 2;
#X obj 26 59 env~ 16384 8192;
#X obj 26 85 moses 10, f 16;
#X obj 26 187 v \$0-env-state;
#X msg 26 134 0;
#X msg 136 156 1;
#X obj 26 4 inlet~;
#X obj 98 5 inlet~;
#X obj 26 109 t b b, f 8;
#X obj 79 132 s \$2-switch-off-\$3-\$1;
#X connect 0 0 1 0;
#X connect 1 0 2 0;
#X connect 2 0 8 0;
#X connect 2 1 5 0;
#X connect 4 0 3 0;
#X connect 5 0 3 0;
#X connect 6 0 0 0;
#X connect 7 0 0 0;
#X connect 8 0 4 0;
#X connect 8 1 9 0;
#X restore 232 99 pd envelope-switch;
#X connect 0 0 5 0;
#X connect 0 0 21 0;
#X connect 2 0 3 0;
#X connect 2 0 8 0;
#X connect 4 0 22 0;
#X connect 8 0 9 0;
#X connect 8 0 24 0;
#X connect 8 1 9 1;
#X connect 8 1 24 1;
#X connect 9 0 6 0;
#X connect 9 1 7 0;
#X connect 10 0 16 0;
#X connect 10 1 11 0;
#X connect 11 0 12 0;
#X connect 13 0 14 0;
#X connect 13 1 15 0;
#X connect 14 0 12 0;
#X connect 17 0 10 0;
#X connect 18 0 13 0;
#X connect 20 0 19 0;
#X connect 21 0 1 0;
#X connect 22 0 23 0;
#X connect 22 1 20 0;
