#N canvas -9 -9 1920 988 12;
#X obj 53 18 inlet;
#N canvas -9 -9 1920 988 midi-parsing 0;
#X obj 37 37 inlet;
#X obj 37 105 s \$0-note;
#X obj 156 302 unpack f f;
#X obj 156 355 pack f f, f 10;
#N canvas 420 126 450 300 vel-norm 0;
#X obj 11 8 inlet;
#X obj 11 56 outlet;
#X obj 11 32 * 0.007874;
#X connect 0 0 2 0;
#X connect 2 0 1 0;
#X restore 223 327 pd vel-norm;
#X obj 156 379 s \$0-note-vel-norm;
#X obj 399 101 unpack f f;
#X obj 399 126 t b;
#X obj 466 124 > 0;
#X obj 399 152 spigot, f 10;
#X obj 399 176 s \$2-switch-on-\$3-\$1;
#X obj 37 78 t l l l l, f 52;
#X obj 278 129 mtof;
#X obj 278 300 throw~ \$0-freq;
#X obj 278 103 unpack f f;
#X obj 278 177 line~;
#X msg 278 153 \$1 5;
#X obj 315 406 outlet~;
#N canvas -9 -9 1920 988 vel-norm 0;
#X obj 11 8 inlet;
#X obj 11 62 * 0.007874;
#X obj 11 90 s \$0-vel-norm;
#X obj 11 32 t f f, f 17;
#X obj 127 90 s \$0-vel;
#X connect 0 0 3 0;
#X connect 1 0 2 0;
#X connect 3 0 1 0;
#X connect 3 1 4 0;
#X restore 345 229 pd vel-norm;
#X connect 0 0 11 0;
#X connect 2 0 3 0;
#X connect 2 1 4 0;
#X connect 3 0 5 0;
#X connect 4 0 3 1;
#X connect 6 0 7 0;
#X connect 6 1 8 0;
#X connect 7 0 9 0;
#X connect 8 0 9 1;
#X connect 9 0 10 0;
#X connect 11 0 1 0;
#X connect 11 1 2 0;
#X connect 11 2 14 0;
#X connect 11 3 6 0;
#X connect 12 0 16 0;
#X connect 14 0 12 0;
#X connect 14 1 18 0;
#X connect 15 0 13 0;
#X connect 15 0 17 0;
#X connect 16 0 15 0;
#X restore 53 67 pd midi-parsing;
#X obj 53 314 throw~ \$2-output-left-\$3;
#X obj 141 289 throw~ \$2-output-right-\$3;
#N canvas 1 1 1900 968 bell-voice 0;
#X obj 100 192 line~;
#X obj 153 133 del 50;
#N canvas 1 1 1900 968 bell~ 0;
#X obj 95 246 osc~;
#X obj 220 261 osc~;
#X obj 368 269 osc~;
#X obj 644 267 osc~;
#X obj 783 250 osc~;
#X obj 931 234 osc~;
#X obj 134 291 vsl 15 128 0 1 0 0 empty empty empty 0 -9 0 10 -262144
-1 -1 8890 1;
#X obj 91 418 *~;
#X obj 281 284 vsl 15 128 0 1 0 0 empty empty empty 0 -9 0 10 -262144
-1 -1 7620 1;
#X obj 221 412 *~;
#X obj 414 278 vsl 15 128 0 1 0 0 empty empty empty 0 -9 0 10 -262144
-1 -1 3810 1;
#X obj 367 396 *~;
#X obj 557 276 vsl 15 128 0 1 0 0 empty empty empty 0 -9 0 10 -262144
-1 -1 3810 1;
#X obj 497 403 *~;
#X obj 698 266 vsl 15 128 0 1 0 0 empty empty empty 0 -9 0 10 -262144
-1 -1 3810 1;
#X obj 643 393 *~;
#X obj 839 260 vsl 15 128 0 1 0 0 empty empty empty 0 -9 0 10 -262144
-1 -1 3810 1;
#X obj 785 386 *~;
#X obj 973 250 vsl 15 128 0 1 0 0 empty empty empty 0 -9 0 10 -262144
-1 -1 3810 1;
#X obj 931 370 *~;
#X obj 495 273 osc~;
#X obj 90 608 outlet~;
#X obj 134 260 r \$0-gain1;
#X obj 281 256 r \$0-gain2;
#X obj 413 251 r \$0-gain3;
#X obj 557 240 r \$0-gain4;
#X obj 698 236 r \$0-gain5;
#X obj 839 228 r \$0-gain6;
#X obj 970 204 r \$0-gain7;
#X obj 1203 59 loadbang;
#X obj 1203 83 f \$0;
#X msg 1203 107 \; \$1-gain1 0.7 \; \$1-gain2 0.6 \; \$1-gain3 0.3
\; \$1-gain4 0.3 \; \$1-gain5 0.3 \; \$1-gain6 0.3 \; \$1-gain7 0.3
;
#X obj 1297 39 bng 15 250 50 0 empty empty empty 17 7 0 10 -262144
-1 -1;
#X obj 95 214 *~ 0.5;
#X obj 368 241 *~ 1.2;
#X obj 495 243 *~ 1.5;
#X obj 644 239 *~ 2;
#X obj 783 222 *~ 2.5;
#X obj 931 206 *~ 3;
#X obj 94 35 inlet~;
#X connect 0 0 7 0;
#X connect 1 0 9 0;
#X connect 2 0 11 0;
#X connect 3 0 15 0;
#X connect 4 0 17 0;
#X connect 5 0 19 0;
#X connect 6 0 7 1;
#X connect 7 0 21 0;
#X connect 8 0 9 1;
#X connect 9 0 21 0;
#X connect 10 0 11 1;
#X connect 11 0 21 0;
#X connect 12 0 13 1;
#X connect 13 0 21 0;
#X connect 14 0 15 1;
#X connect 15 0 21 0;
#X connect 16 0 17 1;
#X connect 17 0 21 0;
#X connect 18 0 19 1;
#X connect 19 0 21 0;
#X connect 20 0 13 0;
#X connect 22 0 6 0;
#X connect 23 0 8 0;
#X connect 24 0 10 0;
#X connect 25 0 12 0;
#X connect 26 0 14 0;
#X connect 27 0 16 0;
#X connect 28 0 18 0;
#X connect 29 0 30 0;
#X connect 30 0 31 0;
#X connect 32 0 30 0;
#X connect 33 0 0 0;
#X connect 34 0 2 0;
#X connect 35 0 20 0;
#X connect 36 0 3 0;
#X connect 37 0 4 0;
#X connect 38 0 5 0;
#X connect 39 0 33 0;
#X connect 39 0 1 0;
#X connect 39 0 34 0;
#X connect 39 0 35 0;
#X connect 39 0 36 0;
#X connect 39 0 37 0;
#X connect 39 0 38 0;
#X restore 22 57 pd bell~;
#X obj 22 81 /~ 7;
#X obj 153 109 t b f, f 11;
#X obj 100 61 sel 0, f 8;
#X obj 22 241 *~;
#X msg 227 150 \$1 1;
#X msg 153 157 0 1000;
#X obj 278 121 print sel-out;
#X msg 100 85 0 500;
#X obj 22 279 outlet~;
#X obj 110 279 outlet~;
#X obj 23 22 inlet~;
#X obj 100 32 r \$0-vel-norm;
#X connect 0 0 6 1;
#X connect 1 0 8 0;
#X connect 2 0 3 0;
#X connect 3 0 6 0;
#X connect 4 1 7 0;
#X connect 4 1 9 0;
#X connect 5 0 10 0;
#X connect 5 1 4 0;
#X connect 6 0 11 0;
#X connect 6 0 12 0;
#X connect 7 0 0 0;
#X connect 8 0 0 0;
#X connect 10 0 0 0;
#X connect 13 0 2 0;
#X connect 14 0 5 0;
#X restore 53 94 pd bell-voice;
#N canvas -9 -9 1920 988 ramps 0;
#X obj 62 278 *~;
#X obj 129 247 line~;
#X msg 168 207 0 5;
#X obj 168 179 loadbang;
#X obj 129 156 r \$0-ramp-up;
#X obj 232 180 r \$0-ramp-down;
#X obj 376 269 *~;
#X obj 443 238 line~;
#X msg 482 198 0 5;
#X obj 482 170 loadbang;
#X obj 443 147 r \$0-ramp-up;
#X obj 546 171 r \$0-ramp-down;
#X obj 377 202 inlet~;
#X obj 375 311 outlet~;
#X obj 63 215 inlet~;
#X obj 62 317 outlet~;
#X msg 129 202 1 2;
#X msg 443 193 1 2;
#X connect 0 0 15 0;
#X connect 1 0 0 1;
#X connect 2 0 1 0;
#X connect 3 0 2 0;
#X connect 4 0 16 0;
#X connect 5 0 2 0;
#X connect 6 0 13 0;
#X connect 7 0 6 1;
#X connect 8 0 7 0;
#X connect 9 0 8 0;
#X connect 10 0 17 0;
#X connect 11 0 8 0;
#X connect 12 0 6 0;
#X connect 14 0 0 0;
#X connect 16 0 1 0;
#X connect 17 0 7 0;
#X restore 53 263 pd ramps;
#X f 13;
#N canvas 0 50 450 459 check-voice-availability 0;
#X obj 37 37 inlet;
#X obj 37 208 outlet;
#X obj 37 61 t a b, f 12;
#X obj 118 89 v \$0-env-state;
#X obj 37 115 list prepend;
#X obj 37 139 route 0 1, f 12;
#N canvas -9 -9 1920 988 backtrack-note 0;
#X obj 19 10 inlet;
#X obj 19 34 unpack f f;
#X obj 19 229 outlet;
#X obj 118 83 > 0;
#X obj 86 58 t f f;
#X obj 19 98 pack f f;
#X obj 19 132 list prepend;
#X obj 49 181 list prepend \$3;
#X obj 49 206 s \$2-note-back;
#X obj 19 156 route 0 1;
#X connect 0 0 1 0;
#X connect 1 0 5 0;
#X connect 1 1 4 0;
#X connect 3 0 6 1;
#X connect 4 0 5 1;
#X connect 4 1 3 0;
#X connect 5 0 6 0;
#X connect 6 0 9 0;
#X connect 7 0 8 0;
#X connect 9 0 2 0;
#X connect 9 1 7 0;
#X restore 77 164 pd backtrack-note;
#X connect 0 0 2 0;
#X connect 2 0 4 0;
#X connect 2 1 3 0;
#X connect 3 0 4 1;
#X connect 4 0 5 0;
#X connect 5 0 1 0;
#X connect 5 1 6 0;
#X connect 6 0 1 0;
#X restore 53 43 pd check-voice-availability;
#N canvas -9 -9 1920 988 envelope-switch 0;
#X obj 26 34 /~ 2;
#X obj 26 85 moses 10, f 16;
#X obj 26 187 v \$0-env-state;
#X msg 26 134 0;
#X msg 293 135 1;
#X obj 26 4 inlet~;
#X obj 98 5 inlet~;
#X obj 26 109 t b b, f 8;
#X obj 79 132 s \$2-switch-off-\$3-\$1;
#X obj 26 59 env~ 1024 512;
#X connect 0 0 9 0;
#X connect 1 0 7 0;
#X connect 1 1 4 0;
#X connect 3 0 2 0;
#X connect 4 0 2 0;
#X connect 5 0 0 0;
#X connect 6 0 0 0;
#X connect 7 0 3 0;
#X connect 7 1 8 0;
#X connect 9 0 1 0;
#X restore 155 139 pd envelope-switch;
#X obj 382 79 loadbang;
#X obj 379 235 t b b, f 16;
#X msg 488 259 1;
#X obj 488 287 switch~;
#X obj 527 234 t b b, f 11;
#X msg 527 258 0;
#X obj 601 262 s \$0-ramp-down;
#X obj 379 260 s \$0-ramp-up;
#X obj 379 211 r \$2-switch-on-\$3-\$1;
#X obj 527 210 r \$2-switch-off-\$3-\$1;
#X obj 434 149 v \$0-env-state;
#X msg 434 125 0;
#X obj 382 103 t b b, f 8;
#X obj 382 172 s \$2-switch-off-\$3-\$1;
#X connect 0 0 6 0;
#X connect 1 0 4 0;
#X connect 4 0 5 0;
#X connect 4 0 7 0;
#X connect 4 1 5 1;
#X connect 4 1 7 1;
#X connect 5 0 2 0;
#X connect 5 1 3 0;
#X connect 6 0 1 0;
#X connect 8 0 20 0;
#X connect 9 0 15 0;
#X connect 9 1 10 0;
#X connect 10 0 11 0;
#X connect 12 0 13 0;
#X connect 12 1 14 0;
#X connect 13 0 11 0;
#X connect 16 0 9 0;
#X connect 17 0 12 0;
#X connect 19 0 18 0;
#X connect 20 0 21 0;
#X connect 20 1 19 0;
