#N canvas -8 -8 1538 787 12;
#X obj 486 201 line~;
#X obj 486 137 del 50;
#X obj 975 39 inlet;
#N canvas 0 0 1920 976 midi-parsing 0;
#X obj 37 37 inlet;
#X obj 37 61 route note;
#X obj 37 112 s \$0-note;
#X obj 37 85 t l l, f 32;
#X obj 258 108 unpack f f;
#X obj 258 161 pack f f, f 10;
#N canvas 420 126 450 300 vel-norm 0;
#X obj 11 8 inlet;
#X obj 11 56 outlet;
#X obj 11 32 * 0.007874;
#X connect 0 0 2 0;
#X connect 2 0 1 0;
#X restore 325 135 pd vel-norm;
#X obj 258 185 s \$0-note-vel-norm;
#X connect 0 0 1 0;
#X connect 1 1 3 0;
#X connect 3 0 2 0;
#X connect 3 1 4 0;
#X connect 4 0 5 0;
#X connect 4 1 6 0;
#X connect 5 0 7 0;
#X connect 6 0 5 1;
#X restore 975 63 pd midi-parsing;
#X obj 311 40 unpack f f, f 18;
#X obj 311 64 mtof;
#N canvas 0 0 1920 976 bell~ 0;
#X obj 96 130 osc~;
#X obj 221 145 osc~;
#X floatatom 1076 41 5 0 0 0 - - -;
#X obj 96 98 * 0.5;
#X obj 369 153 osc~;
#X obj 369 125 * 1.2;
#X obj 496 129 * 1.5;
#X obj 645 151 osc~;
#X obj 784 134 osc~;
#X obj 645 123 * 2;
#X obj 784 106 * 2.5;
#X obj 911 143 osc~;
#X obj 911 115 * 3;
#X obj 135 175 vsl 15 128 0 1 0 0 empty empty empty 0 -9 0 10 -262144
-1 -1 8890 1;
#X obj 92 302 *~;
#X obj 282 168 vsl 15 128 0 1 0 0 empty empty empty 0 -9 0 10 -262144
-1 -1 7620 1;
#X obj 222 296 *~;
#X obj 415 162 vsl 15 128 0 1 0 0 empty empty empty 0 -9 0 10 -262144
-1 -1 3810 1;
#X obj 368 280 *~;
#X obj 558 160 vsl 15 128 0 1 0 0 empty empty empty 0 -9 0 10 -262144
-1 -1 3810 1;
#X obj 498 287 *~;
#X obj 699 150 vsl 15 128 0 1 0 0 empty empty empty 0 -9 0 10 -262144
-1 -1 3810 1;
#X obj 644 277 *~;
#X obj 840 144 vsl 15 128 0 1 0 0 empty empty empty 0 -9 0 10 -262144
-1 -1 3810 1;
#X obj 786 270 *~;
#X obj 971 163 vsl 15 128 0 1 0 0 empty empty empty 0 -9 0 10 -262144
-1 -1 3810 1;
#X obj 929 283 *~;
#X obj 496 157 osc~;
#X obj 1077 13 inlet;
#X obj 323 530 outlet~;
#X obj 96 71 r \$0-freq;
#X obj 369 88 r \$0-freq;
#X obj 221 116 r \$0-freq;
#X obj 495 93 r \$0-freq;
#X obj 639 82 r \$0-freq;
#X obj 783 71 r \$0-freq;
#X obj 914 83 r \$0-freq;
#X obj 135 144 r \$0-gain1;
#X obj 282 140 r \$0-gain2;
#X obj 414 135 r \$0-gain3;
#X obj 558 124 r \$0-gain4;
#X obj 699 120 r \$0-gain5;
#X obj 828 112 r \$0-gain6;
#X obj 968 117 r \$0-gain7;
#X obj 1203 59 loadbang;
#X obj 1203 83 f \$0;
#X msg 1203 107 \; \$1-gain1 0.7 \; \$1-gain2 0.6 \; \$1-gain3 0.3
\; \$1-gain4 0.3 \; \$1-gain5 0.3 \; \$1-gain6 0.3 \; \$1-gain7 0.3
;
#X obj 1297 39 bng 15 250 50 0 empty empty empty 17 7 0 10 -262144
-1 -1;
#X obj 1076 64 s \$0-freq;
#X connect 0 0 14 0;
#X connect 1 0 16 0;
#X connect 2 0 48 0;
#X connect 3 0 0 0;
#X connect 4 0 18 0;
#X connect 5 0 4 0;
#X connect 6 0 27 0;
#X connect 7 0 22 0;
#X connect 8 0 24 0;
#X connect 9 0 7 0;
#X connect 10 0 8 0;
#X connect 11 0 26 0;
#X connect 12 0 11 0;
#X connect 13 0 14 1;
#X connect 14 0 29 0;
#X connect 15 0 16 1;
#X connect 16 0 29 0;
#X connect 17 0 18 1;
#X connect 18 0 29 0;
#X connect 19 0 20 1;
#X connect 20 0 29 0;
#X connect 21 0 22 1;
#X connect 22 0 29 0;
#X connect 23 0 24 1;
#X connect 24 0 29 0;
#X connect 25 0 26 1;
#X connect 26 0 29 0;
#X connect 27 0 20 0;
#X connect 28 0 2 0;
#X connect 30 0 3 0;
#X connect 31 0 5 0;
#X connect 32 0 1 0;
#X connect 33 0 6 0;
#X connect 34 0 9 0;
#X connect 35 0 10 0;
#X connect 36 0 12 0;
#X connect 37 0 13 0;
#X connect 38 0 15 0;
#X connect 39 0 17 0;
#X connect 40 0 19 0;
#X connect 41 0 21 0;
#X connect 42 0 23 0;
#X connect 43 0 25 0;
#X connect 44 0 45 0;
#X connect 45 0 46 0;
#X connect 47 0 45 0;
#X restore 310 140 pd bell~;
#X obj 310 164 /~ 7;
#X obj 311 15 r \$0-note-vel-norm;
#X obj 486 113 t b f, f 11;
#X obj 433 65 sel 0, f 8;
#X obj 192 73 print vel;
#X obj 310 223 *~;
#X msg 560 154 \$1 1;
#X msg 486 161 0 1000;
#X obj 611 125 print sel-out;
#X msg 433 89 0 500;
#X obj 1103 34 loadbang;
#X floatatom 1103 96 5 0 0 0 - - -;
#X obj 406 300 throw~ \$2-voice-out-right;
#X obj 308 346 throw~ \$2-voice-out-left;
#X obj 1103 71 f \$2;
#X connect 0 0 12 1;
#X connect 1 0 14 0;
#X connect 2 0 3 0;
#X connect 4 0 5 0;
#X connect 4 1 10 0;
#X connect 5 0 6 0;
#X connect 6 0 7 0;
#X connect 7 0 12 0;
#X connect 8 0 4 0;
#X connect 8 0 11 0;
#X connect 9 0 1 0;
#X connect 9 1 13 0;
#X connect 9 1 15 0;
#X connect 10 0 16 0;
#X connect 10 1 9 0;
#X connect 12 0 19 0;
#X connect 12 0 20 0;
#X connect 13 0 0 0;
#X connect 14 0 0 0;
#X connect 16 0 0 0;
#X connect 21 0 18 0;
