#N canvas 1911 34 1842 944 12;
#X obj 289 438 tabwrite~ \$0-sum;
#X obj 300 390 tgl 15 0 empty empty empty 0 -6 0 8 -262144 -1 -1 0
1;
#X obj 300 412 metro 193;
#X obj 164 419 throw~ \$0-out;
#N canvas 0 22 450 300 (subpatch) 0;
#X array \$0-sum 882 float 0;
#X coords 0 0.5 881 -0.5 200 130 1;
#X restore 670 310 graph;
#X text 669 448 ---- 0.02 seconds ----;
#X text 638 301 0.5;
#X text 635 429 -0.5;
#X obj 687 50 catch~ \$0-out;
#X obj 687 104 dac~;
#N canvas -9 -9 1920 988 saw~ 0;
#X obj 36 78 phasor~;
#X floatatom 36 57 5 0 0 0 - - -;
#X text 84 54 frequency;
#X obj 125 190 *~;
#X obj 36 182 *~ -1;
#X obj 36 207 +~ 1;
#X obj 201 209 *~;
#X obj 125 242 min~;
#X floatatom 310 50 0 0 0 0 - - -;
#X text 296 50 x;
#X obj 238 29 hsl 200 15 0 1 0 0 empty empty empty -2 -8 0 10 -262144
-1 -1 19800 1;
#X obj 181 97 expr .5/$f1;
#X obj 291 97 expr .5/(1-$f1);
#X floatatom 212 121 0 0 0 0 - - -;
#X floatatom 328 122 0 0 0 0 - - -;
#X text 198 121 s;
#X text 314 122 t;
#X obj 36 24 inlet;
#X obj 125 266 outlet~;
#X msg 506 41 0.994975;
#X obj 506 12 loadbang;
#X obj 515 149 block~ 1;
#X connect 0 0 3 0;
#X connect 0 0 4 0;
#X connect 1 0 0 0;
#X connect 3 0 7 0;
#X connect 4 0 5 0;
#X connect 5 0 6 0;
#X connect 6 0 7 1;
#X connect 7 0 18 0;
#X connect 10 0 8 0;
#X connect 10 0 11 0;
#X connect 10 0 12 0;
#X connect 11 0 3 1;
#X connect 11 0 13 0;
#X connect 12 0 6 1;
#X connect 12 0 14 0;
#X connect 17 0 1 0;
#X connect 19 0 10 0;
#X connect 20 0 19 0;
#X restore 235 173 pd saw~;
#N canvas -9 -9 1920 988 saw~ 0;
#X obj 36 78 phasor~;
#X floatatom 36 57 5 0 0 0 - - -;
#X text 84 54 frequency;
#X obj 125 190 *~;
#X obj 36 182 *~ -1;
#X obj 36 207 +~ 1;
#X obj 201 209 *~;
#X obj 125 242 min~;
#X floatatom 310 50 0 0 0 0 - - -;
#X text 296 50 x;
#X obj 238 29 hsl 200 15 0 1 0 0 empty empty empty -2 -8 0 10 -262144
-1 -1 19800 1;
#X obj 181 97 expr .5/$f1;
#X obj 291 97 expr .5/(1-$f1);
#X floatatom 212 121 0 0 0 0 - - -;
#X floatatom 328 122 0 0 0 0 - - -;
#X text 198 121 s;
#X text 314 122 t;
#X obj 36 24 inlet;
#X obj 125 266 outlet~;
#X msg 506 41 0.994975;
#X obj 506 12 loadbang;
#X obj 554 124 block~ 1;
#X connect 0 0 3 0;
#X connect 0 0 4 0;
#X connect 1 0 0 0;
#X connect 3 0 7 0;
#X connect 4 0 5 0;
#X connect 5 0 6 0;
#X connect 6 0 7 1;
#X connect 7 0 18 0;
#X connect 10 0 8 0;
#X connect 10 0 11 0;
#X connect 10 0 12 0;
#X connect 11 0 3 1;
#X connect 11 0 13 0;
#X connect 12 0 6 1;
#X connect 12 0 14 0;
#X connect 17 0 1 0;
#X connect 19 0 10 0;
#X connect 20 0 19 0;
#X restore 306 174 pd saw~;
#N canvas -9 -9 1920 988 saw~ 0;
#X obj 36 78 phasor~;
#X floatatom 36 57 5 0 0 0 - - -;
#X text 84 54 frequency;
#X obj 125 190 *~;
#X obj 36 182 *~ -1;
#X obj 36 207 +~ 1;
#X obj 201 209 *~;
#X obj 125 242 min~;
#X floatatom 310 50 0 0 0 0 - - -;
#X text 296 50 x;
#X obj 238 29 hsl 200 15 0 1 0 0 empty empty empty -2 -8 0 10 -262144
-1 -1 19800 1;
#X obj 181 97 expr .5/$f1;
#X obj 291 97 expr .5/(1-$f1);
#X floatatom 212 121 0 0 0 0 - - -;
#X floatatom 328 122 0 0 0 0 - - -;
#X text 198 121 s;
#X text 314 122 t;
#X obj 36 24 inlet;
#X obj 125 266 outlet~;
#X msg 506 41 0.994975;
#X obj 506 12 loadbang;
#X obj 557 128 block~ 1;
#X connect 0 0 3 0;
#X connect 0 0 4 0;
#X connect 1 0 0 0;
#X connect 3 0 7 0;
#X connect 4 0 5 0;
#X connect 5 0 6 0;
#X connect 6 0 7 1;
#X connect 7 0 18 0;
#X connect 10 0 8 0;
#X connect 10 0 11 0;
#X connect 10 0 12 0;
#X connect 11 0 3 1;
#X connect 11 0 13 0;
#X connect 12 0 6 1;
#X connect 12 0 14 0;
#X connect 17 0 1 0;
#X connect 19 0 10 0;
#X connect 20 0 19 0;
#X restore 391 173 pd saw~;
#N canvas -9 -9 1920 988 saw~ 0;
#X obj 36 78 phasor~;
#X floatatom 36 57 5 0 0 0 - - -;
#X text 84 54 frequency;
#X obj 125 190 *~;
#X obj 36 182 *~ -1;
#X obj 36 207 +~ 1;
#X obj 201 209 *~;
#X obj 125 242 min~;
#X floatatom 310 50 0 0 0 0 - - -;
#X text 296 50 x;
#X obj 238 29 hsl 200 15 0 1 0 0 empty empty empty -2 -8 0 10 -262144
-1 -1 19800 1;
#X obj 181 97 expr .5/$f1;
#X obj 291 97 expr .5/(1-$f1);
#X floatatom 212 121 0 0 0 0 - - -;
#X floatatom 328 122 0 0 0 0 - - -;
#X text 198 121 s;
#X text 314 122 t;
#X obj 36 24 inlet;
#X obj 125 266 outlet~;
#X msg 506 41 0.994975;
#X obj 506 12 loadbang;
#X obj 554 127 block~ 1;
#X connect 0 0 3 0;
#X connect 0 0 4 0;
#X connect 1 0 0 0;
#X connect 3 0 7 0;
#X connect 4 0 5 0;
#X connect 5 0 6 0;
#X connect 6 0 7 1;
#X connect 7 0 18 0;
#X connect 10 0 8 0;
#X connect 10 0 11 0;
#X connect 10 0 12 0;
#X connect 11 0 3 1;
#X connect 11 0 13 0;
#X connect 12 0 6 1;
#X connect 12 0 14 0;
#X connect 17 0 1 0;
#X connect 19 0 10 0;
#X connect 20 0 19 0;
#X restore 464 173 pd saw~;
#N canvas -9 -9 1920 988 saw~ 0;
#X obj 36 78 phasor~;
#X floatatom 36 57 5 0 0 0 - - -;
#X text 84 54 frequency;
#X obj 125 190 *~;
#X obj 36 182 *~ -1;
#X obj 36 207 +~ 1;
#X obj 201 209 *~;
#X obj 125 242 min~;
#X floatatom 310 50 0 0 0 0 - - -;
#X text 296 50 x;
#X obj 238 29 hsl 200 15 0 1 0 0 empty empty empty -2 -8 0 10 -262144
-1 -1 19800 1;
#X obj 181 97 expr .5/$f1;
#X obj 291 97 expr .5/(1-$f1);
#X floatatom 212 121 0 0 0 0 - - -;
#X floatatom 328 122 0 0 0 0 - - -;
#X text 198 121 s;
#X text 314 122 t;
#X obj 36 24 inlet;
#X obj 125 266 outlet~;
#X msg 506 41 0.994975;
#X obj 506 12 loadbang;
#X obj 534 141 block~ 1;
#X connect 0 0 3 0;
#X connect 0 0 4 0;
#X connect 1 0 0 0;
#X connect 3 0 7 0;
#X connect 4 0 5 0;
#X connect 5 0 6 0;
#X connect 6 0 7 1;
#X connect 7 0 18 0;
#X connect 10 0 8 0;
#X connect 10 0 11 0;
#X connect 10 0 12 0;
#X connect 11 0 3 1;
#X connect 11 0 13 0;
#X connect 12 0 6 1;
#X connect 12 0 14 0;
#X connect 17 0 1 0;
#X connect 19 0 10 0;
#X connect 20 0 19 0;
#X restore 161 174 pd saw~;
#N canvas -9 -9 1920 988 saw~ 0;
#X obj 36 78 phasor~;
#X floatatom 36 57 5 0 0 0 - - -;
#X text 84 54 frequency;
#X obj 125 190 *~;
#X obj 36 182 *~ -1;
#X obj 36 207 +~ 1;
#X obj 201 209 *~;
#X obj 125 242 min~;
#X floatatom 310 50 0 0 0 0 - - -;
#X text 296 50 x;
#X obj 238 29 hsl 200 15 0 1 0 0 empty empty empty -2 -8 0 10 -262144
-1 -1 19800 1;
#X obj 181 97 expr .5/$f1;
#X obj 291 97 expr .5/(1-$f1);
#X floatatom 212 121 0 0 0 0 - - -;
#X floatatom 328 122 0 0 0 0 - - -;
#X text 198 121 s;
#X text 314 122 t;
#X obj 36 24 inlet;
#X obj 125 266 outlet~;
#X msg 506 41 0.994975;
#X obj 506 12 loadbang;
#X obj 515 149 block~ 1;
#X connect 0 0 3 0;
#X connect 0 0 4 0;
#X connect 1 0 0 0;
#X connect 3 0 7 0;
#X connect 4 0 5 0;
#X connect 5 0 6 0;
#X connect 6 0 7 1;
#X connect 7 0 18 0;
#X connect 10 0 8 0;
#X connect 10 0 11 0;
#X connect 10 0 12 0;
#X connect 11 0 3 1;
#X connect 11 0 13 0;
#X connect 12 0 6 1;
#X connect 12 0 14 0;
#X connect 17 0 1 0;
#X connect 19 0 10 0;
#X connect 20 0 19 0;
#X restore 89 174 pd saw~;
#N canvas -9 -9 1920 988 saw~ 0;
#X obj 36 78 phasor~;
#X floatatom 36 57 5 0 0 0 - - -;
#X text 84 54 frequency;
#X obj 125 190 *~;
#X obj 36 182 *~ -1;
#X obj 36 207 +~ 1;
#X obj 201 209 *~;
#X obj 125 242 min~;
#X floatatom 310 50 0 0 0 0 - - -;
#X text 296 50 x;
#X obj 238 29 hsl 200 15 0 1 0 0 empty empty empty -2 -8 0 10 -262144
-1 -1 19800 1;
#X obj 181 97 expr .5/$f1;
#X obj 291 97 expr .5/(1-$f1);
#X floatatom 212 121 0 0 0 0 - - -;
#X floatatom 328 122 0 0 0 0 - - -;
#X text 198 121 s;
#X text 314 122 t;
#X obj 36 3 inlet;
#X obj 125 266 outlet~;
#X msg 506 41 0.994975;
#X obj 506 12 loadbang;
#X obj 542 127 block~ 1;
#X connect 0 0 3 0;
#X connect 0 0 4 0;
#X connect 1 0 0 0;
#X connect 3 0 7 0;
#X connect 4 0 5 0;
#X connect 5 0 6 0;
#X connect 6 0 7 1;
#X connect 7 0 18 0;
#X connect 10 0 8 0;
#X connect 10 0 11 0;
#X connect 10 0 12 0;
#X connect 11 0 3 1;
#X connect 11 0 13 0;
#X connect 12 0 6 1;
#X connect 12 0 14 0;
#X connect 17 0 1 0;
#X connect 17 0 0 1;
#X connect 19 0 10 0;
#X connect 20 0 19 0;
#X restore 17 174 pd saw~;
#X floatatom 233 8 5 0 0 0 - - -;
#X obj 234 332 /~ 7;
#X floatatom 331 41 5 0 0 0 - - -;
#X obj 322 104 * 1;
#X obj 410 104 * 2;
#X obj 490 97 * 3;
#X obj 304 130 +;
#X obj 392 130 +;
#X obj 472 129 +;
#X obj 48 102 * 1;
#X obj 136 102 * 2;
#X obj 216 95 * 3;
#X obj 30 128 -;
#X obj 118 128 -;
#X obj 198 127 -;
#X obj 687 74 lop~ 500;
#X connect 1 0 2 0;
#X connect 2 0 0 0;
#X connect 8 0 32 0;
#X connect 10 0 18 0;
#X connect 11 0 18 0;
#X connect 12 0 18 0;
#X connect 13 0 18 0;
#X connect 14 0 18 0;
#X connect 15 0 18 0;
#X connect 16 0 18 0;
#X connect 17 0 29 0;
#X connect 17 0 30 0;
#X connect 17 0 31 0;
#X connect 17 0 23 0;
#X connect 17 0 24 0;
#X connect 17 0 25 0;
#X connect 17 0 10 0;
#X connect 17 0 19 0;
#X connect 18 0 3 0;
#X connect 19 0 20 0;
#X connect 19 0 21 0;
#X connect 19 0 22 0;
#X connect 19 0 28 0;
#X connect 19 0 27 0;
#X connect 19 0 26 0;
#X connect 20 0 23 1;
#X connect 21 0 24 1;
#X connect 22 0 25 1;
#X connect 23 0 11 0;
#X connect 24 0 12 0;
#X connect 25 0 13 0;
#X connect 26 0 29 1;
#X connect 27 0 30 1;
#X connect 28 0 31 1;
#X connect 29 0 16 0;
#X connect 30 0 15 0;
#X connect 31 0 14 0;
#X connect 32 0 9 0;
#X connect 32 0 9 1;
