#N canvas 1911 34 1842 944 12;
#X obj 289 438 tabwrite~ \$0-sum;
#X obj 300 390 tgl 15 0 empty empty empty 0 -6 0 8 -262144 -1 -1 0
1;
#X obj 300 412 metro 193;
#X obj 164 419 throw~ \$0-out;
#N canvas 0 22 450 300 (subpatch) 0;
#X array \$0-sum 882 float 0;
#X coords 0 0.5 881 -0.5 200 130 1;
#X restore 670 310 graph;
#X text 669 448 ---- 0.02 seconds ----;
#X text 638 301 0.5;
#X text 635 429 -0.5;
#X obj 687 50 catch~ \$0-out;
#X obj 687 104 dac~;
#X floatatom 232 -2 5 0 0 0 - - -;
#X obj 234 332 /~ 7;
#X floatatom 331 41 5 0 0 0 - - -;
#X obj 322 104 * 1;
#X obj 304 130 +;
#X obj 392 130 +;
#X obj 472 129 +;
#X obj 48 102 * 1;
#X obj 30 128 -;
#X obj 118 128 -;
#X obj 198 127 -;
#X obj 687 74 lop~ 500;
#X obj 233 375 vcf~;
#X obj 301 337 sig~;
#X text 369 275 q;
#X floatatom 301 306 5 0 0 0 - - -;
#X obj 21 -2 notein;
#X obj 21 22 mtof;
#X obj 17 174 os.saw~;
#X obj 89 174 os.saw~;
#X obj 162 174 os.saw~;
#X obj 235 173 os.saw~;
#X obj 306 174 os.saw~;
#X obj 391 173 os.saw~;
#X obj 472 163 os.saw~;
#X obj 162 198 *~ 0.5;
#X obj 472 189 *~ 0.5;
#X obj 391 197 *~ 0.5;
#X obj 89 202 *~ 0.5;
#X obj 405 32 s \$0-b;
#X obj 518 139 r \$0-b;
#X obj 432 145 r \$0-b;
#X obj 354 148 r \$0-b;
#X obj 280 142 r \$0-b;
#X obj 208 148 r \$0-b;
#X obj 138 148 r \$0-b;
#X obj 68 147 r \$0-b;
#X msg 408 4 1;
#X msg 354 332 0;
#X obj 295 11 * 0.01;
#X obj 136 102 * 1.1;
#X obj 216 95 * 1.3;
#X obj 410 104 * 1.1;
#X obj 490 97 * 1.3;
#X connect 1 0 2 0;
#X connect 2 0 0 0;
#X connect 8 0 21 0;
#X connect 10 0 18 0;
#X connect 10 0 19 0;
#X connect 10 0 20 0;
#X connect 10 0 14 0;
#X connect 10 0 15 0;
#X connect 10 0 16 0;
#X connect 10 0 25 0;
#X connect 10 0 31 0;
#X connect 10 0 47 0;
#X connect 10 0 49 0;
#X connect 11 0 22 0;
#X connect 11 0 3 0;
#X connect 12 0 13 0;
#X connect 12 0 17 0;
#X connect 12 0 50 0;
#X connect 12 0 51 0;
#X connect 12 0 52 0;
#X connect 12 0 53 0;
#X connect 13 0 14 1;
#X connect 14 0 32 0;
#X connect 15 0 33 0;
#X connect 16 0 34 0;
#X connect 17 0 18 1;
#X connect 18 0 28 0;
#X connect 19 0 29 0;
#X connect 20 0 30 0;
#X connect 21 0 9 0;
#X connect 21 0 9 1;
#X connect 23 0 22 1;
#X connect 25 0 23 0;
#X connect 26 0 27 0;
#X connect 27 0 10 0;
#X connect 28 0 11 0;
#X connect 29 0 38 0;
#X connect 30 0 35 0;
#X connect 31 0 11 0;
#X connect 32 0 11 0;
#X connect 33 0 37 0;
#X connect 34 0 36 0;
#X connect 35 0 11 0;
#X connect 36 0 11 0;
#X connect 37 0 11 0;
#X connect 38 0 11 0;
#X connect 40 0 34 1;
#X connect 41 0 33 1;
#X connect 42 0 32 1;
#X connect 43 0 31 1;
#X connect 44 0 30 1;
#X connect 45 0 29 1;
#X connect 46 0 28 1;
#X connect 47 0 39 0;
#X connect 48 0 22 2;
#X connect 49 0 12 0;
#X connect 50 0 19 1;
#X connect 51 0 20 1;
#X connect 52 0 15 1;
#X connect 53 0 16 1;
