#N canvas -9 -9 1920 988 12;
#X obj 665 39 inlet;
#N canvas 0 0 1920 976 midi-parsing 0;
#X obj 37 37 inlet;
#X obj 37 61 route note;
#X obj 37 112 s \$0-note;
#X obj 193 112 unpack f f;
#X obj 193 165 pack f f, f 10;
#N canvas 420 126 450 300 vel-norm 0;
#X obj 11 8 inlet;
#X obj 11 56 outlet;
#X obj 11 32 * 0.007874;
#X connect 0 0 2 0;
#X connect 2 0 1 0;
#X restore 260 139 pd vel-norm;
#X obj 193 189 s \$0-note-vel-norm;
#X obj 38 84 t l l l, f 45;
#X obj 350 114 unpack f f, f 13;
#N canvas 420 126 450 300 vel-norm 0;
#X obj 11 8 inlet;
#X obj 11 56 outlet;
#X obj 11 32 * 0.007874;
#X connect 0 0 2 0;
#X connect 2 0 1 0;
#X restore 470 167 pd vel-norm;
#X obj 470 191 s \$0-vel-norm;
#X obj 438 140 t f f;
#X obj 438 215 s \$0-vel;
#X connect 0 0 1 0;
#X connect 1 1 7 0;
#X connect 3 0 4 0;
#X connect 3 1 5 0;
#X connect 4 0 6 0;
#X connect 5 0 4 1;
#X connect 7 0 2 0;
#X connect 7 1 3 0;
#X connect 7 2 8 0;
#X connect 8 1 11 0;
#X connect 9 0 10 0;
#X connect 11 0 12 0;
#X connect 11 1 9 0;
#X restore 665 63 pd midi-parsing;
#X obj 104 14 r \$0-note-vel-norm;
#X obj 710 98 loadbang;
#X obj 104 195 throw~ \$2-output-left-\$3;
#X obj 192 173 throw~ \$2-output-right-\$3;
#N canvas -9 -9 1920 988 ramps 0;
#X obj 62 278 *~;
#X obj 129 247 line~;
#X msg 129 202 1 5;
#X msg 168 207 0 5;
#X obj 168 179 loadbang;
#X obj 129 156 r \$0-ramp-up;
#X obj 232 180 r \$0-ramp-down;
#X obj 376 269 *~;
#X obj 443 238 line~;
#X msg 443 193 1 5;
#X msg 482 198 0 5;
#X obj 482 170 loadbang;
#X obj 443 147 r \$0-ramp-up;
#X obj 546 171 r \$0-ramp-down;
#X obj 363 193 inlet~;
#X obj 363 319 outlet~;
#X obj 49 202 inlet~;
#X obj 49 328 outlet~;
#X connect 0 0 17 0;
#X connect 1 0 0 1;
#X connect 2 0 1 0;
#X connect 3 0 1 0;
#X connect 4 0 3 0;
#X connect 5 0 2 0;
#X connect 6 0 3 0;
#X connect 7 0 15 0;
#X connect 8 0 7 1;
#X connect 9 0 8 0;
#X connect 10 0 8 0;
#X connect 11 0 10 0;
#X connect 12 0 9 0;
#X connect 13 0 10 0;
#X connect 14 0 7 0;
#X connect 14 0 15 0;
#X connect 16 0 0 0;
#X restore 104 64 pd ramps;
#X f 13;
#X obj 380 240 t b b, f 16;
#X msg 489 264 1;
#X obj 489 292 switch~;
#X obj 528 239 t b b, f 11;
#X msg 528 263 0;
#X obj 602 262 s \$0-ramp-down;
#X obj 380 265 s \$0-ramp-up;
#X obj 380 216 r \$2-switch-on-\$3-\$1;
#X obj 528 190 r \$2-switch-off-\$3-\$1;
#X obj 528 214 pipe 3000;
#X obj 290 136 env~ 16384 8192;
#X obj 290 110 +~;
#N canvas -9 -9 1920 988 voice-here 0;
#X obj 198 219 line~;
#X obj 198 155 del 50;
#X obj 23 58 unpack f f, f 18;
#X obj 23 82 mtof;
#N canvas 1 1 1900 968 bell~ 0;
#X obj 96 130 osc~;
#X obj 221 145 osc~;
#X floatatom 1076 41 5 0 0 0 - - -;
#X obj 96 98 * 0.5;
#X obj 369 153 osc~;
#X obj 369 125 * 1.2;
#X obj 496 129 * 1.5;
#X obj 645 151 osc~;
#X obj 784 134 osc~;
#X obj 645 123 * 2;
#X obj 784 106 * 2.5;
#X obj 929 147 osc~;
#X obj 929 119 * 3;
#X obj 135 175 vsl 15 128 0 1 0 0 empty empty empty 0 -9 0 10 -262144
-1 -1 8890 1;
#X obj 92 302 *~;
#X obj 282 168 vsl 15 128 0 1 0 0 empty empty empty 0 -9 0 10 -262144
-1 -1 7620 1;
#X obj 222 296 *~;
#X obj 415 162 vsl 15 128 0 1 0 0 empty empty empty 0 -9 0 10 -262144
-1 -1 3810 1;
#X obj 368 280 *~;
#X obj 558 160 vsl 15 128 0 1 0 0 empty empty empty 0 -9 0 10 -262144
-1 -1 3810 1;
#X obj 498 287 *~;
#X obj 699 150 vsl 15 128 0 1 0 0 empty empty empty 0 -9 0 10 -262144
-1 -1 3810 1;
#X obj 644 277 *~;
#X obj 840 144 vsl 15 128 0 1 0 0 empty empty empty 0 -9 0 10 -262144
-1 -1 3810 1;
#X obj 786 270 *~;
#X obj 971 163 vsl 15 128 0 1 0 0 empty empty empty 0 -9 0 10 -262144
-1 -1 3810 1;
#X obj 929 283 *~;
#X obj 496 157 osc~;
#X obj 1077 13 inlet;
#X obj 91 492 outlet~;
#X obj 96 71 r \$0-freq;
#X obj 369 96 r \$0-freq;
#X obj 221 116 r \$0-freq;
#X obj 496 100 r \$0-freq;
#X obj 645 96 r \$0-freq;
#X obj 783 71 r \$0-freq;
#X obj 929 86 r \$0-freq;
#X obj 135 144 r \$0-gain1;
#X obj 282 140 r \$0-gain2;
#X obj 414 135 r \$0-gain3;
#X obj 558 124 r \$0-gain4;
#X obj 699 120 r \$0-gain5;
#X obj 840 112 r \$0-gain6;
#X obj 968 117 r \$0-gain7;
#X obj 1203 59 loadbang;
#X obj 1203 83 f \$0;
#X msg 1203 107 \; \$1-gain1 0.7 \; \$1-gain2 0.6 \; \$1-gain3 0.3
\; \$1-gain4 0.3 \; \$1-gain5 0.3 \; \$1-gain6 0.3 \; \$1-gain7 0.3
;
#X obj 1297 39 bng 15 250 50 0 empty empty empty 17 7 0 10 -262144
-1 -1;
#X obj 1076 64 s \$0-freq;
#X obj 1290 377 block~ 1;
#X connect 0 0 14 0;
#X connect 1 0 16 0;
#X connect 2 0 48 0;
#X connect 3 0 0 0;
#X connect 4 0 18 0;
#X connect 5 0 4 0;
#X connect 6 0 27 0;
#X connect 7 0 22 0;
#X connect 8 0 24 0;
#X connect 9 0 7 0;
#X connect 10 0 8 0;
#X connect 11 0 26 0;
#X connect 12 0 11 0;
#X connect 13 0 14 1;
#X connect 14 0 29 0;
#X connect 15 0 16 1;
#X connect 16 0 29 0;
#X connect 17 0 18 1;
#X connect 18 0 29 0;
#X connect 19 0 20 1;
#X connect 20 0 29 0;
#X connect 21 0 22 1;
#X connect 22 0 29 0;
#X connect 23 0 24 1;
#X connect 24 0 29 0;
#X connect 25 0 26 1;
#X connect 26 0 29 0;
#X connect 27 0 20 0;
#X connect 28 0 2 0;
#X connect 30 0 3 0;
#X connect 31 0 5 0;
#X connect 32 0 1 0;
#X connect 33 0 6 0;
#X connect 34 0 9 0;
#X connect 35 0 10 0;
#X connect 36 0 12 0;
#X connect 37 0 13 0;
#X connect 38 0 15 0;
#X connect 39 0 17 0;
#X connect 40 0 19 0;
#X connect 41 0 21 0;
#X connect 42 0 23 0;
#X connect 43 0 25 0;
#X connect 44 0 45 0;
#X connect 45 0 46 0;
#X connect 47 0 45 0;
#X restore 22 158 pd bell~;
#X obj 22 182 /~ 7;
#X obj 198 131 t b f, f 11;
#X obj 145 83 sel 0, f 8;
#X obj 22 241 *~;
#X msg 272 172 \$1 1;
#X msg 198 179 0 1000;
#X obj 323 143 print sel-out;
#X msg 145 107 0 500;
#X obj 23 23 inlet;
#X obj 22 279 outlet~;
#X obj 110 279 outlet~;
#X connect 0 0 8 1;
#X connect 1 0 10 0;
#X connect 2 0 3 0;
#X connect 2 1 7 0;
#X connect 3 0 4 0;
#X connect 4 0 5 0;
#X connect 5 0 8 0;
#X connect 6 0 1 0;
#X connect 6 1 9 0;
#X connect 6 1 11 0;
#X connect 7 0 12 0;
#X connect 7 1 6 0;
#X connect 8 0 14 0;
#X connect 8 0 15 0;
#X connect 9 0 0 0;
#X connect 10 0 0 0;
#X connect 12 0 0 0;
#X connect 13 0 2 0;
#X restore 103 40 pd voice-here;
#X obj 710 122 f 0;
#X obj 710 146 v \$0-dsp-state;
#X obj 363 396 poly;
#X connect 0 0 1 0;
#X connect 2 0 19 0;
#X connect 3 0 20 0;
#X connect 6 0 18 0;
#X connect 6 0 4 0;
#X connect 6 1 18 1;
#X connect 6 1 5 0;
#X connect 7 0 13 0;
#X connect 7 1 8 0;
#X connect 8 0 9 0;
#X connect 10 0 11 0;
#X connect 10 1 12 0;
#X connect 11 0 9 0;
#X connect 14 0 7 0;
#X connect 15 0 16 0;
#X connect 16 0 10 0;
#X connect 18 0 17 0;
#X connect 19 0 6 0;
#X connect 19 1 6 1;
#X connect 20 0 21 0;
