#N canvas -9 -9 1920 966 12;
#X obj 53 18 inlet;
#N canvas 0 0 1920 988 midi-parsing 0;
#X obj 37 37 inlet;
#X obj 37 107 s \$0-note;
#X obj 157 108 unpack f f;
#X obj 157 161 pack f f, f 10;
#X obj 157 185 s \$0-note-vel-norm;
#X obj 494 101 unpack f f;
#X obj 495 125 t b;
#X obj 561 124 > 0;
#X obj 494 152 spigot, f 10;
#X obj 494 176 s \$2-switch-on-\$3-\$1;
#X obj 37 77 t l l l l, f 66;
#X obj 343 102 unpack f f;
#X obj 343 253 outlet~;
#N canvas 0 0 1920 988 vel-norm 0;
#X obj 11 8 inlet;
#X obj 11 62 * 0.007874;
#X obj 24 91 s \$0-vel-norm;
#X obj 11 32 t f f, f 17;
#X obj 127 90 s \$0-vel;
#X obj 11 129 outlet;
#X connect 0 0 3 0;
#X connect 1 0 2 0;
#X connect 1 0 5 0;
#X connect 3 0 1 0;
#X connect 3 1 4 0;
#X restore 409 133 pd vel-norm;
#N canvas -9 -9 1920 966 gm-note-to-signal 0;
#X obj 42 142 inlet;
#X obj 113 13 inlet;
#X obj 42 316 line~;
#X obj 42 338 outlet~;
#X obj 42 242 mtof;
#X obj 113 35 - 8192;
#X obj 168 154 abs;
#X obj 176 103 >= 0;
#X obj 113 57 t f f f f, f 14;
#X obj 114 131 spigot;
#X obj 168 131 spigot;
#X obj 207 80 < 0;
#X obj 114 156 abs;
#N canvas -9 -9 1920 966 add-bendin 0;
#X obj 22 8 inlet;
#X obj 94 8 inlet;
#X obj 22 68 f;
#X obj 22 96 +;
#X obj 22 121 outlet;
#X obj 22 34 t b f, f 9;
#X obj 73 58 * 0.000732;
#X connect 0 0 5 0;
#X connect 1 0 2 1;
#X connect 2 0 3 0;
#X connect 3 0 4 0;
#X connect 5 0 2 0;
#X connect 5 1 6 0;
#X connect 6 0 3 1;
#X restore 114 199 pd add-bendin;
#N canvas -9 -9 1920 966 subtract-bendin 0;
#X obj 18 10 inlet;
#X obj 95 11 inlet;
#X obj 18 68 f;
#X obj 18 97 -;
#X obj 18 119 outlet;
#X obj 18 34 t b f, f 9;
#X obj 69 57 * 0.000732;
#X connect 0 0 5 0;
#X connect 1 0 2 1;
#X connect 2 0 3 0;
#X connect 3 0 4 0;
#X connect 5 0 2 0;
#X connect 5 1 6 0;
#X connect 6 0 3 1;
#X restore 218 202 pd subtract-bendin;
#X obj 42 164 t f f f, f 8;
#X obj 65 268 print nts:note =;
#X msg 42 294 \$1 1;
#X connect 0 0 15 0;
#X connect 1 0 5 0;
#X connect 2 0 3 0;
#X connect 4 0 17 0;
#X connect 4 0 16 0;
#X connect 5 0 8 0;
#X connect 6 0 14 0;
#X connect 7 0 9 1;
#X connect 8 0 9 0;
#X connect 8 1 10 0;
#X connect 8 2 7 0;
#X connect 8 3 11 0;
#X connect 9 0 12 0;
#X connect 10 0 6 0;
#X connect 11 0 10 1;
#X connect 12 0 13 0;
#X connect 13 0 4 0;
#X connect 14 0 4 0;
#X connect 15 0 4 0;
#X connect 15 1 13 1;
#X connect 15 2 14 1;
#X connect 17 0 2 0;
#X restore 343 228 pd gm-note-to-signal;
#X obj 480 206 r \$2-pitch-bend;
#X connect 0 0 10 0;
#X connect 2 0 3 0;
#X connect 2 1 13 0;
#X connect 3 0 4 0;
#X connect 5 0 6 0;
#X connect 5 1 7 0;
#X connect 6 0 8 0;
#X connect 7 0 8 1;
#X connect 8 0 9 0;
#X connect 10 0 1 0;
#X connect 10 1 2 0;
#X connect 10 2 11 0;
#X connect 10 3 5 0;
#X connect 11 0 14 0;
#X connect 11 1 13 0;
#X connect 13 0 3 1;
#X connect 14 0 12 0;
#X connect 15 0 14 1;
#X restore 53 67 pd midi-parsing;
#X obj 53 314 throw~ \$2-output-left-\$3;
#X obj 141 289 throw~ \$2-output-right-\$3;
#N canvas 1 1 1900 968 bell-voice 0;
#X obj 22 279 outlet~;
#X obj 101 277 outlet~;
#X obj 19 94 inlet~;
#X obj 91 95 r \$0-vel-norm;
#X text 31 180 Your objects/abs/subpatches of the synth;
#X restore 53 94 pd bell-voice;
#N canvas 0 0 1920 988 ramps 0;
#X obj 62 278 *~;
#X obj 129 247 line~;
#X obj 168 179 loadbang;
#X obj 129 156 r \$0-ramp-up;
#X obj 232 180 r \$0-ramp-down;
#X obj 376 269 *~;
#X obj 443 238 line~;
#X obj 482 170 loadbang;
#X obj 443 147 r \$0-ramp-up;
#X obj 546 171 r \$0-ramp-down;
#X obj 377 202 inlet~;
#X obj 375 311 outlet~;
#X obj 63 215 inlet~;
#X obj 62 317 outlet~;
#X msg 129 202 1 1;
#X msg 168 207 0 1;
#X msg 443 193 1 1;
#X msg 482 198 0 1;
#X connect 0 0 13 0;
#X connect 1 0 0 1;
#X connect 2 0 15 0;
#X connect 3 0 14 0;
#X connect 4 0 15 0;
#X connect 5 0 11 0;
#X connect 6 0 5 1;
#X connect 7 0 17 0;
#X connect 8 0 16 0;
#X connect 9 0 17 0;
#X connect 10 0 5 0;
#X connect 12 0 0 0;
#X connect 14 0 1 0;
#X connect 15 0 1 0;
#X connect 16 0 6 0;
#X connect 17 0 6 0;
#X restore 53 263 pd ramps;
#N canvas 763 88 450 459 check-voice-availability 0;
#X obj 37 37 inlet;
#X obj 37 208 outlet;
#X obj 37 61 t a b, f 12;
#X obj 118 89 v \$0-env-state;
#X obj 37 115 list prepend;
#X obj 37 139 route 0 1, f 12;
#N canvas 0 0 1920 988 backtrack-note 0;
#X obj 19 10 inlet;
#X obj 19 34 unpack f f;
#X obj 19 229 outlet;
#X obj 118 83 > 0;
#X obj 86 58 t f f;
#X obj 19 98 pack f f;
#X obj 19 132 list prepend;
#X obj 49 181 list prepend \$3;
#X obj 49 206 s \$2-note-back;
#X obj 19 156 route 0 1;
#X connect 0 0 1 0;
#X connect 1 0 5 0;
#X connect 1 1 4 0;
#X connect 3 0 6 1;
#X connect 4 0 5 1;
#X connect 4 1 3 0;
#X connect 5 0 6 0;
#X connect 6 0 9 0;
#X connect 7 0 8 0;
#X connect 9 0 2 0;
#X connect 9 1 7 0;
#X restore 77 164 pd backtrack-note;
#X connect 0 0 2 0;
#X connect 2 0 4 0;
#X connect 2 1 3 0;
#X connect 3 0 4 1;
#X connect 4 0 5 0;
#X connect 5 0 1 0;
#X connect 5 1 6 0;
#X connect 6 0 1 0;
#X restore 53 43 pd check-voice-availability;
#N canvas 0 0 1920 988 envelope-switch 0;
#X obj 26 34 /~ 2;
#X obj 26 85 moses 10, f 16;
#X obj 26 187 v \$0-env-state;
#X msg 26 134 0;
#X msg 293 135 1;
#X obj 26 4 inlet~;
#X obj 98 5 inlet~;
#X obj 26 109 t b b, f 8;
#X obj 79 132 s \$2-switch-off-\$3-\$1;
#X obj 26 59 env~;
#X connect 0 0 9 0;
#X connect 1 0 7 0;
#X connect 1 1 4 0;
#X connect 3 0 2 0;
#X connect 4 0 2 0;
#X connect 5 0 0 0;
#X connect 6 0 0 0;
#X connect 7 0 3 0;
#X connect 7 1 8 0;
#X connect 9 0 1 0;
#X restore 155 139 pd envelope-switch;
#X obj 382 79 loadbang;
#X obj 379 235 t b b, f 16;
#X msg 488 259 1;
#X obj 488 287 switch~;
#X obj 527 234 t b b, f 11;
#X msg 527 258 0;
#X obj 601 262 s \$0-ramp-down;
#X obj 379 260 s \$0-ramp-up;
#X obj 379 211 r \$2-switch-on-\$3-\$1;
#X obj 527 210 r \$2-switch-off-\$3-\$1;
#X obj 434 149 v \$0-env-state;
#X msg 434 125 0;
#X obj 382 103 t b b, f 8;
#X obj 382 172 s \$2-switch-off-\$3-\$1;
#X connect 0 0 6 0;
#X connect 1 0 4 0;
#X connect 4 0 5 0;
#X connect 4 0 7 0;
#X connect 4 1 5 1;
#X connect 4 1 7 1;
#X connect 5 0 2 0;
#X connect 5 1 3 0;
#X connect 6 0 1 0;
#X connect 8 0 20 0;
#X connect 9 0 15 0;
#X connect 9 1 10 0;
#X connect 10 0 11 0;
#X connect 12 0 13 0;
#X connect 12 1 14 0;
#X connect 13 0 11 0;
#X connect 16 0 9 0;
#X connect 17 0 12 0;
#X connect 19 0 18 0;
#X connect 20 0 21 0;
#X connect 20 1 19 0;
