#N canvas 1912 43 1840 922 12;
#X obj 337 94 bng 15 250 50 0 empty empty empty 17 7 0 10 -262144 -1
-1;
#X obj 337 124 t b b;
#X obj 339 212 tgl 15 0 empty empty empty 17 7 0 10 -262144 -1 -1 0
1;
#X obj 171 240 *~;
#X obj 432 295 dac~;
#X floatatom 475 79 5 0 0 0 - - -;
#X msg 339 181 0;
#X obj 176 122 noise~;
#X obj 475 113 delread4~ \$0-del;
#X msg 421 139 0.8;
#X obj 337 153 del 30;
#X obj 177 167 lop~ 8000;
#X obj 170 280 delwrite~ \$0-del 500;
#X obj 476 252 lop~ 4000;
#X obj 476 223 *~;
#X obj 566 173 +~ 0;
#X obj 566 143 osc~ 0.1;
#X floatatom 611 97 5 0 0 0 - - -;
#X obj 612 70 hsl 128 15 0 1 0 0 empty empty empty -2 -8 0 10 -262144
-1 -1 0 1;
#X connect 0 0 1 0;
#X connect 0 0 9 0;
#X connect 0 0 18 0;
#X connect 1 0 10 0;
#X connect 2 0 3 1;
#X connect 3 0 12 0;
#X connect 5 0 8 0;
#X connect 6 0 2 0;
#X connect 7 0 11 0;
#X connect 8 0 4 0;
#X connect 8 0 4 1;
#X connect 8 0 14 0;
#X connect 9 0 2 0;
#X connect 10 0 6 0;
#X connect 11 0 3 0;
#X connect 13 0 12 0;
#X connect 14 0 13 0;
#X connect 15 0 14 1;
#X connect 16 0 15 0;
#X connect 17 0 16 1;
#X connect 18 0 17 0;
