#N canvas 1912 43 1840 922 12;
#N canvas 1911 34 1842 944 noise-burst~ 0;
#N canvas 0 50 450 300 noise-source~ 0;
#X obj 20 37 hv.pinknoise;
#X obj 20 72 outlet~;
#X connect 0 0 1 0;
#X restore 50 201 pd noise-source~;
#X obj 50 269 *~;
#X obj 241 169 t b b, f 12;
#X msg 241 217 0 1;
#X msg 322 191 1 1;
#X obj 50 293 outlet~;
#X obj 241 252 vline~;
#X obj 241 193 del 10;
#X obj 246 26 r \$0-note-vel-norm;
#X obj 246 50 unpack f f, f 11;
#X obj 245 105 spigot;
#X obj 320 77 tgl 15 0 empty empty empty 17 7 0 10 -262144 -1 -1 0
1;
#X connect 0 0 1 0;
#X connect 1 0 5 0;
#X connect 2 0 7 0;
#X connect 2 1 4 0;
#X connect 3 0 6 0;
#X connect 4 0 6 0;
#X connect 6 0 1 1;
#X connect 7 0 3 0;
#X connect 8 0 9 0;
#X connect 9 0 10 0;
#X connect 9 1 11 0;
#X connect 10 0 2 0;
#X connect 11 0 10 1;
#X restore 182 136 pd noise-burst~;
#N canvas 1911 34 1842 944 krpls~ 1;
#X obj 17 156 inlet~;
#X obj 196 149 delread4~ \$0-del;
#X floatatom 415 148 5 0 0 0 - - -;
#X obj 418 122 hsl 128 15 0 1 0 0 empty empty empty -2 -8 0 10 -262144
-1 -1 0 1;
#X obj 370 236 +~ 1;
#X obj 370 260 /~ 2;
#X obj 17 351 delwrite~ \$0-del 1000;
#X obj 196 117 expr 1000/$f1;
#X obj 135 200 outlet~;
#X msg 414 94 0;
#X obj 784 34 block~ 1;
#X obj 197 308 lop~ 4000;
#X obj 198 279 *~;
#X obj 196 18 r \$0-note-vel-norm;
#X obj 196 66 mtof;
#X obj 196 42 unpack f f;
#X obj 263 65 t b f, f 38;
#X text 563 75 TO_DO: think about non-linear velocity control;
#X obj 370 205 osc~ 0.08;
#X connect 0 0 6 0;
#X connect 1 0 8 0;
#X connect 1 0 12 0;
#X connect 2 0 18 1;
#X connect 3 0 2 0;
#X connect 4 0 5 0;
#X connect 5 0 12 1;
#X connect 7 0 1 0;
#X connect 9 0 3 0;
#X connect 11 0 6 0;
#X connect 12 0 11 0;
#X connect 13 0 15 0;
#X connect 14 0 7 0;
#X connect 15 0 14 0;
#X connect 15 1 16 0;
#X connect 16 0 9 0;
#X connect 18 0 4 0;
#X restore 182 160 pd krpls~;
#X obj 955 31 inlet;
#N canvas 0 0 1920 976 midi-parsing 0;
#X obj 37 37 inlet;
#X obj 37 61 route note;
#X obj 37 112 s \$0-note;
#X obj 37 85 t l l, f 32;
#X obj 258 108 unpack f f;
#X obj 258 161 pack f f, f 10;
#N canvas 420 126 450 300 vel-norm 0;
#X obj 11 8 inlet;
#X obj 11 56 outlet;
#X obj 11 32 * 0.007874;
#X connect 0 0 2 0;
#X connect 2 0 1 0;
#X restore 325 135 pd vel-norm;
#X obj 258 185 s \$0-note-vel-norm;
#X connect 0 0 1 0;
#X connect 1 1 3 0;
#X connect 3 0 2 0;
#X connect 3 1 4 0;
#X connect 4 0 5 0;
#X connect 4 1 6 0;
#X connect 5 0 7 0;
#X connect 6 0 5 1;
#X restore 955 55 pd midi-parsing;
#X obj 1083 26 loadbang;
#X floatatom 1083 88 5 0 0 0 - - -;
#X obj 1083 63 f \$2;
#X obj 281 367 throw~ \$2-voice-out-right;
#X obj 183 413 throw~ \$2-voice-out-left;
#X connect 0 0 1 0;
#X connect 1 0 7 0;
#X connect 1 0 8 0;
#X connect 2 0 3 0;
#X connect 6 0 5 0;
