#N canvas 1912 43 1840 922 12;
#X obj 631 256 bng 15 250 50 0 empty empty empty 17 7 0 10 -262144
-1 -1;
#X obj 631 286 t b b;
#X obj 633 374 tgl 15 0 empty empty empty 17 7 0 10 -262144 -1 -1 0
1;
#X obj 465 402 *~;
#X obj 726 457 dac~;
#X floatatom 779 297 5 0 0 0 - - -;
#X msg 633 343 0;
#X obj 779 363 *~ 0.9;
#X obj 463 283 noise~;
#X obj 769 332 delread4~ \$0-del;
#X msg 715 301 0.8;
#X obj 631 315 del 30;
#X obj 471 329 lop~ 8000;
#X obj 464 442 delwrite~ \$0-del 500;
#X obj 779 392 lop~ 4000;
#X connect 0 0 1 0;
#X connect 0 0 10 0;
#X connect 1 0 11 0;
#X connect 2 0 3 1;
#X connect 3 0 13 0;
#X connect 5 0 9 0;
#X connect 6 0 2 0;
#X connect 7 0 14 0;
#X connect 8 0 12 0;
#X connect 9 0 4 0;
#X connect 9 0 4 1;
#X connect 9 0 7 0;
#X connect 10 0 2 0;
#X connect 11 0 6 0;
#X connect 12 0 3 0;
#X connect 14 0 13 0;
