#N canvas 144 56 1522 772 12;
#X obj 1025 209 inlet;
#N canvas 0 0 1920 976 midi-parsing 0;
#X obj 37 37 inlet;
#X obj 37 61 route note;
#X obj 37 112 s \$0-note;
#X obj 37 85 t l l, f 32;
#X obj 258 108 unpack f f;
#X obj 258 161 pack f f, f 10;
#N canvas 420 126 450 300 vel-norm 0;
#X obj 11 8 inlet;
#X obj 11 56 outlet;
#X obj 11 32 * 0.007874;
#X connect 0 0 2 0;
#X connect 2 0 1 0;
#X restore 325 135 pd vel-norm;
#X obj 258 185 s \$0-note-vel-norm;
#X connect 0 0 1 0;
#X connect 1 1 3 0;
#X connect 3 0 2 0;
#X connect 3 1 4 0;
#X connect 4 0 5 0;
#X connect 4 1 6 0;
#X connect 5 0 7 0;
#X connect 6 0 5 1;
#X restore 1025 233 pd midi-parsing;
#X obj 469 198 r \$0-note-vel-norm;
#X obj 391 232 print vel;
#X obj 998 258 print in-bell;
#X obj 469 299 throw~ \$2-output-left-\$3;
#X obj 570 274 throw~ \$2-output-right-\$3;
#N canvas -9 -9 1920 988 ramps 0;
#X obj 62 278 *~;
#X obj 129 247 line~;
#X msg 129 202 1 5;
#X msg 168 207 0 5;
#X obj 168 179 loadbang;
#X obj 129 156 r \$0-ramp-up;
#X obj 232 180 r \$0-ramp-down;
#X obj 376 269 *~;
#X obj 443 238 line~;
#X msg 443 193 1 5;
#X msg 482 198 0 5;
#X obj 482 170 loadbang;
#X obj 443 147 r \$0-ramp-up;
#X obj 546 171 r \$0-ramp-down;
#X obj 363 193 inlet~;
#X obj 363 319 outlet~;
#X obj 49 202 inlet~;
#X obj 49 328 outlet~;
#X connect 0 0 17 0;
#X connect 1 0 0 1;
#X connect 2 0 1 0;
#X connect 3 0 1 0;
#X connect 4 0 3 0;
#X connect 5 0 2 0;
#X connect 6 0 3 0;
#X connect 7 0 15 0;
#X connect 8 0 7 1;
#X connect 9 0 8 0;
#X connect 10 0 8 0;
#X connect 11 0 10 0;
#X connect 12 0 9 0;
#X connect 13 0 10 0;
#X connect 14 0 7 0;
#X connect 14 0 15 0;
#X connect 16 0 0 0;
#X restore 469 248 pd ramps;
#X f 15;
#X obj 729 387 t b b, f 16;
#X msg 838 411 1;
#X obj 838 439 switch~;
#X obj 877 386 t b b, f 11;
#X msg 877 410 0;
#X obj 951 409 s \$0-ramp-down;
#X obj 729 412 s \$0-ramp-up;
#X obj 729 363 r \$2-switch-on-\$3-\$1;
#X obj 877 337 r \$2-switch-off-\$3-\$1;
#X obj 877 361 pipe 3000;
#N canvas -9 -9 1920 988 guitar-voice 0;
#X obj 26 30 inlet;
#N canvas 1911 34 1842 944 noise-burst~ 1;
#N canvas 0 50 450 300 noise-source~ 0;
#X obj 20 37 hv.pinknoise;
#X obj 20 72 outlet~;
#X connect 0 0 1 0;
#X restore 48 243 pd noise-source~;
#X obj 48 311 *~;
#X obj 239 211 t b b, f 12;
#X msg 239 259 0 1;
#X msg 320 233 1 1;
#X obj 48 335 outlet~;
#X obj 239 294 vline~;
#X obj 244 92 unpack f f, f 11;
#X obj 243 147 spigot;
#X obj 318 119 tgl 15 0 empty empty empty 17 7 0 10 -262144 -1 -1 0
0.519684;
#X obj 239 235 del 20;
#X obj 244 60 inlet;
#X connect 0 0 1 0;
#X connect 1 0 5 0;
#X connect 2 0 10 0;
#X connect 2 1 4 0;
#X connect 3 0 6 0;
#X connect 4 0 6 0;
#X connect 6 0 1 1;
#X connect 7 0 8 0;
#X connect 7 1 9 0;
#X connect 8 0 2 0;
#X connect 9 0 8 1;
#X connect 10 0 3 0;
#X connect 11 0 7 0;
#X restore 25 85 pd noise-burst~;
#N canvas 111 145 1522 772 krpls~ 0;
#X obj 17 156 inlet~;
#X floatatom 415 148 5 0 0 0 - - -;
#X obj 418 122 hsl 128 15 0 1 0 0 empty empty empty -2 -8 0 10 -262144
-1 -1 0 1;
#X obj 370 236 +~ 1;
#X obj 370 260 /~ 2;
#X obj 196 117 expr 1000/$f1;
#X obj 135 200 outlet~;
#X msg 414 94 0;
#X obj 197 308 lop~ 4000;
#X obj 196 66 mtof;
#X obj 196 42 unpack f f;
#X obj 263 65 t b f, f 38;
#X text 563 75 TO_DO: think about non-linear velocity control;
#X obj 370 205 osc~ 0.08;
#X obj 196 18 inlet;
#X obj 199 278 *~ 0.9;
#X obj 17 351 delwrite~ \$0-del 2000;
#X obj 196 149 delread~ \$0-del;
#X connect 0 0 16 0;
#X connect 1 0 13 1;
#X connect 2 0 1 0;
#X connect 3 0 4 0;
#X connect 5 0 17 0;
#X connect 7 0 2 0;
#X connect 8 0 16 0;
#X connect 9 0 5 0;
#X connect 10 0 9 0;
#X connect 11 0 7 0;
#X connect 13 0 3 0;
#X connect 14 0 10 0;
#X connect 15 0 8 0;
#X connect 17 0 6 0;
#X connect 17 0 15 0;
#X restore 25 109 pd krpls~;
#X f 21;
#X obj 25 133 outlet~;
#X obj 26 54 t l l, f 21;
#X connect 0 0 4 0;
#X connect 1 0 2 0;
#X connect 2 0 3 0;
#X connect 4 0 1 0;
#X connect 4 1 2 1;
#X restore 469 224 pd guitar-voice;
#X obj 355 358 dac~;
#X obj 911 161 notein;
#X obj 911 197 pack f f;
#X connect 0 0 1 0;
#X connect 0 0 4 0;
#X connect 2 0 3 0;
#X connect 2 0 18 0;
#X connect 7 0 5 0;
#X connect 7 0 19 0;
#X connect 7 1 6 0;
#X connect 8 0 14 0;
#X connect 8 1 9 0;
#X connect 9 0 10 0;
#X connect 11 0 12 0;
#X connect 11 1 13 0;
#X connect 12 0 10 0;
#X connect 15 0 8 0;
#X connect 16 0 17 0;
#X connect 17 0 11 0;
#X connect 18 0 7 0;
#X connect 18 0 7 1;
#X connect 20 0 21 0;
#X connect 20 1 21 1;
#X connect 21 0 1 0;
