#N canvas 1912 43 1840 922 12;
#X obj 265 105 bng 15 250 50 0 empty empty empty 17 7 0 10 -262144
-1 -1;
#X obj 265 135 t b b;
#X obj 267 223 tgl 15 0 empty empty empty 17 7 0 10 -262144 -1 -1 0
1;
#X obj 156 248 *~;
#X obj 384 161 delread4~ del;
#X floatatom 384 128 5 0 0 0 - - -;
#X obj 314 276 lop~ 20000;
#X obj 384 221 *~ 0.8;
#X obj 265 164 del 70;
#X obj 156 310 delwrite~ del 200;
#X msg 341 162 1;
#X obj 153 129 osc~ 600;
#X obj 155 218 *~;
#X obj 202 173 cos~ 5;
#X msg 267 192 0;
#X obj 394 192 throw~ \$0-output;
#X obj 431 329 catch~ \$0-output;
#X obj 431 368 *~ 1;
#X obj 484 353 hsl 128 15 0 1 0 0 empty empty empty -2 -8 0 10 -262144
-1 -1 0 1;
#X obj 264 47 inlet;
#X obj 401 471 outlet~;
#X obj 501 470 outlet~;
#X connect 0 0 1 0;
#X connect 0 0 10 0;
#X connect 1 0 8 0;
#X connect 2 0 3 1;
#X connect 3 0 9 0;
#X connect 4 0 7 0;
#X connect 4 0 15 0;
#X connect 5 0 4 0;
#X connect 6 0 9 0;
#X connect 7 0 6 0;
#X connect 8 0 14 0;
#X connect 10 0 2 0;
#X connect 11 0 12 0;
#X connect 12 0 3 0;
#X connect 13 0 12 1;
#X connect 14 0 2 0;
#X connect 16 0 17 0;
#X connect 17 0 20 0;
#X connect 17 0 21 0;
#X connect 18 0 17 1;
#X connect 19 0 0 0;
